<?xml version="1.0" encoding="UTF-8"?>
<svg xmlns="http://www.w3.org/2000/svg" xmlns:xlink="http://www.w3.org/1999/xlink" width="1125pt" height="1124.99995pt" viewBox="0 0 1125 1124.99995" version="1.2">
<defs>
<clipPath id="clip1">
  <path d="M 112.5 33 L 1039.5 33 L 1039.5 1124 L 112.5 1124 Z M 112.5 33 "/>
</clipPath>
</defs>
<g id="surface1">
<g clip-path="url(#clip1)" clip-rule="nonzero">
<path style=" stroke:none;fill-rule:nonzero;fill:rgb(69.799805%,45.489502%,3.529358%);fill-opacity:1;" d="M 1036.179688 849.375 C 1031.945312 847.71875 1027.59375 846.457031 1023.128906 845.59375 C 990.664062 838.089844 959.371094 827.207031 929.253906 812.941406 C 923.324219 810.222656 916.519531 808.359375 915.1875 798.398438 C 930.25 799.648438 944.984375 797.746094 959.621094 802.097656 C 971.949219 805.757812 984.683594 804.195312 997.265625 803.324219 C 1002.382812 802.984375 1005.347656 799.910156 1005.949219 794.808594 C 1002.859375 790.726562 998.300781 790.332031 993.785156 789.488281 C 972.398438 785.488281 950.832031 782.140625 929.703125 776.984375 C 920.707031 774.855469 911.902344 772.117188 903.289062 768.761719 C 894.675781 765.410156 886.335938 761.472656 878.269531 756.960938 C 870.203125 752.445312 862.488281 747.390625 855.125 741.800781 C 847.761719 736.214844 840.820312 730.140625 834.304688 723.585938 C 842.835938 715.421875 850.917969 712.699219 860.234375 717.148438 C 867.445312 720.605469 873.839844 725.585938 880.984375 729.328125 C 911.460938 745.421875 942.710938 759.257812 977.976562 760.304688 C 978.410156 760.34375 978.839844 760.335938 979.273438 760.285156 C 979.703125 760.234375 980.125 760.140625 980.539062 760.003906 C 980.949219 759.867188 981.34375 759.691406 981.722656 759.476562 C 982.097656 759.261719 982.449219 759.007812 982.773438 758.722656 C 983.101562 758.433594 983.394531 758.117188 983.65625 757.769531 C 983.914062 757.421875 984.140625 757.050781 984.324219 756.660156 C 984.511719 756.269531 984.65625 755.859375 984.761719 755.4375 C 984.863281 755.015625 984.925781 754.589844 984.941406 754.15625 C 984.941406 752.265625 983.785156 749.269531 982.21875 748.550781 C 976.097656 745.640625 969.621094 743.449219 963.296875 740.902344 C 938.804688 731.039062 915.296875 719.640625 898.589844 698.496094 C 902.902344 688.089844 911.8125 684.605469 919.703125 680.265625 C 940.277344 668.988281 954.804688 651.273438 969.757812 634.011719 C 973.59375 629.589844 975.921875 624.199219 968.5625 618.664062 C 957.324219 622.910156 946.371094 628.773438 937.621094 638.078125 C 919.621094 657.246094 895.757812 664.636719 873.9375 672.757812 C 864.574219 668.035156 857.132812 664.851562 857.5 653.4375 C 877.066406 644.894531 896.671875 635.5625 914.332031 622.839844 C 918.0625 620.265625 921.1875 617.089844 923.703125 613.316406 C 925.839844 609.859375 922.589844 607.289062 919.214844 604.921875 C 916.492188 605.835938 912.847656 606.28125 910.125 608.023438 C 885.28125 624.121094 858.425781 623.738281 830.792969 618.417969 C 830.222656 618.339844 829.664062 618.210938 829.117188 618.035156 C 828.570312 617.859375 828.039062 617.640625 827.527344 617.378906 C 827.015625 617.113281 826.53125 616.808594 826.070312 616.460938 C 825.609375 616.117188 825.179688 615.734375 824.785156 615.316406 C 824.390625 614.902344 824.03125 614.453125 823.710938 613.976562 C 823.390625 613.496094 823.109375 612.996094 822.875 612.472656 C 822.636719 611.945312 822.445312 611.40625 822.300781 610.847656 C 822.15625 610.292969 822.054688 609.726562 822.003906 609.152344 C 821.554688 604.363281 824.644531 600.992188 829.421875 599.019531 C 846.304688 591.984375 863.09375 584.679688 880.96875 577.019531 C 898.507812 587.195312 918.25 592.855469 938.410156 597.101562 C 942.90625 598 947.441406 598.332031 952.015625 598.09375 C 953.148438 597.953125 954.191406 597.574219 955.144531 596.953125 C 956.101562 596.332031 956.871094 595.53125 957.457031 594.554688 C 958.21875 592.964844 957.730469 589.535156 956.464844 588.460938 C 952.152344 584.816406 947.199219 581.957031 942.617188 578.597656 C 931.636719 570.554688 918.617188 564.992188 909.648438 552.460938 C 923.253906 530.476562 946.382812 515.347656 955.71875 490.789062 C 951.636719 485.730469 946.914062 486.628906 942.886719 488.914062 C 938.835938 491.042969 935.363281 493.886719 932.480469 497.445312 C 919.773438 514.613281 901.1875 523.511719 885.050781 534.75 C 860.820312 518.421875 843.746094 497.347656 837.949219 477.5 C 848.96875 472.980469 860.644531 475.5 871.964844 474.695312 C 882.617188 473.921875 892.125 470.152344 901.5 466.015625 C 911.980469 461.414062 922.105469 456.132812 931.878906 450.179688 C 947.773438 440.464844 947.582031 440.140625 954.125 427.515625 C 949.648438 423.976562 945.199219 419.992188 938.886719 422.710938 C 931.511719 425.882812 924.398438 429.621094 917.011719 432.75 C 889.675781 444.355469 861.746094 445.351562 833.3125 437.199219 C 818.34375 432.929688 809.910156 423.226562 809.011719 407.679688 C 808.480469 398.710938 808.917969 389.707031 808.917969 380.113281 C 818.972656 383.515625 821.160156 392.210938 826.441406 397.992188 C 829.679688 401.628906 833.195312 404.976562 836.988281 408.03125 C 840.78125 411.085938 844.800781 413.8125 849.042969 416.203125 C 853.289062 418.59375 857.699219 420.617188 862.277344 422.28125 C 866.855469 423.941406 871.542969 425.214844 876.332031 426.097656 C 878.074219 426.425781 880.835938 424.941406 882.03125 423.378906 C 882.660156 422.496094 883.074219 421.523438 883.273438 420.457031 C 883.46875 419.390625 883.433594 418.332031 883.160156 417.28125 C 881.757812 414.148438 879.972656 411.25 877.800781 408.589844 C 867.660156 394.722656 857.480469 380.886719 847.257812 367.082031 C 839.023438 355.996094 832.082031 344.152344 826.429688 331.554688 C 820.777344 318.957031 816.550781 305.894531 813.746094 292.375 C 811.132812 280.132812 806.480469 268.28125 802.265625 256.429688 C 799.84375 249.628906 794.375 246.417969 789.488281 247.765625 C 788.386719 248.0625 787.335938 248.488281 786.339844 249.042969 C 785.339844 249.601562 784.425781 250.269531 783.59375 251.054688 C 782.765625 251.839844 782.042969 252.710938 781.425781 253.675781 C 780.8125 254.636719 780.324219 255.660156 779.964844 256.746094 C 779.175781 258.867188 779.203125 261.261719 778.605469 263.464844 C 766.589844 310.863281 743.09375 350.25 700.210938 376.210938 C 696.292969 378.578125 692.578125 381.421875 693.410156 386.972656 C 699.027344 393.160156 706.089844 392.140625 712.457031 389.433594 C 734.621094 379.910156 756.550781 369.800781 773.476562 351.667969 C 776.292969 348.632812 779.054688 344.523438 785.71875 348.46875 C 783.503906 375.367188 775.421875 399.160156 749.84375 413.9375 C 745.914062 416.328125 742.203125 419.019531 738.714844 422.015625 C 719.882812 437.5 698.035156 441.894531 674.292969 440.398438 C 665.070312 439.8125 656.023438 439.160156 647.300781 435.785156 C 644.0625 434.535156 640.582031 434.535156 637.667969 438.207031 C 633.886719 444.628906 638.238281 448.804688 643.585938 450.859375 C 662.972656 458.289062 682.933594 462.941406 704.007812 462.136719 C 718.726562 461.582031 733.488281 462.03125 748.375 462.03125 C 747.300781 470.191406 741.230469 473.988281 735.9375 477.796875 C 708.726562 497.484375 679.667969 512.980469 645.421875 516.84375 C 636.484375 517.851562 627.738281 521.414062 619.136719 524.300781 C 617.492188 524.84375 615.953125 527.566406 615.546875 529.523438 C 615.460938 529.9375 615.414062 530.359375 615.40625 530.78125 C 615.394531 531.207031 615.425781 531.625 615.488281 532.042969 C 615.554688 532.464844 615.660156 532.871094 615.796875 533.273438 C 615.9375 533.671875 616.109375 534.054688 616.320312 534.425781 C 616.527344 534.792969 616.765625 535.140625 617.039062 535.46875 C 617.308594 535.792969 617.605469 536.09375 617.929688 536.367188 C 618.253906 536.636719 618.601562 536.878906 618.96875 537.089844 C 619.335938 537.300781 619.71875 537.476562 620.117188 537.617188 C 624.199219 539.386719 629.136719 542.148438 633.027344 541.320312 C 656.472656 536.355469 680.8125 536.3125 703.476562 526.542969 C 723.515625 517.917969 743.476562 509.335938 762.457031 498.53125 C 766.414062 496.285156 770.484375 494.070312 775.855469 497.730469 C 774.863281 500.367188 774.277344 503.511719 772.660156 506 C 758.726562 527.304688 740.742188 545.046875 721.964844 561.902344 C 693.925781 587.074219 683.300781 589.710938 647.136719 581.683594 C 638.226562 579.710938 629.628906 576.339844 620.851562 573.710938 C 617.585938 572.734375 614.117188 571.113281 610.976562 571.535156 C 608.105469 571.929688 605.085938 574.257812 603.109375 576.609375 C 602.242188 577.617188 603.109375 581.113281 604.320312 582.773438 C 609.765625 590.652344 618.402344 594.09375 626.730469 598.023438 C 633.410156 601.179688 641.777344 602.351562 645.152344 610.976562 C 640.757812 616.582031 634.839844 618.976562 629.082031 621.410156 C 621.914062 617.984375 618.539062 617.699219 606.445312 618.011719 C 577.65625 618.769531 549.21875 615.949219 521.140625 609.546875 C 477.601562 599.617188 434.734375 587.617188 392.953125 565.5625 C 413.359375 553.6875 432.949219 551.085938 453.535156 555.769531 C 462.449219 557.796875 470.910156 561.210938 480.339844 561.210938 C 506.730469 561.210938 533.125 561.753906 559.519531 561.753906 C 566.324219 561.753906 573.535156 561.550781 579.929688 559.496094 C 587.152344 557.195312 595.015625 553.847656 594.171875 543.605469 C 581.535156 536.800781 568.324219 534.476562 554.335938 534.339844 C 542.882812 534.21875 531.382812 533.539062 519.96875 532.394531 C 513.425781 531.742188 506.488281 530.585938 503.097656 522.394531 C 512.949219 515.089844 523.738281 508.53125 532.703125 500.042969 C 541.195312 492 552.582031 484.492188 550.390625 467.949219 C 543.804688 469.554688 538.433594 470.398438 533.425781 472.21875 C 529.1875 473.910156 525.191406 476.054688 521.4375 478.65625 C 513.765625 483.660156 506.554688 489.429688 498.675781 494.054688 C 455.441406 519.359375 438.296875 518.015625 400.21875 486.261719 C 395.03125 481.933594 390.773438 476.410156 386.460938 471.132812 C 383.007812 466.914062 377.890625 463.105469 380.734375 455.609375 C 388.652344 452.398438 396.980469 448.628906 405.550781 445.621094 C 432.503906 436.097656 432.570312 436.097656 462.023438 444.070312 C 479.710938 448.847656 497.5625 453.296875 516.132812 451.675781 C 519.003906 451.429688 522.9375 450.152344 522.175781 442.929688 C 513.617188 434.480469 500.570312 430.152344 488.542969 424.304688 C 483.414062 421.800781 477.820312 420.222656 476.894531 412.34375 L 486.417969 403.609375 C 489.808594 400.523438 492.882812 397.257812 493.113281 392.289062 C 492.160156 391.664062 491.277344 390.605469 490.257812 390.441406 C 474.625 387.964844 462.789062 400.792969 446.054688 400.996094 C 417.277344 384.398438 389.523438 364.699219 371.484375 333.925781 C 364.585938 322.15625 357.347656 310.511719 359.890625 291.136719 C 366.027344 295.695312 368.953125 297.410156 371.320312 299.722656 C 396.980469 324.730469 426.761719 343.828125 458.148438 360.644531 C 476.691406 370.5625 496.242188 376.183594 517.546875 374.617188 C 520.949219 374.371094 524.675781 374.371094 527.601562 372.957031 C 530.527344 371.542969 533.875 368.769531 534.40625 366.085938 C 534.867188 363.734375 532.308594 359.40625 529.929688 358.15625 C 524.765625 355.648438 519.367188 353.835938 513.738281 352.714844 C 475.875 343.910156 443.738281 325.21875 416.351562 296.550781 C 419.699219 291.695312 424.882812 289.75 430.1875 288.171875 C 441.167969 284.839844 452.378906 282.171875 463.15625 278.269531 C 481.058594 271.765625 495.261719 260.582031 502.609375 242.40625 C 503.847656 239.34375 503.710938 235.304688 499.996094 233.464844 C 498.296875 232.621094 495.234375 232.363281 493.835938 233.332031 C 470.707031 249.382812 445.46875 252.226562 418.582031 245.574219 C 414.1875 244.488281 409.277344 245.382812 404.976562 244.214844 C 393.957031 241.277344 382.964844 238.09375 372.324219 234.1875 C 366.882812 232.214844 362.191406 227.957031 361.441406 221.808594 C 361.238281 220.382812 361.214844 218.953125 361.367188 217.519531 C 361.523438 216.089844 361.847656 214.695312 362.347656 213.34375 C 362.84375 211.996094 363.5 210.722656 364.316406 209.535156 C 365.128906 208.347656 366.078125 207.277344 367.15625 206.324219 C 375.972656 207.128906 379.578125 215.222656 385.78125 219.617188 C 398.027344 228.28125 410.84375 235.875 426.050781 237.804688 C 432.9375 238.675781 436.269531 234.308594 437.738281 226.855469 C 423.222656 213.25 405.371094 202.367188 393.277344 185.304688 C 377.929688 163.644531 371.507812 149.46875 369.890625 132.570312 C 379.605469 134.148438 389.644531 135.960938 399.738281 137.226562 C 401.292969 137.429688 403.15625 135.128906 405.738281 133.402344 C 405.957031 124.136719 398.148438 120.53125 392.011719 115.867188 C 370.148438 99.265625 354.882812 78.574219 350.953125 50.671875 C 350.574219 47.222656 349.667969 43.921875 348.230469 40.765625 C 346.367188 37.023438 344.640625 32.152344 338.625 33.964844 C 337.144531 35.71875 334.734375 37.257812 334.421875 39.148438 C 331.117188 59.324219 322.542969 78.601562 324.082031 99.605469 C 324.777344 109.132812 321.632812 117.417969 317.484375 125.878906 C 303.6875 154.027344 286.382812 179.402344 262.367188 199.902344 C 258.054688 203.578125 253.675781 207.65625 255.128906 214.1875 C 256.042969 218.269531 267.375 218.757812 273.90625 214.1875 C 286.152344 205.644531 297.742188 196.242188 309.878906 187.605469 C 313.824219 184.800781 314.75 177.375 322.027344 178.953125 C 324.410156 188.949219 316.910156 193.984375 311.878906 199.359375 C 303.308594 208.527344 294.300781 217.546875 282.421875 222.730469 C 267.714844 229.140625 253.210938 236.09375 238.234375 241.777344 C 228.914062 245.328125 219.714844 250.855469 209.878906 249.03125 C 200.191406 243.710938 199.445312 232.882812 192.355469 226.976562 C 191.53125 226.277344 190.605469 225.757812 189.574219 225.425781 C 188.542969 225.09375 187.488281 224.972656 186.410156 225.058594 C 185.996094 225.140625 185.589844 225.257812 185.191406 225.414062 C 184.796875 225.566406 184.417969 225.757812 184.058594 225.980469 C 183.695312 226.203125 183.359375 226.457031 183.042969 226.738281 C 182.726562 227.023438 182.4375 227.332031 182.179688 227.667969 C 181.917969 228.003906 181.691406 228.359375 181.496094 228.738281 C 181.300781 229.113281 181.140625 229.503906 181.015625 229.910156 C 180.886719 230.316406 180.800781 230.730469 180.75 231.152344 C 180.699219 231.574219 180.683594 231.996094 180.710938 232.417969 C 180.710938 240.253906 188.140625 246.949219 184.453125 255.222656 C 178.792969 264.242188 164.425781 259.589844 160.085938 270.894531 C 169.609375 286.050781 186.820312 274.035156 200.058594 284.402344 C 203.554688 291.925781 213.949219 298.566406 215.785156 310.972656 C 182.195312 319.136719 147.757812 311.476562 114.304688 316.335938 C 114.574219 326.933594 121.488281 329.9375 127.621094 332.292969 C 148.328125 340.210938 170.097656 343.570312 191.785156 338.890625 C 211.117188 334.714844 230.476562 335.992188 249.007812 333.859375 C 256.75 338.796875 263.335938 343.382812 270.300781 347.355469 C 277.796875 351.597656 285.660156 355.21875 293.292969 359.066406 C 290.328125 366.15625 284.871094 367.910156 279.128906 368.835938 C 258.613281 372.167969 238.152344 371.882812 218.03125 366.292969 C 203.691406 362.304688 189.457031 359.148438 174.246094 364.578125 C 186.042969 376.6875 189.582031 379.542969 202.097656 383.285156 C 228.4375 391.1875 254.925781 398.617188 282.859375 398.15625 C 288.449219 398.058594 294.519531 397.839844 296.734375 404.957031 C 292.082031 425.28125 278.464844 433.066406 258.914062 431.171875 C 242.96875 429.636719 227.171875 426.683594 211.292969 424.820312 C 188.953125 422.195312 169.703125 413.023438 152.300781 399.066406 C 146.300781 394.261719 141.867188 386.820312 133.023438 386.140625 C 130.710938 398.386719 130.765625 398.386719 132.792969 401.761719 C 149.117188 429.515625 172.371094 448.65625 202.683594 459.988281 C 214.289062 464.316406 227.742188 464.941406 237.714844 475.730469 C 230.246094 485.90625 218.914062 491.605469 209.023438 498.859375 C 197.949219 506.914062 186.140625 513.917969 174.875 521.714844 C 173.429688 522.707031 172.535156 525.714844 172.765625 527.621094 C 172.808594 528.039062 172.898438 528.449219 173.027344 528.851562 C 173.15625 529.253906 173.324219 529.636719 173.53125 530.003906 C 173.738281 530.371094 173.984375 530.714844 174.261719 531.03125 C 174.539062 531.351562 174.84375 531.636719 175.179688 531.890625 C 175.519531 532.144531 175.875 532.363281 176.257812 532.546875 C 176.640625 532.726562 177.035156 532.867188 177.445312 532.96875 C 177.855469 533.070312 178.269531 533.128906 178.691406 533.144531 C 179.113281 533.160156 179.53125 533.132812 179.949219 533.0625 C 202.65625 529.578125 225.1875 525.796875 242.53125 508.230469 C 249.769531 501.027344 257.566406 494.496094 265.933594 488.640625 C 271.375 484.738281 277.890625 480.027344 284.125 479.730469 C 299.089844 478.996094 312.695312 473.5 326.042969 469.347656 C 332 478.082031 328.339844 486.21875 328.761719 494.042969 C 329.386719 506.082031 323.320312 513.742188 312.613281 517.621094 C 284.640625 527.742188 257.144531 539.265625 226.898438 542.109375 C 206.410156 544.027344 185.988281 547.167969 165.675781 550.746094 C 139.390625 555.386719 113.378906 555.863281 87.242188 549.929688 C 81.460938 548.570312 75.652344 547.429688 69.839844 546.285156 C 70.917969 544.363281 71.742188 542.34375 72.316406 540.21875 C 70.5625 535.46875 66.875 531.566406 62.316406 532.488281 C 52.238281 534.515625 42.578125 538.503906 32.550781 540.828125 C 21.476562 543.402344 10.007812 547.332031 -1 546.570312 C -11.878906 545.914062 -22.621094 544.339844 -33.230469 541.851562 C -43.839844 539.367188 -54.160156 536 -64.195312 531.753906 C -72.671875 528.09375 -80.902344 523.796875 -85.964844 515.675781 C -89.691406 509.769531 -93 503.429688 -84.222656 497.308594 C -62.589844 504.328125 -39.625 503.15625 -16.714844 502.75 C -10.363281 502.65625 -4.15625 501.667969 1.910156 499.785156 C 7.976562 497.902344 13.65625 495.203125 18.945312 491.6875 C 22.5625 489.320312 27.109375 485.867188 24.222656 480.695312 C 22.863281 478.289062 19.011719 476.398438 16.058594 475.988281 C 11.613281 475.363281 6.945312 476.546875 2.375 476.4375 C -12.523438 476.070312 -27.558594 476.4375 -42.292969 474.683594 C -55.339844 473.105469 -68.222656 469.242188 -76.890625 453.988281 C -64.238281 453.390625 -54.035156 453.308594 -43.925781 452.328125 C -32.566406 451.226562 -21.328125 448.425781 -9.910156 447.921875 C 11.855469 446.941406 28.902344 435.746094 45.542969 423.515625 C 46.699219 422.671875 46.902344 419.09375 46.128906 417.460938 C 45.546875 416.511719 44.808594 415.703125 43.917969 415.035156 C 43.027344 414.367188 42.046875 413.886719 40.972656 413.597656 C 38.675781 413.148438 36.410156 413.261719 34.167969 413.9375 C 20.835938 417.066406 7.691406 421.1875 -5.777344 423.460938 C -34.796875 428.222656 -62.796875 423.964844 -89.597656 411.757812 C -95.039062 409.296875 -100.480469 406.316406 -102.046875 400.699219 C -104.101562 393.09375 -104.699219 385.027344 -105.242188 377.109375 C -106.019531 365.898438 -105.746094 365.882812 -100.347656 353.257812 C -80.128906 366.167969 -59.828125 378.984375 -39.679688 392.019531 C -29.9375 398.316406 -19.707031 403.363281 -8.101562 404.5625 C -6.425781 404.660156 -4.796875 404.433594 -3.210938 403.890625 C -1.621094 403.347656 -0.195312 402.523438 1.066406 401.417969 C 3.789062 398.699219 1.882812 394.753906 -0.726562 392.765625 C -10.753906 385.148438 -20.878906 377.597656 -31.382812 370.644531 C -39.554688 365.269531 -47.089844 359.117188 -53.988281 352.179688 C -60.882812 345.242188 -66.992188 337.667969 -72.320312 329.464844 C -92.375 298.648438 -111.582031 267.382812 -118.578125 230.390625 C -119.617188 225.914062 -121.308594 221.695312 -123.652344 217.738281 C -126.003906 213.386719 -130.140625 211.65625 -136.304688 212.527344 C -143.023438 224.269531 -142.835938 238.09375 -144.578125 251.507812 C -148.222656 279.316406 -153.269531 284.375 -180.179688 289.125 C -192.425781 291.300781 -204.671875 293.84375 -216.914062 296.648438 C -218.382812 296.988281 -220.058594 300.035156 -220.113281 301.871094 C -220.003906 302.945312 -219.699219 303.957031 -219.199219 304.910156 C -218.703125 305.867188 -218.042969 306.695312 -217.226562 307.394531 C -215.621094 308.757812 -213.144531 309.273438 -211.144531 310.292969 C -201.40625 315.257812 -188.929688 313.109375 -179.066406 321.175781 C -187.488281 339.855469 -199.296875 353.066406 -216.519531 361.367188 C -223.746094 364.847656 -231.199219 367.964844 -237.933594 372.25 C -240.140625 373.609375 -241.089844 378.003906 -241.378906 381.121094 C -241.71875 384.726562 -235.011719 390.058594 -231.636719 389.011719 C -217.582031 384.644531 -202.152344 383.976562 -190.683594 372.6875 C -185.855469 367.910156 -179.445312 364.78125 -174.046875 360.550781 C -167.746094 355.597656 -161.910156 350.0625 -155.582031 345.136719 C -150.480469 341.148438 -147.789062 333.652344 -139.71875 333.816406 C -131.148438 364.15625 -156.792969 415.976562 -199.582031 453.878906 C -203.765625 453.140625 -207.894531 452.160156 -211.964844 450.941406 C -231.691406 443.976562 -248.289062 431.636719 -265.023438 419.648438 C -270.535156 415.660156 -276.277344 412.03125 -282.246094 408.765625 C -283.484375 408.097656 -286.832031 409.582031 -288.042969 411.039062 C -288.628906 411.910156 -288.980469 412.867188 -289.089844 413.910156 C -289.203125 414.957031 -289.070312 415.964844 -288.683594 416.941406 C -279.894531 430.765625 -266.914062 440.316406 -254.167969 450.152344 C -244.640625 457.484375 -234.535156 464.003906 -225.894531 471.921875 C -233.867188 483.796875 -249.824219 484.015625 -255.1875 497.578125 C -250.941406 499.785156 -248.195312 502.203125 -245.144531 502.640625 C -241.746094 503.179688 -238.324219 503.4375 -234.878906 503.410156 C -231.4375 503.382812 -228.019531 503.074219 -224.628906 502.484375 C -221.238281 501.890625 -217.917969 501.027344 -214.667969 499.886719 C -211.417969 498.746094 -208.285156 497.347656 -205.269531 495.6875 C -187.351562 485.894531 -170.753906 489.769531 -154.929688 499.183594 C -155.039062 507.347656 -159.285156 511.605469 -162.984375 515.796875 C -180.671875 535.726562 -200.492188 552.53125 -225.214844 563.632812 C -235.269531 568.132812 -247.976562 569.46875 -253.785156 581.210938 C -253.023438 586.269531 -250.152344 589.496094 -245.269531 590.40625 C -228.644531 593.546875 -213.144531 589.835938 -199.296875 580.789062 C -182.070312 569.550781 -163.582031 560.136719 -148.359375 545.851562 C -144.808594 542.515625 -141.175781 536.871094 -134.617188 539.550781 C -133.976562 540.84375 -132.890625 542.027344 -133.148438 542.695312 C -134.332031 545.863281 -135.230469 549.496094 -137.433594 551.875 C -154.628906 570.460938 -173.257812 587.34375 -195.9375 599.140625 C -210.179688 606.527344 -224.914062 613.125 -238.507812 621.574219 C -253.152344 630.789062 -268.855469 637.53125 -285.621094 641.804688 C -288.738281 642.609375 -291.839844 643.546875 -294.898438 644.59375 C -282.355469 633.167969 -273.566406 620.59375 -264.300781 608.460938 C -263.527344 607.4375 -264.640625 603.996094 -265.90625 602.675781 C -267.171875 601.359375 -270.246094 600.148438 -271.691406 600.800781 C -282.234375 605.492188 -291.078125 612.703125 -299.511719 620.527344 C -306.234375 626.757812 -313.117188 632.773438 -320.367188 638.457031 C -333.851562 649.070312 -348.421875 652.375 -365.511719 646.976562 C -381.835938 641.820312 -398.980469 639.34375 -415.46875 634.636719 C -430.902344 630.292969 -446.03125 625.070312 -460.855469 618.976562 C -469.195312 615.507812 -474.992188 608.554688 -473.726562 597.753906 C -469.058594 596.730469 -465.769531 595.359375 -462.503906 595.414062 C -431.441406 595.941406 -400.832031 592.5 -370.273438 586.894531 C -355.183594 584.175781 -341.472656 579.605469 -329.457031 570.269531 C -328.992188 569.925781 -328.558594 569.542969 -328.152344 569.128906 C -327.75 568.714844 -327.382812 568.269531 -327.046875 567.796875 C -326.714844 567.324219 -326.421875 566.824219 -326.167969 566.304688 C -325.914062 565.785156 -325.703125 565.246094 -325.535156 564.691406 C -325.367188 564.136719 -325.246094 563.574219 -325.167969 563 C -325.089844 562.425781 -325.058594 561.851562 -325.070312 561.269531 C -325.085938 560.691406 -325.144531 560.117188 -325.25 559.546875 C -325.355469 558.980469 -325.507812 558.421875 -325.703125 557.875 C -327.578125 552.636719 -332.015625 553.019531 -336.816406 554.871094 C -371.851562 568.339844 -408.066406 569.671875 -444.992188 566.082031 C -457.402344 564.871094 -468.652344 561.632812 -482.625 555.5625 C -460.855469 549.632812 -441.808594 545.632812 -423.617188 539.019531 C -410.015625 534.09375 -397.851562 532.21875 -383.753906 537.089844 C -350.679688 548.542969 -315.976562 546.082031 -281.714844 546.761719 C -274.804688 546.910156 -267.921875 546.285156 -261.976562 542.109375 C -259.144531 540.109375 -256.765625 537.523438 -258.207031 533.851562 C -258.96875 531.90625 -260.777344 529.414062 -262.546875 529.007812 C -279.132812 525.101562 -295.742188 521.292969 -312.464844 518.042969 C -329.183594 514.789062 -346.164062 512.175781 -362.804688 509.320312 C -362.953125 503.226562 -360.339844 499.632812 -356.941406 496.382812 C -349.46875 489.265625 -341.660156 482.464844 -334.75 474.832031 C -330.667969 470.355469 -330 464.683594 -335.15625 460.480469 C -361.007812 468.042969 -377.605469 492.492188 -404.542969 497.035156 C -419.917969 491.28125 -435.441406 486.734375 -449.769531 479.714844 C -464.992188 472.261719 -479.425781 462.820312 -487.863281 446.273438 C -466.898438 440.167969 -448.109375 439.675781 -431.632812 454.355469 C -430.664062 454.992188 -429.617188 455.445312 -428.488281 455.71875 C -423.6875 457.484375 -419.089844 456.820312 -416.75 452.207031 C -415.386719 449.484375 -414.9375 445.105469 -416.273438 442.683594 C -418.355469 438.820312 -422.273438 435.949219 -425.496094 432.5625 C -421.101562 423.675781 -412.570312 419.8125 -404.339844 415.992188 C -389.484375 409.078125 -378.027344 397.582031 -365.621094 387.515625 C -359.023438 382.074219 -352.574219 374.847656 -355.988281 362.820312 C -373.59375 367.597656 -384.070312 382.441406 -399.019531 390.03125 C -415.671875 398.398438 -433.035156 403.121094 -451.699219 406.726562 C -470.871094 392.738281 -483.113281 373.367188 -490.515625 351.53125 C -494.597656 339.285156 -502.570312 326.265625 -494.324219 312.265625 C -479.496094 313.464844 -474.3125 327.339844 -463.902344 333.9375 C -452.367188 341.257812 -440.773438 348.277344 -427.753906 352.6875 C -421.769531 338.742188 -421.605469 336.128906 -429.117188 331.910156 C -443.347656 323.886719 -456.164062 314.523438 -464.488281 300.144531 C -481.085938 271.453125 -499.398438 243.546875 -498.9375 208.203125 C -498.816406 199.222656 -505.496094 194.351562 -516.472656 196.71875 C -517.15625 202.160156 -518.570312 207.78125 -518.460938 213.371094 C -518.105469 230.757812 -522.027344 247.5625 -525.683594 264.269531 C -536.488281 313.597656 -565.371094 350.851562 -605.492188 380.167969 C -609.195312 382.890625 -613.65625 384.699219 -616.90625 387.789062 C -622.445312 392.972656 -624.894531 398.917969 -617.398438 404.941406 C -602.433594 402.574219 -589.332031 395.746094 -576.582031 387.789062 C -562.976562 379.324219 -548.855469 371.664062 -534.894531 363.773438 C -530.949219 361.53125 -526.734375 359.691406 -520.921875 364.890625 C -520.746094 375.773438 -519.820312 388.371094 -520.5 400.835938 C -521.578125 420.4375 -530.445312 434.75 -548.363281 445.011719 C -565.902344 455.0625 -582.582031 457.253906 -600.527344 448.722656 C -609.792969 444.300781 -618.636719 438.957031 -627.589844 433.894531 C -634.554688 429.976562 -641.195312 425.40625 -648.363281 421.964844 C -652.921875 419.773438 -657.015625 421.894531 -660.050781 427.785156 C -653.859375 442.328125 -636.324219 450.507812 -631.207031 469.214844 C -645.722656 469.894531 -658.253906 470.574219 -670.785156 471.050781 C -682.253906 471.511719 -693.65625 472.097656 -704.796875 475.703125 C -708.539062 476.914062 -711.4375 479.375 -711.382812 482.289062 C -711.382812 485.007812 -708.472656 489.648438 -706.253906 490.027344 C -683.832031 493.933594 -661.765625 500.230469 -638.335938 494.109375 C -625.234375 490.65625 -611.125 490.832031 -597.359375 490.21875 C -582.390625 489.539062 -563.140625 495.390625 -545.65625 505.007812 C -548.257812 508.75 -550.390625 512.707031 -553.359375 515.890625 C -574.273438 538.804688 -597.03125 559.707031 -621.644531 578.597656 C -633.140625 587.332031 -643.886719 590.121094 -656.566406 584.800781 C -677.667969 575.929688 -700.742188 572.269531 -720.714844 560.378906 C -722.511719 559.304688 -725.941406 558.597656 -727.234375 559.5625 C -729.574219 561.320312 -732.742188 565.003906 -732.199219 566.9375 C -730.824219 571.253906 -728.515625 574.996094 -725.273438 578.160156 C -717.109375 586.527344 -705.628906 589.699219 -695.738281 595.371094 C -688.265625 599.671875 -677.875 599.140625 -672.921875 608.148438 C -678.742188 617.097656 -688.742188 617.234375 -696.714844 620.785156 C -709.65625 626.539062 -722.824219 631.792969 -735.96875 637.113281 C -736.15625 634.390625 -738.6875 630.050781 -740.566406 629.738281 C -769.546875 624.855469 -794.605469 611.316406 -818.617188 595.371094 C -823.039062 592.445312 -828.660156 589.820312 -826.660156 582.625 C -810.195312 577.507812 -793.859375 572.296875 -777.421875 567.359375 C -766.933594 564.203125 -763.382812 556.558594 -762.878906 546.570312 C -762.648438 542.054688 -766.523438 538.40625 -771.175781 537.808594 C -780.90625 536.53125 -788.988281 540.09375 -797.164062 544.761719 C -801.664062 547.3125 -806.316406 549.539062 -811.121094 551.445312 C -815.929688 553.355469 -820.84375 554.921875 -825.867188 556.148438 C -830.894531 557.378906 -835.976562 558.253906 -841.121094 558.78125 C -846.265625 559.308594 -851.421875 559.476562 -856.589844 559.292969 C -863.980469 559.113281 -870.535156 556.828125 -874.617188 550.980469 C -880.15625 543.007812 -889.148438 537.089844 -891.816406 524.871094 C -868.617188 523.835938 -847.027344 522.761719 -825.40625 521.972656 C -820.972656 521.808594 -816.511719 522.75 -812.046875 523.0625 C -788.835938 524.707031 -766.796875 517.253906 -744.226562 514.015625 C -742.402344 513.753906 -740.945312 510.992188 -739.339844 509.375 C -737.449219 507.484375 -739.027344 501.46875 -741.734375 500.804688 C -744.933594 500 -748.539062 498.394531 -751.421875 499.171875 C -780.796875 507.117188 -810.726562 504.804688 -840.429688 503.578125 C -865.84375 502.519531 -889.816406 493.851562 -913.039062 483.839844 C -925.921875 478.289062 -928.574219 473.28125 -929.9375 457.851562 C -922.085938 456.953125 -914.210938 455.402344 -906.316406 455.28125 C -881.910156 454.914062 -858.78125 448.058594 -835.71875 441.390625 C -830.15625 439.820312 -824.765625 437.789062 -819.546875 435.296875 C -814.328125 432.804688 -809.359375 429.886719 -804.640625 426.546875 C -799.917969 423.207031 -795.515625 419.488281 -791.433594 415.394531 C -787.347656 411.304688 -783.636719 406.894531 -780.304688 402.167969 C -777.707031 398.589844 -774.863281 394.738281 -777.980469 389.921875 C -778.78125 389.339844 -779.925781 387.976562 -780.429688 388.183594 C -787.816406 391.242188 -795.136719 394.453125 -802.441406 397.707031 C -816.046875 403.757812 -829.136719 411.308594 -843.257812 415.664062 C -870.644531 424.179688 -897.679688 422.859375 -922.441406 406.496094 C -932.140625 400.074219 -940.34375 391.691406 -941.664062 379.285156 C -943.703125 360.058594 -945.203125 340.769531 -947.105469 319.492188 C -935.746094 322.210938 -933.269531 329.410156 -928.523438 334.144531 C -911.472656 351.039062 -894.589844 368.277344 -877.433594 385.148438 C -871.609375 390.875 -864.605469 395.269531 -855.953125 394.074219 C -852.863281 393.652344 -848.6875 391.734375 -847.53125 389.296875 C -846.375 386.863281 -847.53125 381.132812 -849.421875 380.140625 C -879.9375 364.644531 -893.230469 334.226562 -911.773438 308.457031 C -917.746094 300.128906 -922.140625 290.632812 -926.847656 281.464844 C -928.386719 278.445312 -928.371094 274.8125 -924.5625 271.613281 C -920.480469 275.070312 -915.839844 278.308594 -911.964844 282.253906 C -882.929688 311.75 -846.058594 327.328125 -808.195312 341.230469 C -800.277344 344.144531 -795.191406 341.871094 -792.277344 334.035156 C -806.296875 324.089844 -821.015625 315.328125 -836.441406 307.75 C -865.964844 293.574219 -888.863281 271.273438 -907.324219 244.554688 C -912.019531 237.796875 -916.019531 230.652344 -919.324219 223.117188 C -922.625 215.582031 -925.171875 207.796875 -926.957031 199.765625 C -924.003906 196.1875 -922.496094 196.789062 -920.046875 198.527344 C -909.804688 205.785156 -899.453125 212.933594 -888.984375 219.96875 C -885.21875 222.59375 -881.226562 224.808594 -877.011719 226.625 C -876.621094 226.796875 -876.21875 226.933594 -875.804688 227.03125 C -875.386719 227.132812 -874.964844 227.191406 -874.539062 227.214844 C -874.113281 227.234375 -873.6875 227.21875 -873.261719 227.164062 C -872.839844 227.109375 -872.425781 227.015625 -872.019531 226.882812 C -871.613281 226.75 -871.21875 226.582031 -870.84375 226.378906 C -870.46875 226.175781 -870.113281 225.9375 -869.78125 225.671875 C -869.449219 225.402344 -869.144531 225.105469 -868.867188 224.78125 C -868.589844 224.457031 -868.34375 224.109375 -868.128906 223.738281 C -866.167969 220.71875 -865.09375 217.167969 -867.636719 214.351562 C -890.714844 188.871094 -911.523438 161.664062 -930.074219 132.722656 C -943.308594 112.027344 -954.125 91.1875 -956.371094 66.492188 C -956.65625 63.324219 -958.875 60.328125 -960.125 57.417969 C -971.828125 58.328125 -975.171875 60.140625 -975.199219 66.601562 C -975.324219 91.851562 -975.964844 117.144531 -974.738281 142.328125 C -974.511719 146.339844 -974.558594 150.347656 -974.886719 154.355469 C -975.210938 158.363281 -975.808594 162.328125 -976.679688 166.25 C -977.550781 170.175781 -978.6875 174.019531 -980.089844 177.789062 C -981.492188 181.554688 -983.144531 185.207031 -985.050781 188.746094 C -995.933594 208.746094 -1006.589844 229.207031 -1023.664062 245.34375 C -1041.117188 261.820312 -1056.234375 280.785156 -1076.4375 294.320312 C -1077.796875 295.234375 -1077.703125 298.292969 -1078.421875 300.8125 C -1066.683594 305.667969 -1056.65625 302.0625 -1046.289062 295.96875 C -1024.519531 283.164062 -1005.226562 267.246094 -986.777344 248.785156 C -981.773438 269.085938 -981.488281 269.191406 -986.628906 282.609375 C -992.777344 298.660156 -999.484375 314.523438 -1006.003906 330.441406 C -1012.140625 345.40625 -1021.242188 358.617188 -1030.492188 371.773438 C -1036.953125 380.945312 -1044.628906 386.875 -1056.34375 385.378906 C -1085.742188 381.476562 -1115.824219 383.066406 -1144.652344 374.414062 C -1145.703125 374.085938 -1146.773438 373.960938 -1147.871094 374.03125 C -1148.964844 374.105469 -1150.011719 374.371094 -1151.007812 374.835938 C -1151.890625 375.433594 -1152.597656 376.199219 -1153.121094 377.128906 C -1153.644531 378.0625 -1153.933594 379.0625 -1153.988281 380.128906 C -1153.375 386.671875 -1148.3125 389.828125 -1142.886719 391.828125 C -1120.640625 399.992188 -1098.289062 407.921875 -1074.027344 416.628906 C -1083.84375 424.25 -1094.273438 430.914062 -1105.3125 436.621094 C -1116.351562 442.324219 -1127.820312 446.976562 -1139.714844 450.574219 C -1145.769531 452.398438 -1152.75 455.324219 -1154.4375 463.347656 C -1155.523438 468.492188 -1145.863281 470.859375 -1134.027344 469.105469 C -1121.15625 467.1875 -1109.769531 461.296875 -1099.375 454.519531 C -1081.183594 442.65625 -1060.820312 434.453125 -1044.355469 419.542969 C -1033.390625 409.609375 -1013.785156 410.546875 -996.355469 419.433594 C -1010.125 450.371094 -1034.164062 470.519531 -1063.8125 484.738281 C -1074.125 489.703125 -1085.035156 493.375 -1095.6875 497.648438 C -1100.289062 499.496094 -1102.980469 502.519531 -1101.90625 507.863281 C -1097.292969 512.230469 -1091.375 512.464844 -1085.757812 512.027344 C -1069.539062 510.75 -1055.335938 502.300781 -1040.03125 498.257812 C -1007.960938 489.824219 -988.886719 464.503906 -966.097656 444.058594 C -960.78125 449.894531 -961.757812 455.335938 -964.386719 460.683594 C -970.671875 473.511719 -981.675781 481.90625 -992.722656 490.136719 C -1028.683594 516.9375 -1068.667969 532.011719 -1114 530.039062 C -1123.023438 529.660156 -1131.90625 526.613281 -1140.886719 525.019531 C -1151.769531 523.089844 -1162.652344 521.332031 -1173.402344 526.460938 C -1168.121094 537.5625 -1158.054688 538.136719 -1149.632812 540.421875 C -1105.960938 552.246094 -1061.757812 555.085938 -1017.050781 546.503906 C -1010.25 545.210938 -1003.363281 543.78125 -996.644531 544.109375 C -990.179688 544.433594 -984.207031 536.980469 -977.199219 543.441406 C -985.363281 571.792969 -1004.984375 592.839844 -1023.269531 614.691406 C -1030.410156 623.222656 -1040.246094 625.902344 -1051.171875 623.914062 C -1065.796875 621.195312 -1080.4375 618.648438 -1094.996094 615.628906 C -1118.53125 610.730469 -1141.972656 605.25 -1165.578125 600.664062 C -1169.933594 599.808594 -1176.460938 596.785156 -1179.46875 604.296875 C -1173.59375 612.214844 -1165.59375 616.542969 -1156.75 619.261719 C -1138.136719 624.894531 -1119.171875 629.453125 -1100.804688 635.765625 C -1089.429688 639.683594 -1076.207031 640.59375 -1067.363281 651.179688 C -1076.792969 661.503906 -1088 667.136719 -1100.015625 671.234375 C -1112.996094 675.640625 -1126.097656 679.667969 -1139.199219 683.707031 C -1149.101562 686.757812 -1154.804688 691.734375 -1152.707031 696.0625 C -1148.859375 703.953125 -1141.199219 702.414062 -1134.707031 702.359375 C -1120.777344 702.238281 -1107.417969 698.59375 -1094.75 693.042969 C -1074.832031 684.292969 -1054.425781 676.265625 -1036.957031 662.933594 C -1029.324219 657.125 -1021.363281 653.234375 -1011.839844 653.273438 C -1006.316406 653.273438 -1000.492188 653.710938 -997.960938 661.738281 C -1004.941406 675.953125 -1016.355469 687.328125 -1030.113281 695.53125 C -1052.640625 708.972656 -1070.289062 730.117188 -1096.585938 737.613281 C -1097.785156 737.953125 -1098.84375 741.691406 -1098.546875 743.542969 C -1098.332031 744.621094 -1097.894531 745.601562 -1097.234375 746.480469 C -1096.574219 747.363281 -1095.753906 748.054688 -1094.777344 748.5625 C -1092.082031 749.539062 -1089.316406 750.214844 -1086.472656 750.589844 C -1083.632812 750.96875 -1080.785156 751.042969 -1077.929688 750.804688 C -1075.074219 750.570312 -1072.277344 750.035156 -1069.535156 749.199219 C -1066.796875 748.363281 -1064.175781 747.242188 -1061.675781 745.84375 C -1046.601562 737.597656 -1031.484375 729.433594 -1016.410156 721.203125 C -1012.328125 718.988281 -1008.355469 716.78125 -1003.390625 723.925781 C -1014.058594 740.035156 -1016.222656 761.609375 -1031.960938 778.25 C -1046.925781 780.207031 -1063.484375 786.179688 -1078.449219 783.5 C -1105.972656 778.5625 -1133.320312 781.1875 -1160.679688 779.734375 C -1164.640625 779.515625 -1169.578125 778.371094 -1172.164062 783.488281 C -1169.441406 791.976562 -1162.953125 796.859375 -1155.101562 799.078125 C -1143.007812 802.480469 -1130.96875 806.289062 -1118.070312 806.195312 C -1106.613281 806.195312 -1095.132812 807.105469 -1083.675781 807.691406 C -1075.511719 808.113281 -1067.675781 809.539062 -1062.246094 816.617188 C -1063.203125 818.679688 -1064.289062 820.675781 -1065.5 822.601562 C -1080.097656 842.925781 -1099.15625 848.886719 -1122.722656 840.289062 C -1128.164062 838.300781 -1133.484375 836.207031 -1139.046875 834.738281 C -1142.402344 833.949219 -1145.804688 833.554688 -1149.253906 833.554688 C -1149.785156 833.648438 -1150.269531 833.855469 -1150.703125 834.175781 C -1151.140625 834.496094 -1151.480469 834.898438 -1151.730469 835.375 C -1152.3125 837.226562 -1153.089844 839.71875 -1152.339844 841.160156 C -1145.539062 854.054688 -1128.339844 854.152344 -1120.109375 867.484375 C -1123.15625 870.53125 -1125.851562 874.367188 -1129.511719 876.652344 C -1142.175781 884.558594 -1155.359375 891.375 -1169.851562 895.699219 C -1176.386719 897.726562 -1182.785156 900.117188 -1189.046875 902.871094 C -1193.386719 904.707031 -1197.046875 912.136719 -1194.722656 913.589844 C -1191.917969 915.347656 -1188.585938 917.304688 -1185.46875 917.320312 C -1175.074219 917.320312 -1164.980469 915.589844 -1155.6875 910.3125 C -1141.742188 902.394531 -1126.761719 895.945312 -1113.824219 886.667969 C -1099.703125 876.546875 -1085.253906 872.96875 -1068.546875 876.109375 C -1060.683594 877.59375 -1052.65625 878.21875 -1044.738281 879.429688 C -1021.933594 882.898438 -999.296875 884.871094 -977.242188 875.199219 C -973.433594 873.523438 -968.875 873.523438 -964.996094 872.816406 C -957.296875 889.144531 -956.617188 904.910156 -956.277344 920.992188 C -955.609375 953.128906 -953.894531 985.222656 -953.148438 1017.34375 C -953.085938 1022.511719 -952.453125 1027.609375 -951.25 1032.636719 C -950.050781 1037.664062 -948.3125 1042.5 -946.03125 1047.136719 C -943.1875 1052.867188 -937.582031 1054.648438 -931.527344 1054.171875 C -922.78125 1053.492188 -916.890625 1048.59375 -912.902344 1040.894531 C -910.847656 1036.75 -909.414062 1032.402344 -908.605469 1027.847656 C -907.792969 1023.292969 -907.640625 1018.714844 -908.140625 1014.117188 C -909.269531 1000.511719 -912.046875 986.910156 -912.453125 973.304688 C -913.570312 935.480469 -913.9375 897.632812 -914.289062 859.785156 C -914.289062 854.953125 -917.011719 848.558594 -909.855469 845.785156 C -874.277344 875.496094 -843.53125 893.117188 -800.046875 908.449219 C -792.527344 911.269531 -784.847656 913.539062 -777 915.25 C -771.558594 916.339844 -765.640625 915.714844 -759.953125 915.550781 C -756.320312 915.441406 -749.640625 909.007812 -750.835938 906.722656 C -752.347656 903.863281 -754.621094 900.449219 -757.367188 899.386719 C -762.648438 897.386719 -768.539062 897.074219 -774.089844 895.699219 C -787.542969 892.394531 -800.429688 887.632812 -811.855469 879.605469 C -829.695312 867.074219 -847.40625 854.382812 -865.164062 841.730469 C -866.152344 841.082031 -867.046875 840.320312 -867.847656 839.449219 C -868.648438 838.578125 -869.328125 837.621094 -869.886719 836.578125 C -870.449219 835.539062 -870.871094 834.441406 -871.160156 833.292969 C -871.445312 832.148438 -871.589844 830.980469 -871.582031 829.796875 C -868.46875 828.941406 -865.242188 827.351562 -862.058594 827.296875 C -842.5625 826.980469 -823.039062 826.234375 -803.558594 827.105469 C -776.863281 828.316406 -751.339844 820.777344 -725.207031 817.988281 C -718.511719 817.269531 -711.789062 814.601562 -705.628906 811.664062 C -704.664062 811.207031 -703.78125 810.621094 -702.988281 809.90625 C -652.894531 818.695312 -603.507812 820.167969 -554.9375 802.03125 C -551.644531 800.910156 -548.273438 800.53125 -544.8125 800.886719 C -542.964844 801.050781 -541.277344 803.214844 -538.324219 805.324219 C -541.480469 809.90625 -543.996094 815.1875 -547.929688 819.023438 C -595.015625 864.996094 -583.519531 867.335938 -654.933594 858.339844 C -686.621094 854.34375 -718.796875 854.082031 -749.859375 845.347656 C -751.421875 844.914062 -754.851562 846.804688 -755.519531 848.398438 C -756.703125 851.253906 -757.695312 855.347656 -756.457031 857.742188 C -754.21875 861.808594 -751.210938 865.191406 -747.4375 867.890625 C -730.429688 880.4375 -710.851562 886.542969 -690.1875 889.59375 C -676.664062 891.578125 -662.71875 891.796875 -650.417969 899.753906 C -654.90625 910.460938 -666.226562 911.632812 -674.539062 916.71875 C -679.316406 919.644531 -685.425781 920.476562 -688.582031 925.824219 C -689.144531 926.757812 -689.523438 927.765625 -689.714844 928.839844 C -689.90625 929.917969 -689.902344 930.992188 -689.695312 932.066406 C -689.316406 933.09375 -688.742188 933.996094 -687.964844 934.773438 C -687.191406 935.546875 -686.289062 936.125 -685.261719 936.503906 C -678.457031 938.269531 -671.914062 937.003906 -665.152344 934.871094 C -638.757812 926.558594 -614.28125 914.246094 -590.867188 899.320312 C -579.125 906.9375 -565.46875 898.777344 -554.242188 905.117188 C -554.242188 910.992188 -557.101562 914.433594 -560.324219 917.78125 C -571.808594 929.863281 -584.148438 940.992188 -597.34375 951.171875 C -610.542969 961.351562 -624.441406 970.460938 -639.042969 978.5 C -660.171875 990.011719 -681.21875 1001.628906 -704.703125 1008.28125 C -709.207031 1009.5625 -715.492188 1012.363281 -712.238281 1021.886719 C -687.4375 1022.539062 -662.703125 1021.453125 -638.609375 1012.457031 C -603.875 999.507812 -572.230469 981.683594 -545.179688 955.972656 C -540.855469 951.890625 -536.867188 944.339844 -526.488281 949.644531 C -526.488281 954.367188 -526.570312 959.984375 -526.488281 965.589844 C -525.792969 1004.609375 -524.789062 1043.613281 -524.472656 1082.59375 C -524.367188 1095.585938 -522.257812 1107.613281 -514.882812 1118.480469 C -510.476562 1124.972656 -498.011719 1124.863281 -494.351562 1117.734375 C -489.140625 1107.613281 -485.765625 1097.328125 -486.800781 1085.082031 C -488.800781 1061.152344 -488.789062 1037.042969 -489.238281 1012.976562 C -489.320312 1008.894531 -489.753906 1003.453125 -481.414062 1002.445312 C -472.136719 1010.746094 -462.136719 1020.007812 -451.78125 1028.851562 C -441.007812 1038.0625 -427.292969 1041.097656 -414.285156 1045.410156 C -394.980469 1051.898438 -390.734375 1051.246094 -377.117188 1043.574219 C -377.429688 1042.5 -377.386719 1041.042969 -378.097656 1040.390625 C -380.570312 1038.117188 -382.964844 1035.34375 -385.960938 1034.132812 C -419.835938 1020.335938 -445.945312 996.472656 -469.769531 969.710938 C -473.167969 965.902344 -478.011719 961.550781 -473.003906 953.628906 C -448.09375 952.378906 -424.40625 955.589844 -403.292969 973.179688 C -391.046875 983.34375 -376.789062 991.519531 -362.355469 998.28125 C -344.789062 1006.511719 -326.21875 1012.691406 -307.796875 1018.921875 C -302.65625 1020.664062 -296.464844 1019.765625 -290.804688 1019.328125 C -289.144531 1019.207031 -286.886719 1016.757812 -286.34375 1014.933594 C -286.105469 1013.855469 -286.101562 1012.777344 -286.339844 1011.695312 C -286.578125 1010.617188 -287.03125 1009.636719 -287.703125 1008.757812 C -289.894531 1006.28125 -292.710938 1003.316406 -295.703125 1002.773438 C -323.320312 997.085938 -346.042969 981.152344 -369.90625 967.683594 C -373.851562 965.453125 -377.808594 962.894531 -378.449219 957.65625 C -377.210938 955.972656 -376.3125 953.414062 -374.625 952.707031 C -368.328125 949.984375 -361.808594 947.820312 -355.28125 945.699219 C -341.15625 941.113281 -326.886719 936.9375 -312.859375 932.09375 C -307.484375 930.039062 -302.390625 927.433594 -297.582031 924.269531 C -294.722656 922.53125 -291.621094 919.660156 -293.050781 915.917969 C -294.941406 910.925781 -299.621094 910.476562 -304.34375 911.238281 C -307.714844 911.835938 -311.347656 912.09375 -314.355469 913.550781 C -344.65625 928.191406 -377.15625 924.664062 -409.15625 925.46875 C -416.257812 925.644531 -423.117188 924.980469 -428.328125 919.714844 C -440.257812 907.671875 -453.617188 896.871094 -463.195312 882.980469 C -455.578125 874.273438 -449.441406 882.273438 -443.222656 881.851562 C -417.988281 880.175781 -393.359375 884.164062 -368.613281 888.53125 C -335.320312 894.410156 -302.398438 888.4375 -269.664062 882.53125 C -262.574219 881.253906 -257.511719 876.476562 -254.246094 869.90625 C -253.734375 868.695312 -253.546875 867.433594 -253.691406 866.125 C -249.554688 865.367188 -245.472656 864.386719 -241.445312 863.183594 C -210.492188 853.851562 -181.730469 840.054688 -156.179688 819.949219 C -148.019531 813.566406 -139.71875 807.511719 -131.378906 801.433594 C -123.433594 795.621094 -116.195312 788.464844 -104.507812 785.703125 C -99.992188 798.628906 -98.058594 810.589844 -99.585938 821.675781 C -124.386719 857.183594 -155.203125 881.441406 -195.582031 892.695312 C -205.5 895.414062 -215.460938 898.136719 -225.199219 901.484375 C -229.453125 903.085938 -233.363281 905.300781 -236.929688 908.121094 C -237.691406 908.871094 -238.253906 909.75 -238.609375 910.757812 C -238.964844 911.765625 -239.082031 912.800781 -238.957031 913.863281 C -238.625 914.933594 -238.117188 915.914062 -237.441406 916.804688 C -236.761719 917.695312 -235.953125 918.441406 -235.011719 919.046875 C -233.085938 920.363281 -230.960938 921.050781 -228.628906 921.113281 C -188.835938 920.992188 -151.296875 913.605469 -119.949219 886.761719 C -116.46875 883.78125 -113.230469 880.464844 -109.554688 877.730469 C -106.480469 875.441406 -104.496094 869.742188 -97.816406 874.191406 C -97.257812 883.714844 -97.269531 894.015625 -95.898438 904.121094 C -94.507812 915.464844 -93.839844 926.847656 -93.882812 938.269531 C -93.394531 984.121094 -91.421875 1029.953125 -90.15625 1075.804688 C -89.9375 1083.964844 -89.449219 1091.707031 -85.054688 1098.929688 C -81.800781 1104.375 -77.773438 1107.324219 -71.378906 1107.324219 C -54.972656 1107.324219 -46.359375 1099.695312 -49.707031 1084.199219 C -56.808594 1051.246094 -54.210938 1018.050781 -54.933594 984.882812 C -55.898438 940.242188 -53.054688 895.441406 -61.121094 851.105469 C -62.714844 842.355469 -54.101562 836.832031 -45.273438 839.621094 C -35.964844 842.558594 -29.285156 849.050781 -23.613281 855.945312 C -12.375 869.550781 1.542969 879.074219 17.203125 886.816406 C 22.324219 889.382812 27.1875 892.359375 31.800781 895.753906 C 45.066406 905.402344 60.644531 909.523438 75.867188 914.324219 C 78.25 915.074219 83.132812 912.964844 84.398438 910.707031 C 85.664062 908.449219 84.699219 903.589844 82.847656 901.6875 C 78.023438 896.796875 72.71875 892.503906 66.929688 888.804688 C 51.527344 878.761719 39.214844 865.675781 24.074219 849.429688 C 32.699219 847.210938 35.898438 845.960938 39.1875 845.609375 C 65.921875 842.765625 90.179688 832.914062 113.160156 819.511719 C 115.871094 818.066406 118.390625 816.34375 120.726562 814.34375 C 141.417969 814.722656 161.960938 814.492188 182.738281 810.574219 C 223.894531 802.820312 262.679688 790.753906 296.054688 764.386719 C 305.578125 756.875 315.292969 749.421875 327.988281 743.421875 C 328.339844 750.101562 328.191406 754.671875 328.898438 759.105469 C 331.621094 776.03125 323.714844 788.125 310.84375 797.335938 C 292.152344 810.695312 272.96875 822.289062 249.078125 825.785156 C 232.027344 828.289062 215.0625 830.179688 197.90625 831.226562 C 187.511719 831.851562 177.5 832.859375 167.636719 840.640625 C 172.140625 843.445312 175.527344 847.023438 179.429688 847.714844 C 190.679688 849.832031 202.015625 851.191406 213.445312 851.796875 C 251.675781 853.550781 288.273438 844.996094 323.019531 831.269531 C 325.414062 834.382812 327.890625 836.109375 327.890625 837.824219 C 327.890625 868.789062 328.09375 899.753906 327.101562 930.691406 C 326.394531 952.460938 328.871094 973.886719 330.460938 995.4375 C 330.679688 998.390625 333.753906 1000.976562 337.78125 1001.425781 C 348.667969 1002.648438 356.925781 997.574219 357.835938 987.753906 C 358.402344 979.746094 358.566406 971.734375 358.328125 963.710938 C 358.121094 930.433594 357.796875 897.15625 357.539062 863.878906 C 357.539062 858.152344 357.265625 852.34375 361.523438 847.632812 C 363.714844 847.851562 366 847.90625 368.21875 848.328125 C 415.140625 857.199219 415.359375 856.953125 452.746094 888.570312 C 472.269531 905.089844 495.699219 913.90625 516.691406 925.5625 C 524.171875 920.503906 525.65625 914.84375 520.390625 910.40625 C 512.554688 903.808594 503.453125 898.734375 495.019531 892.84375 C 481.207031 883.226562 478.785156 880.3125 469.167969 862.996094 C 473.25 857.851562 479.207031 858.34375 484.679688 857.769531 C 511.277344 855.050781 535.195312 843.730469 559.695312 834.382812 C 560.734375 833.734375 561.441406 832.824219 561.820312 831.664062 C 584.5 833.894531 606.363281 827.199219 628.605469 824.859375 C 661.65625 821.378906 694.414062 815.839844 724.90625 801.664062 C 728.558594 799.984375 732.367188 798.789062 736.324219 798.074219 C 740.28125 797.359375 744.265625 797.152344 748.277344 797.445312 C 758.589844 798.003906 768.917969 798.65625 779.164062 799.894531 C 779.589844 799.945312 780.007812 800.03125 780.417969 800.152344 C 780.828125 800.277344 781.226562 800.433594 781.613281 800.621094 C 781.996094 800.8125 782.363281 801.03125 782.710938 801.285156 C 783.054688 801.539062 783.378906 801.816406 783.679688 802.125 C 783.976562 802.429688 784.25 802.761719 784.492188 803.117188 C 784.734375 803.46875 784.945312 803.839844 785.125 804.230469 C 785.304688 804.621094 785.449219 805.019531 785.5625 805.433594 C 785.671875 805.847656 785.75 806.269531 785.789062 806.699219 C 785.625 807.789062 785.265625 808.808594 784.699219 809.757812 C 758.851562 837.078125 725.75 852.628906 691.75 866.546875 C 685.230469 869.265625 677.996094 867.390625 672.035156 863.308594 C 661.640625 856.179688 651.722656 848.34375 641.082031 841.539062 C 635.816406 838.207031 630.621094 832.410156 623.054688 835.988281 C 618.429688 841.894531 621.207031 846.75 624.878906 851.429688 C 631.683594 860.164062 644.445312 863.265625 649.613281 875.226562 C 645.613281 877.496094 643.027344 879.835938 640.089844 880.503906 C 627.84375 883.226562 615.425781 885.441406 603.070312 887.808594 C 593.65625 889.605469 586.746094 894.707031 588.566406 898.910156 C 591.875 906.667969 599.136719 907.074219 605.996094 906.871094 C 617.425781 906.640625 628.867188 905.960938 640.265625 905.0625 C 653.980469 903.984375 667.640625 902.230469 681.367188 901.304688 C 685.875 901.058594 690.226562 901.757812 694.429688 903.402344 C 716.523438 912.285156 738.457031 921.578125 759.121094 932.476562 C 758.699219 935.128906 758.929688 936.828125 758.277344 937.316406 C 736.90625 952.910156 714.292969 966.023438 687.734375 970.515625 C 673.097656 972.976562 658.347656 974.785156 643.667969 977.019531 C 637.710938 977.914062 632.675781 980.175781 631.832031 987.167969 C 661.996094 997.671875 713.640625 992.527344 779.164062 971.601562 C 779.433594 981.601562 779.855469 988.324219 779.761719 995.03125 C 779.378906 1022.582031 778.808594 1050.117188 778.402344 1077.667969 C 778.277344 1085.652344 783.121094 1090.359375 789.910156 1093 C 805.503906 1099.082031 818.167969 1091.910156 819.734375 1075.679688 C 820.335938 1067.667969 820.164062 1059.671875 819.214844 1051.695312 C 818.6875 1046.128906 816.820312 1041 817.269531 1034.960938 C 819.039062 1011.246094 819.554688 987.453125 820.792969 963.699219 C 821.027344 959.304688 822.453125 954.976562 823.175781 951.453125 C 830.972656 949.15625 835.175781 953.316406 839.664062 956.894531 C 853.390625 967.574219 869.050781 974.675781 885.023438 981.152344 C 890.25 983.261719 896.65625 987.070312 900.738281 981.546875 C 906.832031 973.386719 897.703125 969.929688 893.269531 965.726562 C 884.984375 957.835938 876.507812 950.09375 867.570312 942.964844 C 854.957031 932.898438 842.863281 922.367188 833.367188 909.238281 C 830.984375 905.945312 827.132812 902.136719 833.527344 895.632812 C 852.574219 896.898438 872.085938 900.246094 889.757812 912.734375 C 908.464844 926.234375 928.601562 937.082031 950.167969 945.277344 C 960.070312 948.9375 969.90625 950.882812 980.207031 948.339844 C 981.703125 947.972656 982.777344 945.128906 983.59375 943.238281 C 983.707031 942.695312 983.679688 942.160156 983.515625 941.632812 C 983.347656 941.105469 983.066406 940.652344 982.667969 940.269531 C 976.992188 936.535156 971.128906 933.125 965.078125 930.039062 C 954.058594 924.84375 942.601562 920.515625 934.667969 912.066406 C 937.214844 904.953125 941.757812 903.742188 946.355469 903.332031 C 957.785156 902.300781 969.226562 901.277344 980.695312 900.9375 C 986.984375 900.859375 993.195312 900.121094 999.328125 898.71875 C 1005.460938 897.320312 1011.375 895.289062 1017.078125 892.625 C 1018.4375 891.945312 1019.632812 888.761719 1019.320312 887.019531 C 1019.007812 885.28125 1016.980469 883.332031 1015.238281 882.4375 C 1013.132812 881.476562 1010.921875 881.089844 1008.613281 881.28125 C 972.96875 883.320312 937.621094 880.679688 902.410156 875.007812 C 894.453125 873.714844 885.472656 874.285156 879.648438 868.476562 C 860.441406 849.320312 838.835938 831.742188 829.609375 804.957031 C 834.65625 799.515625 838.929688 804.042969 842.386719 805.363281 C 878.710938 819.308594 914.222656 835.296875 951.621094 846.53125 C 975.878906 853.839844 1000.289062 859.117188 1025.484375 860.898438 C 1028.925781 861.105469 1032.277344 860.652344 1035.539062 859.539062 C 1036.484375 859.089844 1037.269531 858.445312 1037.902344 857.609375 C 1038.53125 856.773438 1038.929688 855.835938 1039.101562 854.804688 C 1039.039062 853.6875 1038.71875 852.648438 1038.140625 851.6875 C 1037.5625 850.726562 1036.796875 849.957031 1035.835938 849.375 Z M -975.894531 370.714844 C -977.828125 373.9375 -984.058594 373.609375 -989.1875 368.578125 C -985.199219 355.515625 -978.085938 343.871094 -966.058594 332.0625 C -961.023438 349.039062 -969.417969 359.910156 -975.894531 370.714844 Z M -957.1875 824.085938 C -958.546875 830.480469 -963.460938 833.402344 -969.105469 834.96875 C -993.078125 841.769531 -1016.957031 849.484375 -1044.246094 844.765625 C -1043.8125 843.085938 -1043.273438 841.445312 -1042.625 839.839844 C -1041.980469 838.234375 -1041.230469 836.675781 -1040.382812 835.167969 C -1039.535156 833.65625 -1038.589844 832.210938 -1037.554688 830.820312 C -1036.515625 829.433594 -1035.394531 828.121094 -1034.1875 826.878906 C -1032.980469 825.636719 -1031.699219 824.480469 -1030.339844 823.40625 C -1028.980469 822.332031 -1027.5625 821.347656 -1026.074219 820.457031 C -1024.589844 819.566406 -1023.054688 818.777344 -1021.464844 818.085938 C -1019.878906 817.394531 -1018.25 816.808594 -1016.585938 816.328125 C -998.492188 810.886719 -978.941406 810.207031 -960.464844 807.570312 C -955.335938 812.832031 -956.003906 818.464844 -957.1875 824.085938 Z M -529.847656 554.789062 C -519.414062 574.976562 -522.105469 578.882812 -552.652344 583.917969 C -545.890625 570.082031 -538.785156 561.917969 -529.847656 554.789062 Z M -524.203125 731.3125 C -524.460938 733.003906 -524.976562 734.613281 -525.75 736.140625 C -526.519531 737.667969 -527.511719 739.039062 -528.71875 740.25 C -549.574219 758.238281 -570.828125 775.1875 -598.214844 783.230469 C -637.574219 794.78125 -676.609375 799.296875 -716.578125 786.316406 C -730.6875 781.71875 -745.273438 778.617188 -759.679688 775 C -760.230469 774.839844 -760.785156 774.726562 -761.351562 774.652344 C -761.917969 774.582031 -762.488281 774.558594 -763.058594 774.574219 C -763.628906 774.59375 -764.191406 774.65625 -764.753906 774.765625 C -765.3125 774.871094 -765.863281 775.023438 -766.398438 775.214844 C -766.9375 775.410156 -767.453125 775.644531 -767.953125 775.917969 C -768.453125 776.195312 -768.929688 776.507812 -769.378906 776.855469 C -769.832031 777.207031 -770.25 777.589844 -770.640625 778.007812 C -771.03125 778.421875 -771.386719 778.867188 -771.707031 779.339844 C -774.78125 783.417969 -772.210938 790.683594 -766.386719 793.597656 C -762.179688 795.675781 -757.878906 797.53125 -753.476562 799.160156 C -769 799.839844 -784.566406 798.886719 -800.15625 797.800781 C -804.753906 797.5 -809.027344 796.289062 -807.460938 788.792969 C -771.542969 777.433594 -741.886719 753.257812 -709.234375 734.699219 C -707.121094 733.664062 -705.414062 732.160156 -704.117188 730.195312 C -702.5 727.238281 -701.488281 724.085938 -701.082031 720.742188 C -700.824219 718.25 -709.179688 715.722656 -712.988281 717.164062 C -747.175781 730.210938 -781.3125 743.40625 -815.515625 756.371094 C -838.035156 764.917969 -860.632812 772.945312 -884.902344 775.789062 C -894.710938 776.945312 -903.039062 774.425781 -911.378906 770.847656 C -917.257812 768.316406 -919.039062 762.6875 -919.023438 756.605469 C -919.023438 751.394531 -913.582031 745.488281 -907.679688 745.910156 C -882.101562 747.71875 -857.664062 740.304688 -832.851562 736.824219 C -814.730469 734.089844 -796.972656 729.832031 -779.585938 724.046875 C -772.441406 721.847656 -765.585938 718.957031 -759.023438 715.378906 C -752.457031 711.804688 -746.316406 707.609375 -740.59375 702.796875 C -737.109375 699.804688 -734.785156 695.070312 -737.871094 690.550781 C -739.546875 688.144531 -743.054688 687.027344 -746.28125 684.988281 C -770.605469 704.988281 -799.488281 713.367188 -829.273438 715.679688 C -859.421875 718.019531 -890.605469 721.121094 -920.683594 706.15625 L -920.683594 667.328125 C -920.683594 662.894531 -920.683594 658.253906 -914.222656 655.65625 C -900.289062 660.878906 -887.367188 671.421875 -871.324219 673.914062 C -855.285156 676.402344 -840.699219 684.023438 -824.265625 683.4375 C -808.878906 682.851562 -792.972656 687.339844 -778.007812 680.226562 C -780.15625 670.105469 -787.148438 669.207031 -793.992188 667.980469 C -832.929688 661.179688 -868.632812 646.144531 -901.472656 624.445312 C -908.046875 620.121094 -913.652344 614.066406 -918.863281 608.121094 C -920.710938 605.984375 -921.160156 601.316406 -920.222656 598.445312 C -919.882812 597.730469 -919.46875 597.0625 -918.976562 596.445312 C -918.484375 595.824219 -917.929688 595.269531 -917.308594 594.777344 C -916.6875 594.285156 -916.019531 593.875 -915.300781 593.535156 C -914.585938 593.199219 -913.839844 592.949219 -913.066406 592.789062 C -889.9375 590.367188 -867.433594 590.894531 -847.882812 606.855469 C -839.980469 613.304688 -829.925781 617.070312 -821.515625 622.988281 C -805.191406 634.488281 -786.210938 639.234375 -767.816406 645.453125 C -764.113281 646.722656 -760.308594 647.496094 -756.402344 647.777344 C -756.621094 648.332031 -756.800781 648.898438 -756.933594 649.480469 C -757.859375 653.929688 -753.953125 655.777344 -750.988281 655.953125 C -743.835938 656.335938 -736.683594 656.3125 -729.53125 655.886719 C -722.382812 655.464844 -715.277344 654.644531 -708.21875 653.421875 C -701.160156 652.199219 -694.191406 650.589844 -687.316406 648.585938 C -680.4375 646.582031 -673.695312 644.199219 -667.082031 641.4375 C -632.445312 627.261719 -597.792969 618.40625 -560.28125 622.648438 C -551.453125 623.644531 -542.132812 618.800781 -532.214844 625.519531 C -538.039062 649.765625 -548.542969 671.777344 -565.234375 689.859375 C -601.015625 692.863281 -610.933594 692.101562 -640.949219 682.402344 C -651.929688 678.851562 -662.714844 675.164062 -674.402344 675.328125 C -679.96875 675.410156 -686.851562 674.621094 -688.402344 681.601562 C -689.84375 688.117188 -684.007812 691.804688 -679.21875 694.769531 C -671.464844 699.574219 -663.710938 704.15625 -654.160156 705.492188 C -640.570312 707.304688 -627.15625 709.996094 -613.914062 713.558594 C -608.039062 715.191406 -600.144531 714.511719 -596.5 722.753906 C -614.566406 741.71875 -643.300781 740.140625 -662.894531 755.773438 C -662.664062 758.386719 -663.316406 761.476562 -662.144531 762.507812 C -655.136719 768.726562 -646.691406 772.726562 -637.425781 769.789062 C -614.460938 762.496094 -591.4375 754.742188 -574.132812 736.726562 C -563.140625 725.285156 -548.71875 721.761719 -534.351562 718.144531 C -531.808594 717.503906 -527.332031 719.503906 -525.710938 721.695312 C -524.09375 723.882812 -523.671875 728.199219 -524.203125 731.3125 Z M -133.050781 458.300781 C -134.863281 465.714844 -137.949219 466.316406 -151.367188 463.117188 C -152.65625 451.878906 -143.203125 449.0625 -137.570312 443.308594 C -130.902344 447.8125 -131.84375 453.351562 -133.050781 458.300781 Z M -489.15625 510.96875 C -488.3125 509.15625 -486.1875 506.191406 -485.332031 506.410156 C -479.101562 508.042969 -473.085938 510.355469 -465.320312 513.007812 C -481.003906 518.175781 -481.019531 518.21875 -486.554688 516.328125 C -489.140625 515.441406 -490.296875 513.414062 -489.15625 510.96875 Z M -164.753906 776.414062 C -181.773438 790.019531 -198.984375 803.417969 -215.199219 817.933594 C -220.308594 822.542969 -225.816406 826.609375 -231.722656 830.125 C -237.632812 833.644531 -243.832031 836.550781 -250.316406 838.847656 C -264.207031 843.8125 -278.085938 848.980469 -289.769531 856.859375 L -289.769531 858.21875 C -298 860.195312 -306.335938 861.476562 -314.777344 862.070312 C -349.28125 863.632812 -383.265625 859.347656 -417.074219 851.988281 C -440.640625 846.859375 -458.148438 832.464844 -476.296875 818.589844 C -482.992188 813.472656 -485.820312 805.664062 -487.808594 797.867188 C -489.984375 789.445312 -486.296875 782.332031 -480.71875 775.105469 C -472.203125 780.210938 -463.796875 785.679688 -454.992188 790.441406 C -424.734375 806.808594 -393.890625 821.773438 -360.394531 830.804688 C -347.839844 834.195312 -335.511719 835.269531 -323.0625 832.667969 C -315.226562 831.035156 -307.660156 827.703125 -305.078125 817.199219 C -315.960938 811.066406 -328.207031 810.113281 -340.449219 808.085938 C -360.859375 804.710938 -381.402344 800.835938 -399.210938 790.003906 C -419.753906 777.5 -439.46875 763.570312 -459.074219 749.542969 C -466.296875 744.375 -474.242188 738.851562 -476.054688 727.503906 C -458.136719 720.917969 -439.441406 717.394531 -421.933594 714.238281 C -407.511719 719.558594 -396.492188 727.421875 -385.199219 735.613281 C -361.15625 753.109375 -336.4375 769.816406 -308.546875 781.105469 C -301.007812 784.15625 -293.582031 786.984375 -285.417969 786.902344 C -278.847656 786.902344 -274.914062 783.597656 -273.730469 775.867188 C -281.242188 771.476562 -288.613281 765.53125 -297.050781 762.523438 C -321.089844 753.9375 -340.871094 737.882812 -363.183594 726.320312 C -369.234375 722.949219 -374.636719 718.746094 -379.386719 713.707031 C -383.742188 709.3125 -391.386719 706.90625 -390.667969 698.742188 C -383.605469 689.789062 -372.328125 689.3125 -363.347656 684.472656 C -354.367188 679.628906 -344.585938 679.613281 -333.648438 680.949219 C -317.679688 683 -301.65625 683.660156 -285.574219 682.929688 C -269.492188 682.195312 -253.59375 680.078125 -237.878906 676.582031 C -228.355469 674.402344 -220.914062 669.777344 -218.75 657.535156 C -223.398438 656.207031 -228.132812 655.386719 -232.957031 655.070312 C -227.066406 653.21875 -221.1875 651.382812 -215.269531 649.628906 C -187.554688 641.316406 -162.289062 627.859375 -142.671875 605.644531 C -140.820312 603.546875 -138.101562 601.003906 -134.507812 602.921875 C -139.039062 642.171875 -143.050781 650.691406 -177.542969 693.816406 C -188.617188 697.898438 -199.785156 695.179688 -210.832031 692.15625 C -222.96875 688.824219 -234.914062 684.785156 -247.050781 681.464844 C -253.71875 679.65625 -260.574219 678.976562 -267.324219 685.136719 C -255.566406 708.742188 -225.621094 705.191406 -209.675781 721.558594 C -212.398438 730.25 -219.378906 732.835938 -225.417969 735.246094 C -236.234375 739.558594 -240.382812 748.851562 -245.1875 757.964844 C -246.042969 759.597656 -246.152344 762.945312 -245.105469 763.992188 C -242.875 766.238281 -239.296875 769.324219 -236.941406 768.875 C -224.5625 766.507812 -212.574219 762.957031 -202.507812 754.453125 C -190.261719 744.140625 -177.542969 734.484375 -165.105469 724.605469 C -153.554688 729.734375 -141.3125 724.945312 -130.753906 733.203125 C -139.175781 750.535156 -150.167969 764.78125 -164.753906 776.414062 Z M 301.796875 603.085938 C 304.65625 599.625 307.773438 596.414062 311.144531 593.453125 C 315.144531 589.78125 318.476562 584.855469 324.75 584.734375 C 329.226562 596.433594 329.0625 601.726562 323.035156 604.488281 C 314.042969 608.570312 304.640625 611.875 293.917969 616.078125 C 293.375 608.433594 299.089844 606.554688 301.808594 603.085938 Z M 325.605469 672.390625 C 314.816406 684.308594 303.375 694.730469 287.863281 701.339844 C 252.683594 716.304688 216.453125 725.558594 178.261719 727.191406 C 170.25 727.53125 162.167969 727.625 154.222656 728.699219 C 149.710938 729.554688 145.484375 731.15625 141.542969 733.503906 C 140.652344 734.179688 139.960938 735.019531 139.460938 736.019531 C 138.960938 737.015625 138.707031 738.074219 138.699219 739.191406 C 138.699219 741.027344 140.507812 744.007812 142.03125 744.359375 C 147.511719 745.777344 153.078125 746.5625 158.738281 746.714844 C 187.445312 746.972656 216.152344 746.714844 244.84375 747.039062 C 250.886719 747.039062 257.878906 744.902344 262.832031 751.257812 C 256.695312 754.714844 250.953125 758.441406 244.804688 761.3125 C 208.480469 778.316406 172.261719 795.636719 131.023438 797.40625 C 129.601562 797.472656 128.1875 797.613281 126.78125 797.828125 C 127.011719 796.25 127.242188 794.5625 127.5 792.65625 C 123.230469 789.296875 118.78125 791.296875 114.546875 792.546875 C 98.222656 797.378906 81.71875 802.070312 65.570312 807.515625 C 39.71875 816.042969 13.871094 814.5625 -11.394531 809.308594 C -17.585938 799.785156 -27.109375 793.867188 -27.855469 782.765625 C -23.777344 779.023438 -19.695312 779.230469 -14.917969 780.289062 C 20.726562 788.152344 55.582031 787.09375 88.835938 770.128906 C 93.296875 767.84375 95.9375 764.074219 94.96875 759.242188 C 94.003906 754.414062 90.671875 750.496094 85.679688 750.496094 C 73.105469 750.496094 60.425781 750.496094 47.976562 752.058594 C 34.074219 753.773438 19.691406 753.421875 7.339844 749.09375 C -18.511719 739.871094 -42.578125 725.964844 -62.046875 705.925781 C -72.796875 694.863281 -71.40625 682.089844 -66.128906 667.34375 C -44.671875 677.164062 -24.191406 688.71875 -4.6875 702.007812 C 9.964844 712.0625 25.964844 717.761719 43.71875 717.339844 C 52.917969 717.121094 62.183594 715.570312 67.515625 705.015625 C 59.707031 694.390625 47.949219 690.839844 35.679688 687.65625 C 16.890625 682.769531 -1.585938 676.894531 -19.460938 662.8125 C 28.441406 651.410156 74.65625 641.519531 106.304688 602.390625 C 98.671875 592.9375 98.289062 592.40625 91.257812 597.414062 C 49.351562 627.277344 2.128906 630.59375 -46.835938 625.710938 C -53.964844 625.003906 -60.535156 623.207031 -64.617188 616.894531 C -69.21875 609.78125 -76.589844 603.289062 -72.917969 591.726562 C -59.039062 597.25 -46.402344 602.066406 -33.953125 607.316406 C -16.457031 614.675781 1.773438 614.976562 20.15625 613.152344 C 23.082031 612.867188 27.148438 610.664062 26.359375 606.636719 C 25.773438 603.699219 23.816406 599.835938 21.394531 598.71875 C 15.15625 595.746094 8.664062 593.535156 1.910156 592.078125 C -12.835938 588.9375 -26.128906 582.9375 -42.808594 571.917969 C -24.890625 571.917969 -11.515625 571.808594 1.71875 571.917969 C 19.40625 572.109375 35.953125 567.632812 51.949219 560.625 C 118.414062 586.734375 187.8125 587.535156 260.421875 577.753906 C 249.539062 591.753906 240.695312 603.167969 229.292969 612.9375 C 214.234375 625.847656 198.574219 631.03125 178.640625 626.960938 C 158.710938 622.894531 137.894531 621.382812 117.417969 619.058594 C 116.292969 619.113281 115.238281 619.410156 114.246094 619.941406 C 113.253906 620.476562 112.425781 621.199219 111.757812 622.105469 C 109.515625 625.425781 111.269531 628.90625 114.125 630.703125 C 125.910156 638.105469 139.28125 641.4375 152.398438 645.601562 C 158.015625 647.398438 166.003906 647.5625 167.554688 657.398438 C 158.941406 662.527344 150.332031 668.117188 141.308594 672.949219 C 122.097656 683.261719 102.710938 693.21875 83.367188 703.257812 C 77.285156 706.414062 70.578125 708.703125 66.550781 714.742188 C 64.210938 718.265625 66.101562 721.054688 69.761719 724.699219 C 98.25 715.652344 127.625 706.742188 156.671875 696.863281 C 167.417969 693.21875 177.445312 687.339844 187.703125 682.375 C 213.253906 669.914062 237.320312 653.113281 267.851562 655.492188 C 268.898438 655.574219 269.988281 654.621094 271.105469 654.472656 C 280.164062 653.21875 289.210938 651.425781 298.3125 651.03125 C 308.285156 650.582031 317.117188 641.941406 327.648438 646.582031 C 331.183594 665.628906 331.183594 666.457031 325.742188 672.390625 Z M 325.441406 325.980469 C 318.542969 331.542969 310.339844 327.886719 303.539062 323.125 C 301.742188 321.871094 300.464844 319.859375 297.863281 317 C 307.226562 311.179688 315.878906 304.933594 326.707031 302.824219 C 330.789062 311.734375 332.421875 320.414062 325.484375 325.980469 Z M 328.953125 252.867188 C 322.421875 266.933594 310.640625 276.199219 297.226562 283.164062 C 287.089844 288.429688 276.410156 292.6875 264.574219 297.96875 C 253.0625 290.921875 241.566406 287.519531 236.765625 275.832031 C 249.582031 264.007812 267.417969 266.851562 281.660156 259.507812 C 295.90625 252.160156 310.230469 245.410156 324.082031 238.664062 C 332.382812 241.738281 331.15625 248.023438 328.980469 252.867188 Z M 359.824219 399.351562 C 368.488281 400.101562 374.011719 404.726562 377.507812 415.203125 C 357.101562 417.039062 355.742188 415.625 359.824219 399.351562 Z M 362.136719 676.308594 C 356.695312 673.21875 358.992188 669.042969 361.6875 665.207031 C 369.851562 666.117188 376 670.238281 381.046875 676.472656 C 374.515625 680.785156 368.121094 679.710938 362.136719 676.308594 Z M 384.433594 612.570312 C 401.578125 618.378906 418.449219 625.425781 435.863281 629.683594 C 465.875 636.941406 496.125 643.242188 526.609375 648.59375 C 553.984375 653.382812 581.558594 651.207031 608.554688 645.125 C 610.28125 644.730469 612.023438 644.296875 613.738281 643.765625 L 614.472656 644.296875 C 627.667969 639.640625 642.933594 639.492188 655.761719 630.855469 C 671.597656 620.1875 688.742188 615.589844 707.9375 619.601562 C 713.460938 620.757812 719.476562 619.480469 725.09375 620.351562 C 730.714844 621.222656 737.980469 617.34375 742.671875 623.535156 C 742.230469 624.933594 741.625 626.265625 740.863281 627.519531 C 739.367188 629.207031 737.882812 631.207031 735.9375 632.1875 C 688.550781 656.253906 641.042969 679.996094 586.28125 681.300781 C 589.003906 679.855469 591.441406 678.027344 593.585938 675.8125 C 595.730469 673.597656 597.480469 671.105469 598.839844 668.335938 C 594.582031 666.976562 591.585938 665.152344 588.539062 665.082031 C 574.566406 664.742188 561.4375 669.289062 548.214844 672.949219 C 526.132812 679.054688 504.078125 684.796875 480.992188 686.074219 C 470.105469 686.6875 460.433594 684.390625 451.765625 678.28125 C 426.238281 660.523438 403.5625 639.660156 383.742188 615.699219 C 383.46875 615.304688 384.148438 614.132812 384.558594 612.570312 Z M 781.3125 713.789062 C 770.425781 728.753906 756.957031 741.164062 742.902344 753 C 741.78125 753.910156 740.578125 754.699219 739.296875 755.363281 C 738.011719 756.027344 736.671875 756.554688 735.28125 756.945312 C 733.886719 757.332031 732.46875 757.574219 731.027344 757.671875 C 729.582031 757.765625 728.144531 757.714844 726.714844 757.515625 C 700.457031 754.605469 674.238281 750.957031 651.257812 736.617188 C 640.566406 729.953125 628.796875 726.414062 617.164062 722.347656 C 615.804688 721.882812 612.769531 723.980469 611.722656 725.640625 C 611.203125 726.582031 610.921875 727.589844 610.882812 728.667969 C 610.839844 729.742188 611.042969 730.769531 611.492188 731.75 C 614.023438 735.476562 616.796875 739.53125 620.472656 741.898438 C 632.035156 749.324219 644.035156 756.113281 655.941406 763 C 660.90625 765.871094 666.621094 767.691406 671.015625 771.160156 C 675.777344 774.957031 683.84375 774.753906 685.652344 782.386719 C 682.414062 784.863281 678.917969 786.910156 675.167969 788.523438 C 671.421875 790.132812 667.53125 791.261719 663.503906 791.910156 C 636.59375 797.078125 609.382812 800.808594 583.234375 809.390625 C 576.878906 811.472656 569.628906 810.753906 562.824219 811.324219 C 558.28125 811.730469 553.453125 811.472656 549.300781 813.011719 C 546.675781 813.976562 543.640625 817.554688 543.382812 820.222656 C 543.382812 822.464844 544.058594 824.484375 545.410156 826.273438 L 545.125 826.273438 C 536.171875 828.058594 527.246094 830.546875 518.199219 831.199219 C 504.511719 832.179688 490.785156 833.335938 477.152344 834.179688 C 452.527344 835.730469 429.074219 830.96875 416.636719 805.078125 C 414.160156 799.9375 410.570312 795.335938 407.875 790.277344 C 405.589844 786.019531 405.15625 781.679688 410.148438 778.03125 C 435.277344 788.765625 461.628906 798.003906 488.703125 801.269531 C 535.519531 806.914062 582.582031 805.882812 628.714844 793.652344 C 632.796875 792.574219 636.253906 788.957031 639.707031 786.167969 C 642.117188 784.222656 640.523438 778.414062 637.519531 777.800781 C 633.125 776.902344 628.675781 775.679688 624.265625 775.679688 C 584.117188 775.789062 544.144531 775.09375 504.324219 768.222656 C 486.820312 765.316406 469.65625 761.035156 452.839844 755.378906 C 436.019531 749.726562 419.757812 742.769531 404.054688 734.511719 C 399.058594 731.789062 392.214844 729.9375 391.003906 721.410156 C 409.292969 720.605469 426.460938 719.761719 443.628906 719.164062 C 451.65625 718.878906 459.957031 718.457031 467.234375 722.511719 C 493.941406 737.300781 523.996094 739.394531 553.03125 745.351562 C 563.683594 747.542969 573.4375 745.964844 582.390625 736.699219 C 561.167969 722.347656 532.785156 726.984375 512.867188 708.578125 C 526.664062 698.539062 543.710938 698.375 557.847656 691.449219 C 562.507812 689.375 567.316406 687.722656 572.269531 686.496094 C 571.519531 687.308594 570.988281 688.242188 570.675781 689.300781 C 569.410156 694.484375 573.546875 698.128906 578.007812 698.824219 C 598.417969 702.019531 619.464844 705.492188 639.53125 700.511719 C 669.367188 693.082031 700.539062 690.253906 728.6875 676.375 C 733.585938 673.953125 739.421875 672.117188 745.011719 676.632812 C 736.578125 691.300781 722.183594 698.550781 708.277344 706.457031 C 700.359375 710.929688 692.59375 715.652344 684.972656 720.632812 C 682.0625 722.550781 684.429688 730.835938 687.695312 732.535156 C 689.21875 733.34375 690.816406 733.972656 692.480469 734.417969 C 694.148438 734.867188 695.84375 735.121094 697.566406 735.1875 C 699.292969 735.25 701.003906 735.121094 702.699219 734.800781 C 704.394531 734.480469 706.03125 733.976562 707.613281 733.285156 C 726.457031 725.339844 746.5625 719.804688 762.507812 705.9375 C 766.015625 702.957031 769.738281 700.269531 773.679688 697.886719 C 776.945312 695.871094 779.3125 690.863281 784.398438 693.722656 C 785.027344 695.378906 785.4375 697.089844 785.632812 698.851562 C 785.828125 700.609375 785.800781 702.367188 785.550781 704.121094 C 785.300781 705.878906 784.835938 707.574219 784.15625 709.210938 C 783.480469 710.847656 782.609375 712.375 781.542969 713.789062 Z M 783.339844 572.609375 C 772.128906 578.132812 761.664062 585.113281 745.761719 582.367188 C 755.746094 566.597656 768.480469 556.339844 783.269531 544.9375 C 787.214844 556.613281 785.71875 564.257812 783.40625 572.609375 Z M 785.652344 896.597656 C 781.011719 902.953125 775.1875 902.695312 769.542969 902.042969 C 756.128906 900.4375 743.351562 896.980469 732.6875 889.484375 C 733.324219 886.339844 733.191406 884.761719 733.800781 884.382812 C 749.9375 874.042969 766.140625 863.824219 783.175781 853.089844 C 784.808594 857.714844 786.644531 860.710938 786.808594 863.785156 C 787.488281 875.050781 788.984375 886.449219 785.71875 896.597656 Z M 818.617188 524.109375 C 822.101562 525.753906 824.65625 526.191406 825.964844 527.714844 C 833.175781 536.136719 840.085938 544.828125 847.105469 553.441406 C 840.140625 559.769531 833.09375 562.734375 822.902344 561.929688 C 819.5 550.121094 814.058594 538.203125 818.683594 524.148438 Z M 818.617188 524.109375 "/>
</g>
</g>
</svg>
