<?xml version="1.0" encoding="UTF-8"?>
<svg xmlns="http://www.w3.org/2000/svg" xmlns:xlink="http://www.w3.org/1999/xlink" width="1125pt" height="1124.99995pt" viewBox="0 0 1125 1124.99995" version="1.2">
<defs>
<clipPath id="clip1">
  <path d="M 112.5 33 L 1039 33 L 1039 1124 L 112.5 1124 Z M 112.5 33 "/>
</clipPath>
</defs>
<g id="surface1">
<g clip-path="url(#clip1)" clip-rule="nonzero">
<path style=" stroke:none;fill-rule:nonzero;fill:rgb(0%,0%,0%);fill-opacity:1;" d="M 1036.003906 849.296875 C 1031.769531 847.640625 1027.417969 846.378906 1022.957031 845.515625 C 990.492188 838.011719 959.203125 827.128906 929.085938 812.867188 C 923.15625 810.144531 916.355469 808.28125 915.019531 798.324219 C 930.082031 799.578125 944.8125 797.671875 959.453125 802.023438 C 971.777344 805.683594 984.511719 804.121094 997.09375 803.25 C 1002.210938 802.910156 1005.175781 799.835938 1005.773438 794.734375 C 1002.6875 790.652344 998.128906 790.257812 993.613281 789.414062 C 972.226562 785.414062 950.664062 782.066406 929.535156 776.914062 C 920.542969 774.785156 911.738281 772.042969 903.125 768.691406 C 894.511719 765.339844 886.171875 761.402344 878.105469 756.890625 C 870.039062 752.375 862.324219 747.324219 854.964844 741.734375 C 847.601562 736.144531 840.660156 730.074219 834.144531 723.519531 C 842.675781 715.355469 850.753906 712.636719 860.074219 717.082031 C 867.285156 720.539062 873.679688 725.519531 880.820312 729.257812 C 911.292969 745.351562 942.542969 759.1875 977.804688 760.234375 C 978.238281 760.273438 978.667969 760.265625 979.101562 760.214844 C 979.53125 760.164062 979.953125 760.070312 980.367188 759.933594 C 980.777344 759.796875 981.171875 759.621094 981.550781 759.40625 C 981.925781 759.191406 982.277344 758.9375 982.601562 758.652344 C 982.929688 758.363281 983.222656 758.046875 983.484375 757.699219 C 983.746094 757.351562 983.96875 756.984375 984.152344 756.589844 C 984.339844 756.199219 984.484375 755.789062 984.589844 755.371094 C 984.691406 754.949219 984.753906 754.519531 984.769531 754.085938 C 984.769531 752.195312 983.613281 749.203125 982.050781 748.480469 C 975.925781 745.570312 969.453125 743.378906 963.125 740.835938 C 938.636719 730.972656 915.128906 719.574219 898.425781 698.433594 C 902.738281 688.027344 911.648438 684.542969 919.539062 680.203125 C 940.105469 668.925781 954.636719 651.214844 969.585938 633.953125 C 973.421875 629.53125 975.75 624.144531 968.390625 618.605469 C 957.152344 622.851562 946.203125 628.714844 937.453125 638.019531 C 919.457031 657.1875 895.59375 664.574219 873.773438 672.695312 C 864.414062 667.976562 856.972656 664.792969 857.339844 653.378906 C 876.902344 644.835938 896.507812 635.503906 914.164062 622.785156 C 917.898438 620.207031 921.023438 617.035156 923.539062 613.261719 C 925.671875 609.804688 922.421875 607.234375 919.046875 604.867188 C 916.328125 605.777344 912.679688 606.226562 909.960938 607.96875 C 885.121094 624.0625 858.265625 623.679688 830.636719 618.363281 C 830.066406 618.28125 829.507812 618.152344 828.957031 617.980469 C 828.410156 617.804688 827.878906 617.585938 827.367188 617.320312 C 826.855469 617.058594 826.371094 616.753906 825.910156 616.40625 C 825.449219 616.0625 825.023438 615.679688 824.625 615.261719 C 824.230469 614.84375 823.871094 614.398438 823.550781 613.917969 C 823.230469 613.441406 822.953125 612.941406 822.714844 612.414062 C 822.476562 611.890625 822.285156 611.351562 822.140625 610.792969 C 821.996094 610.238281 821.898438 609.671875 821.847656 609.097656 C 821.398438 604.308594 824.484375 600.9375 829.261719 598.964844 C 846.144531 591.929688 862.929688 584.625 880.808594 576.964844 C 898.34375 587.140625 918.082031 592.800781 938.242188 597.046875 C 942.738281 597.945312 947.269531 598.277344 951.847656 598.039062 C 952.976562 597.898438 954.019531 597.519531 954.976562 596.898438 C 955.929688 596.277344 956.703125 595.476562 957.289062 594.5 C 958.050781 592.910156 957.5625 589.480469 956.296875 588.40625 C 951.984375 584.761719 947.03125 581.90625 942.445312 578.542969 C 931.46875 570.503906 918.449219 564.941406 909.484375 552.410156 C 923.089844 530.429688 946.214844 515.300781 955.546875 490.746094 C 951.464844 485.6875 946.746094 486.582031 942.71875 488.867188 C 938.667969 491 935.195312 493.84375 932.3125 497.398438 C 919.605469 514.566406 901.023438 523.464844 884.886719 534.699219 C 860.660156 518.375 843.585938 497.304688 837.789062 477.457031 C 848.808594 472.9375 860.480469 475.457031 871.800781 474.652344 C 882.453125 473.878906 891.960938 470.109375 901.335938 465.972656 C 911.8125 461.371094 921.9375 456.09375 931.714844 450.140625 C 947.601562 440.425781 947.414062 440.101562 953.957031 427.476562 C 949.480469 423.9375 945.03125 419.953125 938.71875 422.671875 C 931.347656 425.84375 924.230469 429.585938 916.84375 432.714844 C 889.511719 444.316406 861.582031 445.308594 833.152344 437.160156 C 818.1875 432.890625 809.753906 423.191406 808.855469 407.640625 C 808.324219 398.675781 808.757812 389.671875 808.757812 380.082031 C 818.8125 383.480469 821.003906 392.175781 826.28125 397.957031 C 829.519531 401.59375 833.035156 404.941406 836.828125 407.996094 C 840.621094 411.050781 844.640625 413.773438 848.882812 416.164062 C 853.125 418.554688 857.539062 420.582031 862.117188 422.242188 C 866.695312 423.902344 871.378906 425.175781 876.167969 426.0625 C 877.910156 426.386719 880.671875 424.90625 881.867188 423.339844 C 882.496094 422.457031 882.910156 421.484375 883.109375 420.417969 C 883.304688 419.351562 883.269531 418.296875 882.996094 417.246094 C 881.59375 414.109375 879.808594 411.214844 877.636719 408.554688 C 867.496094 394.6875 857.316406 380.851562 847.097656 367.046875 C 838.863281 355.964844 831.921875 344.125 826.269531 331.527344 C 820.621094 318.929688 816.390625 305.871094 813.589844 292.351562 C 810.976562 280.109375 806.324219 268.257812 802.105469 256.410156 C 799.683594 249.609375 794.214844 246.398438 789.332031 247.746094 C 788.230469 248.039062 787.179688 248.46875 786.183594 249.023438 C 785.183594 249.582031 784.269531 250.25 783.441406 251.035156 C 782.609375 251.816406 781.886719 252.691406 781.273438 253.652344 C 780.65625 254.617188 780.171875 255.640625 779.808594 256.722656 C 779.019531 258.84375 779.046875 261.238281 778.449219 263.441406 C 766.4375 310.839844 742.941406 350.222656 700.0625 376.175781 C 696.144531 378.542969 692.429688 381.386719 693.261719 386.9375 C 698.878906 393.125 705.9375 392.105469 712.304688 389.398438 C 734.46875 379.875 756.398438 369.769531 773.320312 351.636719 C 776.136719 348.601562 778.898438 344.492188 785.5625 348.4375 C 783.347656 375.332031 775.265625 399.125 749.691406 413.898438 C 745.761719 416.289062 742.050781 418.984375 738.5625 421.980469 C 719.734375 437.460938 697.886719 441.855469 674.144531 440.359375 C 664.921875 439.773438 655.875 439.121094 647.15625 435.746094 C 643.917969 434.496094 640.433594 434.496094 637.523438 438.167969 C 633.742188 444.589844 638.09375 448.765625 643.441406 450.820312 C 662.828125 458.246094 682.785156 462.898438 703.859375 462.097656 C 718.578125 461.539062 733.339844 461.988281 748.222656 461.988281 C 747.144531 470.152344 741.078125 473.945312 735.785156 477.753906 C 708.578125 497.4375 679.519531 512.933594 645.277344 516.796875 C 636.339844 517.804688 627.59375 521.367188 618.996094 524.253906 C 617.347656 524.796875 615.8125 527.515625 615.402344 529.476562 C 615.320312 529.890625 615.273438 530.308594 615.261719 530.734375 C 615.253906 531.15625 615.28125 531.578125 615.347656 531.996094 C 615.414062 532.414062 615.515625 532.824219 615.65625 533.222656 C 615.792969 533.625 615.96875 534.007812 616.175781 534.378906 C 616.386719 534.746094 616.625 535.09375 616.894531 535.417969 C 617.164062 535.746094 617.464844 536.042969 617.789062 536.316406 C 618.109375 536.589844 618.457031 536.832031 618.824219 537.042969 C 619.191406 537.253906 619.574219 537.429688 619.976562 537.570312 C 624.054688 539.339844 628.996094 542.101562 632.886719 541.269531 C 656.324219 536.304688 680.664062 536.265625 703.328125 526.496094 C 723.367188 517.871094 743.324219 509.289062 762.300781 498.488281 C 766.261719 496.242188 770.328125 494.023438 775.703125 497.683594 C 774.707031 500.324219 774.125 503.464844 772.503906 505.957031 C 758.574219 527.257812 740.589844 544.996094 721.816406 561.851562 C 693.777344 587.019531 683.152344 589.660156 646.992188 581.632812 C 638.082031 579.660156 629.484375 576.285156 620.710938 573.660156 C 617.445312 572.679688 613.976562 571.0625 610.832031 571.484375 C 607.960938 571.878906 604.941406 574.203125 602.96875 576.558594 C 602.097656 577.566406 602.96875 581.0625 604.179688 582.71875 C 609.621094 590.597656 618.261719 594.039062 626.585938 597.96875 C 633.265625 601.125 641.632812 602.296875 645.007812 610.921875 C 640.613281 616.527344 634.695312 618.917969 628.941406 621.355469 C 621.769531 617.925781 618.398438 617.640625 606.300781 617.953125 C 577.515625 618.714844 549.082031 615.894531 521.003906 609.492188 C 477.472656 599.5625 434.605469 587.5625 392.828125 565.511719 C 413.234375 553.636719 432.824219 551.039062 453.40625 555.71875 C 462.316406 557.746094 470.777344 561.160156 480.207031 561.160156 C 506.597656 561.160156 532.988281 561.703125 559.382812 561.703125 C 566.183594 561.703125 573.394531 561.5 579.789062 559.445312 C 587.011719 557.144531 594.875 553.800781 594.03125 543.554688 C 581.394531 536.753906 568.183594 534.425781 554.199219 534.292969 C 542.742188 534.167969 531.25 533.488281 519.835938 532.347656 C 513.292969 531.691406 506.351562 530.535156 502.964844 522.347656 C 512.816406 515.042969 523.601562 508.484375 532.566406 499.996094 C 541.058594 491.957031 552.445312 484.449219 550.253906 467.90625 C 543.667969 469.511719 538.296875 470.355469 533.289062 472.175781 C 529.050781 473.867188 525.054688 476.011719 521.304688 478.613281 C 513.632812 483.617188 506.421875 489.386719 498.542969 494.011719 C 455.308594 519.3125 438.167969 517.96875 400.089844 486.214844 C 394.90625 481.890625 390.648438 476.367188 386.335938 471.089844 C 382.882812 466.871094 377.765625 463.0625 380.609375 455.566406 C 388.527344 452.355469 396.851562 448.589844 405.425781 445.582031 C 432.375 436.058594 432.441406 436.058594 461.894531 444.03125 C 479.582031 448.804688 497.429688 453.253906 516 451.636719 C 518.867188 451.390625 522.800781 450.113281 522.039062 442.890625 C 513.480469 434.441406 500.433594 430.113281 488.410156 424.265625 C 483.28125 421.761719 477.6875 420.183594 476.765625 412.308594 L 486.285156 403.574219 C 489.675781 400.484375 492.75 397.222656 492.980469 392.257812 C 492.027344 391.628906 491.144531 390.570312 490.125 390.40625 C 474.492188 387.929688 462.65625 400.757812 445.921875 400.960938 C 417.152344 384.367188 389.398438 364.667969 371.359375 333.894531 C 364.460938 322.128906 357.222656 310.484375 359.769531 291.113281 C 365.902344 295.671875 368.828125 297.382812 371.195312 299.695312 C 396.851562 324.699219 426.632812 343.800781 458.015625 360.613281 C 476.558594 370.53125 496.109375 376.148438 517.414062 374.585938 C 520.8125 374.339844 524.542969 374.339844 527.464844 372.925781 C 530.390625 371.511719 533.738281 368.734375 534.269531 366.054688 C 534.730469 363.703125 532.171875 359.375 529.792969 358.125 C 524.628906 355.617188 519.234375 353.804688 513.605469 352.683594 C 475.742188 343.882812 443.609375 325.191406 416.226562 296.527344 C 419.570312 291.671875 424.753906 289.726562 430.0625 288.148438 C 441.039062 284.816406 452.25 282.148438 463.023438 278.242188 C 480.925781 271.742188 495.128906 260.558594 502.476562 242.382812 C 503.714844 239.324219 503.578125 235.285156 499.863281 233.445312 C 498.164062 232.605469 495.101562 232.34375 493.699219 233.3125 C 470.574219 249.363281 445.339844 252.207031 418.457031 245.554688 C 414.0625 244.464844 409.152344 245.363281 404.851562 244.195312 C 393.832031 241.253906 382.839844 238.074219 372.203125 234.167969 C 366.761719 232.195312 362.066406 227.9375 361.320312 221.789062 C 361.117188 220.363281 361.09375 218.933594 361.246094 217.503906 C 361.398438 216.070312 361.726562 214.679688 362.222656 213.328125 C 362.722656 211.976562 363.378906 210.707031 364.191406 209.519531 C 365.007812 208.332031 365.953125 207.261719 367.03125 206.308594 C 375.847656 207.109375 379.453125 215.203125 385.65625 219.597656 C 397.902344 228.265625 410.714844 235.855469 425.925781 237.785156 C 432.808594 238.65625 436.140625 234.289062 437.609375 226.835938 C 423.09375 213.230469 405.246094 202.347656 393.152344 185.289062 C 377.808594 163.632812 371.386719 149.457031 369.765625 132.5625 C 379.480469 134.140625 389.519531 135.949219 399.613281 137.214844 C 401.164062 137.417969 403.027344 135.121094 405.613281 133.390625 C 405.832031 124.128906 398.023438 120.523438 391.886719 115.855469 C 370.027344 99.261719 354.761719 78.570312 350.832031 50.667969 C 350.453125 47.222656 349.546875 43.921875 348.109375 40.765625 C 346.246094 37.023438 344.519531 32.152344 338.503906 33.964844 C 337.023438 35.71875 334.613281 37.253906 334.300781 39.144531 C 330.996094 59.320312 322.425781 78.597656 323.960938 99.601562 C 324.65625 109.125 321.511719 117.40625 317.363281 125.871094 C 303.570312 154.015625 286.265625 179.386719 262.253906 199.886719 C 257.941406 203.558594 253.5625 207.640625 255.015625 214.171875 C 255.929688 218.25 267.261719 218.742188 273.789062 214.171875 C 286.035156 205.628906 297.625 196.226562 309.757812 187.589844 C 313.703125 184.785156 314.628906 177.359375 321.90625 178.9375 C 324.289062 188.9375 316.792969 193.96875 311.757812 199.34375 C 303.1875 208.511719 294.183594 217.53125 282.304688 222.714844 C 267.601562 229.121094 253.097656 236.074219 238.121094 241.757812 C 228.800781 245.308594 219.605469 250.832031 209.769531 249.007812 C 200.082031 243.691406 199.335938 232.863281 192.246094 226.957031 C 191.421875 226.257812 190.496094 225.742188 189.464844 225.40625 C 188.433594 225.074219 187.378906 224.953125 186.300781 225.039062 C 185.886719 225.121094 185.480469 225.238281 185.085938 225.394531 C 184.6875 225.550781 184.3125 225.738281 183.949219 225.960938 C 183.589844 226.183594 183.25 226.4375 182.933594 226.722656 C 182.617188 227.003906 182.332031 227.316406 182.070312 227.648438 C 181.8125 227.984375 181.582031 228.34375 181.386719 228.71875 C 181.191406 229.09375 181.03125 229.484375 180.90625 229.890625 C 180.78125 230.296875 180.691406 230.710938 180.640625 231.132812 C 180.589844 231.554688 180.578125 231.976562 180.601562 232.398438 C 180.601562 240.234375 188.03125 246.929688 184.34375 255.199219 C 178.683594 264.21875 164.316406 259.566406 159.976562 270.871094 C 169.5 286.023438 186.710938 274.011719 199.945312 284.378906 C 203.441406 291.902344 213.835938 298.539062 215.671875 310.945312 C 182.085938 319.109375 147.652344 311.449219 114.199219 316.308594 C 114.472656 326.902344 121.382812 329.910156 127.519531 332.265625 C 148.222656 340.179688 169.992188 343.542969 191.675781 338.863281 C 211.007812 334.683594 230.367188 335.964844 248.894531 333.828125 C 256.636719 338.765625 263.21875 343.351562 270.183594 347.324219 C 277.679688 351.566406 285.542969 355.1875 293.175781 359.035156 C 290.210938 366.125 284.753906 367.878906 279.015625 368.804688 C 258.5 372.136719 238.039062 371.851562 217.917969 366.257812 C 203.578125 362.273438 189.347656 359.117188 174.140625 364.546875 C 185.933594 376.652344 189.472656 379.507812 201.988281 383.25 C 228.324219 391.152344 254.8125 398.582031 282.742188 398.121094 C 288.332031 398.023438 294.402344 397.804688 296.617188 404.921875 C 291.964844 425.246094 278.347656 433.027344 258.796875 431.136719 C 242.855469 429.597656 227.058594 426.644531 211.183594 424.78125 C 188.847656 422.15625 169.597656 412.988281 152.195312 399.03125 C 146.195312 394.226562 141.761719 386.789062 132.917969 386.105469 C 130.605469 398.351562 130.660156 398.351562 132.6875 401.722656 C 149.011719 429.476562 172.261719 448.617188 202.574219 459.949219 C 214.175781 464.273438 227.632812 464.898438 237.601562 475.6875 C 230.132812 485.863281 218.800781 491.5625 208.914062 498.8125 C 197.839844 506.867188 186.03125 513.871094 174.765625 521.667969 C 173.324219 522.660156 172.425781 525.667969 172.65625 527.570312 C 172.703125 527.992188 172.789062 528.402344 172.917969 528.804688 C 173.046875 529.207031 173.214844 529.589844 173.425781 529.957031 C 173.632812 530.324219 173.875 530.667969 174.152344 530.984375 C 174.429688 531.300781 174.738281 531.589844 175.074219 531.84375 C 175.410156 532.097656 175.769531 532.316406 176.148438 532.496094 C 176.53125 532.679688 176.925781 532.820312 177.335938 532.921875 C 177.746094 533.019531 178.160156 533.078125 178.582031 533.09375 C 179.003906 533.109375 179.425781 533.082031 179.839844 533.011719 C 202.546875 529.53125 225.074219 525.75 242.417969 508.1875 C 249.652344 500.980469 257.453125 494.453125 265.816406 488.597656 C 271.261719 484.691406 277.777344 479.984375 284.007812 479.6875 C 298.972656 478.953125 312.574219 473.457031 325.921875 469.308594 C 331.878906 478.039062 328.21875 486.175781 328.640625 493.996094 C 329.269531 506.035156 323.199219 513.695312 312.492188 517.574219 C 284.523438 527.695312 257.03125 539.214844 226.789062 542.058594 C 206.300781 543.976562 185.878906 547.121094 165.570312 550.699219 C 139.285156 555.335938 113.273438 555.8125 87.140625 549.882812 C 81.359375 548.519531 75.550781 547.378906 69.742188 546.234375 C 70.816406 544.316406 71.644531 542.292969 72.21875 540.167969 C 70.464844 535.421875 66.777344 531.515625 62.21875 532.441406 C 52.136719 534.46875 42.480469 538.453125 32.453125 540.78125 C 21.378906 543.351562 9.910156 547.28125 -1.09375 546.519531 C -11.96875 545.863281 -22.710938 544.292969 -33.320312 541.804688 C -43.929688 539.316406 -54.25 535.953125 -64.285156 531.707031 C -72.761719 528.046875 -80.992188 523.75 -86.050781 515.628906 C -89.78125 509.722656 -93.085938 503.382812 -84.3125 497.261719 C -62.679688 504.28125 -39.714844 503.113281 -16.808594 502.703125 C -10.457031 502.609375 -4.25 501.621094 1.816406 499.738281 C 7.882812 497.859375 13.558594 495.160156 18.847656 491.644531 C 22.46875 489.277344 27.011719 485.820312 24.128906 480.652344 C 22.765625 478.246094 18.917969 476.355469 15.964844 475.945312 C 11.515625 475.320312 6.851562 476.503906 2.277344 476.394531 C -12.617188 476.027344 -27.648438 476.394531 -42.382812 474.640625 C -55.429688 473.0625 -68.3125 469.199219 -76.976562 453.949219 C -64.328125 453.351562 -54.125 453.269531 -44.015625 452.289062 C -32.65625 451.1875 -21.417969 448.382812 -10.003906 447.882812 C 11.761719 446.902344 28.808594 435.707031 45.445312 423.476562 C 46.601562 422.632812 46.804688 419.054688 46.03125 417.421875 C 45.449219 416.472656 44.710938 415.664062 43.820312 415 C 42.929688 414.332031 41.949219 413.851562 40.875 413.558594 C 38.578125 413.113281 36.3125 413.226562 34.070312 413.898438 C 20.738281 417.027344 7.597656 421.148438 -5.871094 423.421875 C -34.886719 428.183594 -62.882812 423.925781 -89.683594 411.722656 C -95.125 409.261719 -100.566406 406.28125 -102.132812 400.664062 C -104.1875 393.058594 -104.785156 384.992188 -105.328125 377.074219 C -106.105469 365.863281 -105.832031 365.851562 -100.433594 353.226562 C -80.214844 366.136719 -59.917969 378.953125 -39.769531 391.984375 C -30.03125 398.28125 -19.800781 403.328125 -8.195312 404.527344 C -6.519531 404.621094 -4.890625 404.398438 -3.304688 403.855469 C -1.714844 403.3125 -0.289062 402.488281 0.972656 401.382812 C 3.695312 398.664062 1.789062 394.71875 -0.824219 392.730469 C -10.847656 385.113281 -20.96875 377.5625 -31.472656 370.613281 C -39.644531 365.238281 -47.179688 359.085938 -54.078125 352.148438 C -60.972656 345.210938 -67.082031 337.640625 -72.40625 329.433594 C -92.460938 298.621094 -111.667969 267.359375 -118.660156 230.371094 C -119.703125 225.894531 -121.394531 221.675781 -123.734375 217.722656 C -126.089844 213.367188 -130.226562 211.640625 -136.386719 212.511719 C -143.109375 224.25 -142.917969 238.074219 -144.660156 251.484375 C -148.304688 279.292969 -153.351562 284.351562 -180.261719 289.097656 C -192.503906 291.277344 -204.75 293.820312 -216.992188 296.621094 C -218.460938 296.960938 -220.132812 300.007812 -220.1875 301.847656 C -220.078125 302.917969 -219.777344 303.929688 -219.277344 304.882812 C -218.777344 305.839844 -218.121094 306.667969 -217.304688 307.371094 C -215.699219 308.730469 -213.222656 309.246094 -211.222656 310.265625 C -201.484375 315.230469 -189.007812 313.082031 -179.144531 321.148438 C -187.566406 339.828125 -199.375 353.035156 -216.597656 361.335938 C -223.820312 364.816406 -231.277344 367.933594 -238.011719 372.21875 C -240.214844 373.578125 -241.167969 377.972656 -241.453125 381.085938 C -241.792969 384.691406 -235.085938 390.023438 -231.710938 388.976562 C -217.660156 384.609375 -202.230469 383.945312 -190.761719 372.652344 C -185.933594 367.878906 -179.527344 364.75 -174.125 360.519531 C -167.828125 355.566406 -161.992188 350.03125 -155.664062 345.105469 C -150.5625 341.121094 -147.871094 333.625 -139.800781 333.789062 C -131.230469 364.125 -156.875 415.941406 -199.660156 453.839844 C -203.84375 453.101562 -207.972656 452.121094 -212.039062 450.902344 C -231.765625 443.9375 -248.363281 431.597656 -265.097656 419.613281 C -270.609375 415.621094 -276.347656 411.996094 -282.320312 408.730469 C -283.558594 408.0625 -286.902344 409.546875 -288.113281 411 C -288.699219 411.875 -289.050781 412.832031 -289.164062 413.875 C -289.277344 414.917969 -289.140625 415.929688 -288.753906 416.90625 C -279.964844 430.726562 -266.988281 440.277344 -254.242188 450.113281 C -244.71875 457.445312 -234.609375 463.960938 -225.972656 471.878906 C -233.941406 483.753906 -249.902344 483.972656 -255.261719 497.535156 C -251.015625 499.738281 -248.269531 502.160156 -245.222656 502.59375 C -241.820312 503.132812 -238.398438 503.390625 -234.957031 503.363281 C -231.515625 503.335938 -228.097656 503.027344 -224.707031 502.4375 C -221.3125 501.847656 -217.992188 500.980469 -214.746094 499.839844 C -211.496094 498.699219 -208.363281 497.300781 -205.347656 495.644531 C -187.429688 485.847656 -170.832031 489.726562 -155.011719 499.140625 C -155.121094 507.300781 -159.363281 511.558594 -163.066406 515.75 C -180.75 535.679688 -200.570312 552.480469 -225.289062 563.582031 C -235.34375 568.082031 -248.050781 569.417969 -253.859375 581.15625 C -253.097656 586.214844 -250.226562 589.441406 -245.34375 590.351562 C -228.71875 593.496094 -213.222656 589.78125 -199.375 580.734375 C -182.152344 569.496094 -163.664062 560.085938 -148.441406 545.800781 C -144.890625 542.46875 -141.257812 536.820312 -134.699219 539.5 C -134.0625 540.792969 -132.972656 541.976562 -133.230469 542.644531 C -134.414062 545.8125 -135.3125 549.445312 -137.515625 551.828125 C -154.710938 570.410156 -173.335938 587.292969 -196.015625 599.085938 C -210.257812 606.472656 -224.992188 613.070312 -238.582031 621.519531 C -253.226562 630.730469 -268.929688 637.472656 -285.691406 641.746094 C -288.808594 642.550781 -291.910156 643.488281 -294.972656 644.535156 C -282.429688 633.109375 -273.640625 620.539062 -264.375 608.402344 C -263.601562 607.382812 -264.714844 603.941406 -265.980469 602.621094 C -267.246094 601.304688 -270.320312 600.09375 -271.761719 600.746094 C -282.304688 605.4375 -291.148438 612.648438 -299.582031 620.46875 C -306.304688 626.699219 -313.1875 632.714844 -320.4375 638.398438 C -333.917969 649.011719 -348.488281 652.316406 -365.578125 646.917969 C -381.902344 641.761719 -399.042969 639.285156 -415.53125 634.578125 C -430.960938 630.234375 -446.089844 625.015625 -460.914062 618.917969 C -469.253906 615.449219 -475.050781 608.5 -473.785156 597.699219 C -469.117188 596.679688 -465.824219 595.304688 -462.558594 595.359375 C -431.503906 595.890625 -400.894531 592.445312 -370.339844 586.84375 C -355.25 584.121094 -341.539062 579.550781 -329.527344 570.21875 C -329.0625 569.875 -328.625 569.492188 -328.222656 569.078125 C -327.820312 568.664062 -327.449219 568.21875 -327.117188 567.746094 C -326.785156 567.269531 -326.492188 566.773438 -326.238281 566.253906 C -325.984375 565.734375 -325.773438 565.195312 -325.605469 564.640625 C -325.4375 564.085938 -325.3125 563.523438 -325.234375 562.949219 C -325.15625 562.375 -325.125 561.800781 -325.140625 561.21875 C -325.152344 560.640625 -325.214844 560.066406 -325.320312 559.496094 C -325.425781 558.929688 -325.578125 558.371094 -325.769531 557.824219 C -327.648438 552.589844 -332.082031 552.96875 -336.886719 554.820312 C -371.917969 568.285156 -408.128906 569.621094 -445.050781 566.027344 C -457.457031 564.816406 -468.710938 561.582031 -482.679688 555.511719 C -460.914062 549.582031 -441.867188 545.582031 -423.679688 538.972656 C -410.074219 534.046875 -397.914062 532.167969 -383.820312 537.039062 C -350.75 548.492188 -316.042969 546.03125 -281.789062 546.710938 C -274.878906 546.859375 -267.996094 546.234375 -262.050781 542.058594 C -259.21875 540.058594 -256.839844 537.476562 -258.28125 533.800781 C -259.042969 531.855469 -260.851562 529.367188 -262.621094 528.957031 C -279.203125 525.054688 -295.816406 521.246094 -312.535156 517.996094 C -329.253906 514.742188 -346.230469 512.132812 -362.871094 509.273438 C -363.019531 503.179688 -360.40625 499.589844 -357.007812 496.335938 C -349.539062 489.222656 -341.730469 482.421875 -334.816406 474.789062 C -330.738281 470.3125 -330.070312 464.640625 -335.226562 460.4375 C -361.074219 468 -377.671875 492.445312 -404.605469 496.988281 C -419.980469 491.234375 -435.5 486.691406 -449.828125 479.671875 C -465.050781 472.21875 -479.484375 462.777344 -487.917969 446.234375 C -466.953125 440.128906 -448.167969 439.636719 -431.691406 454.316406 C -430.726562 454.953125 -429.675781 455.40625 -428.550781 455.675781 C -423.746094 457.445312 -419.148438 456.777344 -416.808594 452.167969 C -415.449219 449.445312 -415 445.066406 -416.332031 442.644531 C -418.414062 438.78125 -422.332031 435.910156 -425.558594 432.523438 C -421.164062 423.640625 -412.632812 419.777344 -404.402344 415.953125 C -389.546875 409.042969 -378.09375 397.546875 -365.683594 387.480469 C -359.085938 382.039062 -352.640625 374.816406 -356.054688 362.789062 C -373.65625 367.566406 -384.132812 382.40625 -399.082031 389.996094 C -415.734375 398.363281 -433.09375 403.085938 -451.757812 406.6875 C -470.925781 392.703125 -483.171875 373.332031 -490.570312 351.5 C -494.652344 339.257812 -502.625 326.238281 -494.378906 312.238281 C -479.550781 313.4375 -474.367188 327.3125 -463.960938 333.910156 C -452.425781 341.230469 -440.835938 348.25 -427.816406 352.65625 C -421.828125 338.710938 -421.667969 336.101562 -429.175781 331.882812 C -443.40625 323.855469 -456.222656 314.496094 -464.546875 300.117188 C -481.144531 271.429688 -499.453125 243.527344 -498.992188 208.183594 C -498.871094 199.207031 -505.550781 194.335938 -516.527344 196.703125 C -517.207031 202.144531 -518.625 207.761719 -518.515625 213.355469 C -518.160156 230.738281 -522.078125 247.539062 -525.738281 264.246094 C -536.539062 313.574219 -565.421875 350.820312 -605.539062 380.136719 C -609.242188 382.855469 -613.703125 384.664062 -616.953125 387.753906 C -622.492188 392.9375 -624.9375 398.878906 -617.445312 404.90625 C -602.480469 402.539062 -589.378906 395.710938 -576.632812 387.753906 C -563.027344 379.292969 -548.90625 371.632812 -534.949219 363.742188 C -531.003906 361.496094 -526.785156 359.660156 -520.976562 364.859375 C -520.800781 375.742188 -519.875 388.339844 -520.554688 400.800781 C -521.628906 420.402344 -530.5 434.710938 -548.417969 444.96875 C -565.953125 455.023438 -582.628906 457.214844 -600.574219 448.683594 C -609.839844 444.261719 -618.679688 438.917969 -627.632812 433.855469 C -634.597656 429.9375 -641.238281 425.367188 -648.40625 421.925781 C -652.964844 419.734375 -657.058594 421.859375 -660.09375 427.746094 C -653.902344 442.289062 -636.367188 450.464844 -631.25 469.171875 C -645.765625 469.851562 -658.296875 470.53125 -670.824219 471.007812 C -682.292969 471.46875 -693.695312 472.054688 -704.835938 475.660156 C -708.578125 476.871094 -711.476562 479.332031 -711.421875 482.242188 C -711.421875 484.964844 -708.507812 489.605469 -706.292969 489.984375 C -683.871094 493.890625 -661.804688 500.1875 -638.378906 494.066406 C -625.28125 490.609375 -611.171875 490.789062 -597.40625 490.175781 C -582.441406 489.496094 -563.191406 495.34375 -545.707031 504.960938 C -548.308594 508.703125 -550.441406 512.660156 -553.410156 515.84375 C -574.320312 538.757812 -597.082031 559.65625 -621.6875 578.542969 C -633.183594 587.277344 -643.929688 590.066406 -656.609375 584.746094 C -677.710938 575.878906 -700.78125 572.21875 -720.753906 560.328125 C -722.550781 559.253906 -725.976562 558.546875 -727.269531 559.511719 C -729.609375 561.269531 -732.78125 564.953125 -732.234375 566.886719 C -730.863281 571.203125 -728.554688 574.945312 -725.3125 578.109375 C -717.148438 586.476562 -705.667969 589.644531 -695.777344 595.316406 C -688.308594 599.617188 -677.914062 599.085938 -672.960938 608.089844 C -678.785156 617.042969 -688.785156 617.179688 -696.753906 620.730469 C -709.691406 626.484375 -722.863281 631.734375 -736.003906 637.054688 C -736.195312 634.332031 -738.722656 629.992188 -740.601562 629.679688 C -769.578125 624.796875 -794.636719 611.261719 -818.648438 595.316406 C -823.070312 592.394531 -828.6875 589.765625 -826.6875 582.570312 C -810.226562 577.457031 -793.890625 572.246094 -777.457031 567.308594 C -766.964844 564.152344 -763.414062 556.507812 -762.914062 546.519531 C -762.679688 542.003906 -766.558594 538.359375 -771.210938 537.761719 C -780.9375 536.480469 -789.019531 540.046875 -797.195312 544.710938 C -801.695312 547.261719 -806.347656 549.488281 -811.152344 551.398438 C -815.960938 553.304688 -820.875 554.871094 -825.898438 556.097656 C -830.921875 557.328125 -836.003906 558.203125 -841.148438 558.730469 C -846.292969 559.257812 -851.449219 559.425781 -856.617188 559.242188 C -864.003906 559.0625 -870.5625 556.777344 -874.644531 550.929688 C -880.179688 542.957031 -889.171875 537.039062 -891.839844 524.824219 C -868.644531 523.789062 -847.054688 522.714844 -825.4375 521.925781 C -821.003906 521.761719 -816.539062 522.703125 -812.078125 523.015625 C -788.871094 524.660156 -766.832031 517.207031 -744.261719 513.96875 C -742.4375 513.710938 -740.984375 510.949219 -739.378906 509.328125 C -737.488281 507.4375 -739.066406 501.425781 -741.773438 500.757812 C -744.96875 499.957031 -748.574219 498.351562 -751.457031 499.125 C -780.828125 507.070312 -810.757812 504.757812 -840.457031 503.535156 C -865.867188 502.472656 -889.839844 493.808594 -913.0625 483.792969 C -925.945312 478.246094 -928.597656 473.238281 -929.957031 457.8125 C -922.109375 456.914062 -914.230469 455.363281 -906.339844 455.242188 C -881.933594 454.875 -858.808594 448.015625 -835.75 441.351562 C -830.183594 439.78125 -824.792969 437.75 -819.574219 435.257812 C -814.359375 432.765625 -809.390625 429.847656 -804.671875 426.507812 C -799.949219 423.167969 -795.546875 419.453125 -791.464844 415.359375 C -787.378906 411.265625 -783.671875 406.859375 -780.339844 402.132812 C -777.742188 398.554688 -774.898438 394.703125 -778.011719 389.890625 C -778.816406 389.304688 -779.957031 387.945312 -780.460938 388.148438 C -787.847656 391.207031 -795.167969 394.417969 -802.472656 397.671875 C -816.078125 403.722656 -829.164062 411.273438 -843.285156 415.628906 C -870.671875 424.144531 -897.703125 422.824219 -922.460938 406.457031 C -932.160156 400.039062 -940.363281 391.65625 -941.683594 379.25 C -943.726562 360.027344 -945.222656 340.738281 -947.125 319.460938 C -935.765625 322.183594 -933.289062 329.378906 -928.542969 334.113281 C -911.496094 351.007812 -894.613281 368.246094 -877.460938 385.113281 C -871.636719 390.839844 -864.628906 395.234375 -855.976562 394.039062 C -852.890625 393.617188 -848.714844 391.699219 -847.558594 389.261719 C -846.402344 386.828125 -847.558594 381.101562 -849.449219 380.109375 C -879.960938 364.613281 -893.253906 334.195312 -911.796875 308.429688 C -917.769531 300.105469 -922.164062 290.609375 -926.871094 281.441406 C -928.40625 278.421875 -928.394531 274.789062 -924.582031 271.589844 C -920.503906 275.046875 -915.863281 278.285156 -911.988281 282.230469 C -882.957031 311.722656 -846.089844 327.296875 -808.226562 341.203125 C -800.308594 344.113281 -795.222656 341.839844 -792.3125 334.003906 C -806.328125 324.0625 -821.046875 315.300781 -836.46875 307.722656 C -865.992188 293.546875 -888.886719 271.25 -907.347656 244.535156 C -912.042969 237.777344 -916.042969 230.632812 -919.34375 223.097656 C -922.648438 215.5625 -925.191406 207.78125 -926.976562 199.75 C -924.027344 196.171875 -922.515625 196.773438 -920.066406 198.511719 C -909.828125 205.769531 -899.476562 212.914062 -889.007812 219.953125 C -885.242188 222.574219 -881.253906 224.792969 -877.039062 226.605469 C -876.648438 226.777344 -876.242188 226.914062 -875.828125 227.011719 C -875.414062 227.113281 -874.992188 227.171875 -874.566406 227.195312 C -874.136719 227.21875 -873.710938 227.199219 -873.289062 227.144531 C -872.863281 227.089844 -872.449219 226.996094 -872.042969 226.863281 C -871.636719 226.730469 -871.246094 226.5625 -870.871094 226.359375 C -870.496094 226.15625 -870.140625 225.917969 -869.808594 225.652344 C -869.476562 225.382812 -869.171875 225.085938 -868.894531 224.761719 C -868.613281 224.4375 -868.367188 224.089844 -868.152344 223.71875 C -866.195312 220.699219 -865.121094 217.148438 -867.664062 214.332031 C -890.738281 188.859375 -911.546875 161.652344 -930.09375 132.710938 C -943.332031 112.019531 -954.144531 91.179688 -956.390625 66.488281 C -956.675781 63.320312 -958.894531 60.328125 -960.144531 57.414062 C -971.84375 58.328125 -975.191406 60.136719 -975.21875 66.597656 C -975.339844 91.847656 -975.980469 117.136719 -974.757812 142.316406 C -974.527344 146.328125 -974.578125 150.339844 -974.902344 154.34375 C -975.226562 158.351562 -975.828125 162.316406 -976.699219 166.238281 C -977.570312 170.160156 -978.707031 174.007812 -980.109375 177.773438 C -981.507812 181.539062 -983.164062 185.191406 -985.066406 188.730469 C -995.953125 208.730469 -1006.601562 229.1875 -1023.675781 245.324219 C -1041.128906 261.796875 -1056.246094 280.761719 -1076.445312 294.296875 C -1077.808594 295.207031 -1077.710938 298.269531 -1078.433594 300.785156 C -1066.691406 305.640625 -1056.667969 302.035156 -1046.300781 295.941406 C -1024.535156 283.140625 -1005.242188 267.226562 -986.796875 248.765625 C -981.789062 269.0625 -981.503906 269.171875 -986.644531 282.582031 C -992.796875 298.636719 -999.5 314.496094 -1006.019531 330.414062 C -1012.152344 345.378906 -1021.253906 358.585938 -1030.503906 371.742188 C -1036.96875 380.910156 -1044.640625 386.839844 -1056.355469 385.34375 C -1085.753906 381.441406 -1115.832031 383.03125 -1144.65625 374.378906 C -1145.707031 374.054688 -1146.777344 373.925781 -1147.875 374 C -1148.96875 374.070312 -1150.015625 374.339844 -1151.011719 374.800781 C -1151.894531 375.402344 -1152.601562 376.167969 -1153.125 377.097656 C -1153.648438 378.027344 -1153.9375 379.027344 -1153.992188 380.09375 C -1153.378906 386.636719 -1148.316406 389.792969 -1142.890625 391.792969 C -1120.648438 399.957031 -1098.296875 407.886719 -1074.039062 416.59375 C -1083.855469 424.214844 -1094.28125 430.875 -1105.320312 436.582031 C -1116.359375 442.285156 -1127.824219 446.9375 -1139.71875 450.535156 C -1145.773438 452.355469 -1152.753906 455.28125 -1154.4375 463.308594 C -1155.527344 468.449219 -1145.867188 470.816406 -1134.03125 469.0625 C -1121.164062 467.144531 -1109.777344 461.253906 -1099.382812 454.480469 C -1081.195312 442.617188 -1060.828125 434.414062 -1044.367188 419.503906 C -1033.402344 409.574219 -1013.800781 410.511719 -996.371094 419.394531 C -1010.140625 450.328125 -1034.179688 470.476562 -1063.820312 484.691406 C -1074.132812 489.65625 -1085.042969 493.332031 -1095.695312 497.601562 C -1100.292969 499.453125 -1102.988281 502.472656 -1101.914062 507.820312 C -1097.300781 512.1875 -1091.382812 512.417969 -1085.765625 511.980469 C -1069.550781 510.703125 -1055.347656 502.253906 -1040.042969 498.214844 C -1007.976562 489.78125 -988.902344 464.464844 -966.117188 444.019531 C -960.796875 449.855469 -961.777344 455.296875 -964.402344 460.640625 C -970.6875 473.46875 -981.695312 481.863281 -992.742188 490.09375 C -1028.695312 516.894531 -1068.679688 531.964844 -1114.007812 529.992188 C -1123.027344 529.613281 -1131.910156 526.566406 -1140.890625 524.972656 C -1151.773438 523.042969 -1162.65625 521.285156 -1173.402344 526.414062 C -1168.125 537.515625 -1158.058594 538.085938 -1149.636719 540.371094 C -1105.96875 552.195312 -1061.769531 555.039062 -1017.066406 546.453125 C -1010.261719 545.160156 -1003.378906 543.734375 -996.660156 544.058594 C -990.195312 544.386719 -984.222656 536.929688 -977.21875 543.390625 C -985.378906 571.742188 -1004.996094 592.789062 -1023.28125 614.632812 C -1030.425781 623.164062 -1040.261719 625.84375 -1051.183594 623.859375 C -1065.808594 621.136719 -1080.445312 618.59375 -1095.003906 615.574219 C -1118.539062 610.675781 -1141.976562 605.195312 -1165.582031 600.609375 C -1169.933594 599.753906 -1176.464844 596.730469 -1179.472656 604.242188 C -1173.59375 612.160156 -1165.59375 616.484375 -1156.753906 619.207031 C -1138.140625 624.835938 -1119.175781 629.394531 -1100.8125 635.707031 C -1089.4375 639.625 -1076.214844 640.535156 -1067.371094 651.121094 C -1076.800781 661.445312 -1088.011719 667.078125 -1100.023438 671.171875 C -1113 675.578125 -1126.101562 679.605469 -1139.203125 683.644531 C -1149.105469 686.691406 -1154.808594 691.671875 -1152.710938 696 C -1148.863281 703.886719 -1141.203125 702.351562 -1134.714844 702.296875 C -1120.78125 702.175781 -1107.421875 698.527344 -1094.757812 692.976562 C -1074.839844 684.230469 -1054.433594 676.203125 -1036.96875 662.875 C -1029.335938 657.066406 -1021.378906 653.171875 -1011.855469 653.214844 C -1006.332031 653.214844 -1000.507812 653.648438 -997.976562 661.675781 C -1004.957031 675.890625 -1016.371094 687.265625 -1030.125 695.46875 C -1052.652344 708.90625 -1070.296875 730.046875 -1096.59375 737.542969 C -1097.792969 737.882812 -1098.851562 741.625 -1098.554688 743.476562 C -1098.339844 744.554688 -1097.902344 745.535156 -1097.242188 746.414062 C -1096.582031 747.292969 -1095.761719 747.988281 -1094.785156 748.496094 C -1092.089844 749.46875 -1089.324219 750.144531 -1086.484375 750.523438 C -1083.644531 750.898438 -1080.796875 750.972656 -1077.941406 750.738281 C -1075.085938 750.503906 -1072.285156 749.964844 -1069.546875 749.128906 C -1066.804688 748.292969 -1064.1875 747.175781 -1061.6875 745.773438 C -1046.613281 737.53125 -1031.5 729.367188 -1016.425781 721.136719 C -1012.34375 718.921875 -1008.371094 716.714844 -1003.40625 723.859375 C -1014.070312 739.964844 -1016.234375 761.539062 -1031.976562 778.175781 C -1046.941406 780.136719 -1063.496094 786.109375 -1078.460938 783.429688 C -1105.980469 778.492188 -1133.324219 781.117188 -1160.683594 779.660156 C -1164.640625 779.441406 -1169.582031 778.300781 -1172.164062 783.414062 C -1169.445312 791.902344 -1162.957031 796.789062 -1155.105469 799.003906 C -1143.011719 802.40625 -1130.972656 806.214844 -1118.074219 806.121094 C -1106.621094 806.121094 -1095.140625 807.03125 -1083.683594 807.617188 C -1075.523438 808.039062 -1067.6875 809.464844 -1062.257812 816.539062 C -1063.214844 818.605469 -1064.296875 820.597656 -1065.507812 822.527344 C -1080.105469 842.847656 -1099.164062 848.808594 -1122.726562 840.210938 C -1128.167969 838.222656 -1133.488281 836.128906 -1139.054688 834.660156 C -1142.410156 833.871094 -1145.808594 833.476562 -1149.257812 833.476562 C -1149.789062 833.570312 -1150.273438 833.777344 -1150.707031 834.097656 C -1151.140625 834.417969 -1151.484375 834.820312 -1151.730469 835.300781 C -1152.316406 837.148438 -1153.09375 839.640625 -1152.34375 841.082031 C -1145.542969 853.976562 -1128.347656 854.074219 -1120.117188 867.402344 C -1123.164062 870.449219 -1125.855469 874.289062 -1129.515625 876.574219 C -1142.183594 884.476562 -1155.363281 891.292969 -1169.851562 895.617188 C -1176.386719 897.640625 -1182.785156 900.03125 -1189.046875 902.785156 C -1193.386719 904.625 -1197.046875 912.050781 -1194.722656 913.507812 C -1191.917969 915.261719 -1188.585938 917.21875 -1185.46875 917.234375 C -1175.078125 917.234375 -1164.984375 915.507812 -1155.691406 910.226562 C -1141.746094 902.3125 -1126.769531 895.863281 -1113.832031 886.585938 C -1099.710938 876.464844 -1085.261719 872.886719 -1068.554688 876.027344 C -1060.691406 877.511719 -1052.667969 878.136719 -1044.75 879.347656 C -1021.949219 882.816406 -999.3125 884.789062 -977.257812 875.117188 C -973.449219 873.445312 -968.894531 873.445312 -965.015625 872.738281 C -957.316406 889.0625 -956.636719 904.828125 -956.296875 920.90625 C -955.628906 953.039062 -953.914062 985.128906 -953.167969 1017.246094 C -953.101562 1022.417969 -952.472656 1027.515625 -951.269531 1032.539062 C -950.070312 1037.566406 -948.332031 1042.402344 -946.050781 1047.039062 C -943.207031 1052.765625 -937.601562 1054.550781 -931.550781 1054.074219 C -922.800781 1053.394531 -916.910156 1048.496094 -912.925781 1040.796875 C -910.871094 1036.652344 -909.4375 1032.304688 -908.628906 1027.75 C -907.816406 1023.195312 -907.664062 1018.621094 -908.164062 1014.023438 C -909.292969 1000.421875 -912.066406 986.816406 -912.476562 973.214844 C -913.59375 935.394531 -913.960938 897.550781 -914.3125 859.703125 C -914.3125 854.875 -917.035156 848.480469 -909.878906 845.707031 C -874.304688 875.417969 -843.558594 893.03125 -800.078125 908.363281 C -792.5625 911.1875 -784.878906 913.453125 -777.035156 915.167969 C -771.59375 916.253906 -765.675781 915.628906 -759.988281 915.464844 C -756.355469 915.355469 -749.675781 908.921875 -750.871094 906.636719 C -752.382812 903.78125 -754.65625 900.367188 -757.402344 899.304688 C -762.679688 897.304688 -768.570312 896.992188 -774.121094 895.617188 C -787.578125 892.3125 -800.460938 887.550781 -811.886719 879.523438 C -829.722656 866.996094 -847.433594 854.304688 -865.1875 841.652344 C -866.179688 841.003906 -867.074219 840.242188 -867.871094 839.371094 C -868.671875 838.5 -869.351562 837.542969 -869.914062 836.5 C -870.472656 835.460938 -870.898438 834.367188 -871.183594 833.21875 C -871.472656 832.070312 -871.613281 830.90625 -871.609375 829.722656 C -868.496094 828.863281 -865.269531 827.273438 -862.085938 827.21875 C -842.59375 826.90625 -823.070312 826.15625 -803.589844 827.027344 C -776.898438 828.238281 -751.375 820.703125 -725.242188 817.914062 C -718.550781 817.191406 -711.828125 814.527344 -705.667969 811.585938 C -704.703125 811.128906 -703.820312 810.546875 -703.027344 809.832031 C -652.9375 818.621094 -603.554688 820.089844 -554.988281 801.957031 C -551.695312 800.835938 -548.324219 800.457031 -544.867188 800.8125 C -543.015625 800.976562 -541.328125 803.140625 -538.375 805.25 C -541.53125 809.832031 -544.050781 815.109375 -547.980469 818.949219 C -595.066406 864.914062 -583.570312 867.253906 -654.976562 858.261719 C -686.660156 854.261719 -718.835938 854.003906 -749.894531 845.269531 C -751.457031 844.835938 -754.886719 846.726562 -755.550781 848.316406 C -756.734375 851.175781 -757.730469 855.269531 -756.492188 857.664062 C -754.253906 861.730469 -751.246094 865.113281 -747.472656 867.8125 C -730.464844 880.355469 -710.890625 886.460938 -690.226562 889.507812 C -676.703125 891.496094 -662.757812 891.714844 -650.460938 899.671875 C -654.949219 910.378906 -666.269531 911.546875 -674.582031 916.636719 C -679.355469 919.558594 -685.464844 920.390625 -688.621094 925.734375 C -689.183594 926.671875 -689.5625 927.679688 -689.753906 928.753906 C -689.949219 929.832031 -689.941406 930.90625 -689.734375 931.980469 C -689.355469 933.007812 -688.78125 933.910156 -688.003906 934.683594 C -687.230469 935.460938 -686.328125 936.035156 -685.300781 936.414062 C -678.5 938.183594 -671.957031 936.917969 -665.195312 934.78125 C -638.800781 926.472656 -614.328125 914.160156 -590.914062 899.234375 C -579.175781 906.855469 -565.515625 898.691406 -554.292969 905.03125 C -554.292969 910.90625 -557.148438 914.351562 -560.375 917.695312 C -571.855469 929.777344 -584.195312 940.90625 -597.390625 951.085938 C -610.589844 961.265625 -624.488281 970.371094 -639.085938 978.410156 C -660.214844 989.917969 -681.261719 1001.535156 -704.742188 1008.1875 C -709.246094 1009.464844 -715.527344 1012.269531 -712.277344 1021.792969 C -687.476562 1022.445312 -662.746094 1021.355469 -638.652344 1012.363281 C -603.921875 999.414062 -572.277344 981.59375 -545.234375 955.882812 C -540.90625 951.800781 -536.921875 944.25 -526.539062 949.554688 C -526.539062 954.277344 -526.621094 959.894531 -526.539062 965.5 C -525.847656 1004.515625 -524.839844 1043.515625 -524.527344 1082.492188 C -524.417969 1095.480469 -522.308594 1107.507812 -514.9375 1118.378906 C -510.527344 1124.867188 -498.066406 1124.757812 -494.40625 1117.628906 C -489.199219 1107.507812 -485.824219 1097.222656 -486.855469 1084.980469 C -488.855469 1061.050781 -488.84375 1036.945312 -489.292969 1012.882812 C -489.375 1008.800781 -489.808594 1003.359375 -481.46875 1002.351562 C -472.191406 1010.648438 -462.191406 1019.914062 -451.839844 1028.757812 C -441.066406 1037.964844 -427.351562 1041 -414.347656 1045.3125 C -395.042969 1051.800781 -390.796875 1051.148438 -377.179688 1043.476562 C -377.492188 1042.402344 -377.453125 1040.945312 -378.160156 1040.292969 C -380.636719 1038.019531 -383.03125 1035.246094 -386.023438 1034.035156 C -419.898438 1020.242188 -446.003906 996.378906 -469.824219 969.621094 C -473.226562 965.8125 -478.070312 961.460938 -473.0625 953.542969 C -448.152344 952.289062 -424.46875 955.5 -403.355469 973.089844 C -391.113281 983.253906 -376.855469 991.429688 -362.421875 998.1875 C -344.859375 1006.417969 -326.289062 1012.59375 -307.867188 1018.824219 C -302.726562 1020.566406 -296.535156 1019.667969 -290.875 1019.234375 C -289.214844 1019.113281 -286.957031 1016.664062 -286.414062 1014.839844 C -286.175781 1013.761719 -286.175781 1012.679688 -286.414062 1011.601562 C -286.648438 1010.523438 -287.105469 1009.542969 -287.773438 1008.664062 C -289.964844 1006.1875 -292.78125 1003.222656 -295.773438 1002.679688 C -323.390625 996.992188 -346.109375 981.0625 -369.96875 967.59375 C -373.914062 965.363281 -377.875 962.804688 -378.515625 957.570312 C -377.277344 955.882812 -376.378906 953.324219 -374.691406 952.617188 C -368.390625 949.894531 -361.875 947.734375 -355.347656 945.609375 C -341.226562 941.027344 -326.953125 936.851562 -312.929688 932.007812 C -307.550781 929.953125 -302.460938 927.347656 -297.652344 924.183594 C -294.792969 922.445312 -291.691406 919.574219 -293.121094 915.832031 C -295.011719 910.839844 -299.691406 910.390625 -304.414062 911.152344 C -307.785156 911.75 -311.417969 912.011719 -314.425781 913.464844 C -344.722656 928.101562 -377.222656 924.578125 -409.21875 925.382812 C -416.320312 925.558594 -423.175781 924.894531 -428.386719 919.628906 C -440.316406 907.589844 -453.675781 896.789062 -463.253906 882.898438 C -455.636719 874.191406 -449.5 882.191406 -443.285156 881.769531 C -418.046875 880.097656 -393.425781 884.082031 -368.679688 888.449219 C -335.390625 894.324219 -302.46875 888.351562 -269.734375 882.449219 C -262.648438 881.171875 -257.585938 876.394531 -254.320312 869.824219 C -253.808594 868.613281 -253.621094 867.351562 -253.765625 866.042969 C -249.628906 865.285156 -245.546875 864.308594 -241.519531 863.105469 C -210.570312 853.773438 -181.8125 839.980469 -156.261719 819.871094 C -148.101562 813.492188 -139.800781 807.4375 -131.464844 801.359375 C -123.519531 795.550781 -116.28125 788.394531 -104.59375 785.632812 C -100.078125 798.554688 -98.148438 810.511719 -99.671875 821.601562 C -124.46875 857.105469 -155.285156 881.359375 -195.660156 892.609375 C -205.578125 895.332031 -215.535156 898.050781 -225.277344 901.398438 C -229.53125 903.003906 -233.441406 905.214844 -237.003906 908.039062 C -237.769531 908.785156 -238.328125 909.664062 -238.683594 910.671875 C -239.039062 911.679688 -239.15625 912.714844 -239.03125 913.777344 C -238.699219 914.847656 -238.195312 915.828125 -237.515625 916.71875 C -236.835938 917.609375 -236.027344 918.355469 -235.085938 918.960938 C -233.164062 920.277344 -231.035156 920.964844 -228.707031 921.027344 C -188.914062 920.90625 -151.378906 913.519531 -120.035156 886.679688 C -116.554688 883.699219 -113.316406 880.382812 -109.640625 877.648438 C -106.566406 875.363281 -104.582031 869.660156 -97.902344 874.109375 C -97.34375 883.632812 -97.359375 893.929688 -95.984375 904.039062 C -94.597656 915.378906 -93.925781 926.757812 -93.96875 938.183594 C -93.480469 984.027344 -91.507812 1029.859375 -90.242188 1075.703125 C -90.023438 1083.863281 -89.535156 1091.605469 -85.140625 1098.828125 C -81.890625 1104.269531 -77.863281 1107.222656 -71.46875 1107.222656 C -55.0625 1107.222656 -46.449219 1099.589844 -49.796875 1084.097656 C -56.898438 1051.148438 -54.300781 1017.953125 -55.023438 984.789062 C -55.988281 940.15625 -53.144531 895.359375 -61.210938 851.023438 C -62.804688 842.277344 -54.191406 836.753906 -45.363281 839.542969 C -36.058594 842.480469 -29.378906 848.96875 -23.703125 855.867188 C -12.46875 869.472656 1.449219 878.992188 17.109375 886.734375 C 22.226562 889.296875 27.09375 892.277344 31.703125 895.671875 C 44.96875 905.316406 60.546875 909.4375 75.769531 914.242188 C 78.148438 914.988281 83.03125 912.878906 84.296875 910.621094 C 85.5625 908.363281 84.597656 903.507812 82.746094 901.601562 C 77.921875 896.714844 72.617188 892.421875 66.832031 888.71875 C 51.429688 878.679688 39.117188 865.59375 23.976562 849.351562 C 32.601562 847.132812 35.800781 845.882812 39.089844 845.527344 C 65.824219 842.6875 90.078125 832.835938 113.058594 819.4375 C 115.769531 817.992188 118.289062 816.269531 120.621094 814.269531 C 141.3125 814.648438 161.855469 814.417969 182.628906 810.5 C 223.78125 802.746094 262.566406 790.679688 295.9375 764.316406 C 305.460938 756.804688 315.175781 749.351562 327.867188 743.351562 C 328.21875 750.03125 328.070312 754.601562 328.777344 759.035156 C 331.5 775.960938 323.59375 788.054688 310.726562 797.261719 C 292.035156 810.621094 272.851562 822.210938 248.960938 825.707031 C 231.917969 828.210938 214.953125 830.101562 197.796875 831.148438 C 187.402344 831.777344 177.390625 832.78125 167.527344 840.5625 C 172.03125 843.367188 175.417969 846.945312 179.324219 847.636719 C 190.570312 849.753906 201.90625 851.113281 213.332031 851.71875 C 251.5625 853.472656 288.15625 844.917969 322.902344 831.191406 C 325.296875 834.304688 327.769531 836.035156 327.769531 837.746094 C 327.769531 868.710938 327.976562 899.671875 326.980469 930.605469 C 326.273438 952.371094 328.75 973.796875 330.34375 995.347656 C 330.558594 998.296875 333.636719 1000.882812 337.660156 1001.332031 C 348.546875 1002.554688 356.800781 997.480469 357.714844 987.660156 C 358.277344 979.65625 358.441406 971.644531 358.203125 963.621094 C 358 930.347656 357.671875 897.074219 357.414062 863.796875 C 357.414062 858.070312 357.144531 852.261719 361.402344 847.554688 C 363.589844 847.773438 365.875 847.828125 368.09375 848.25 C 415.015625 857.121094 415.234375 856.875 452.617188 888.488281 C 472.136719 905.003906 495.566406 913.820312 516.554688 925.476562 C 524.039062 920.417969 525.519531 914.757812 520.257812 910.324219 C 512.421875 903.726562 503.320312 898.652344 494.882812 892.761719 C 481.078125 883.144531 478.65625 880.230469 469.035156 862.914062 C 473.117188 857.773438 479.078125 858.261719 484.546875 857.691406 C 511.140625 854.96875 535.058594 843.652344 559.558594 834.304688 C 560.59375 833.65625 561.304688 832.75 561.679688 831.585938 C 584.359375 833.816406 606.222656 827.125 628.464844 824.785156 C 661.507812 821.300781 694.265625 815.765625 724.753906 801.589844 C 728.410156 799.910156 732.214844 798.714844 736.171875 798 C 740.128906 797.285156 744.113281 797.078125 748.125 797.371094 C 758.4375 797.929688 768.761719 798.582031 779.007812 799.820312 C 779.433594 799.871094 779.851562 799.957031 780.261719 800.078125 C 780.671875 800.203125 781.070312 800.359375 781.457031 800.546875 C 781.839844 800.738281 782.207031 800.957031 782.554688 801.210938 C 782.902344 801.464844 783.222656 801.742188 783.523438 802.050781 C 783.820312 802.355469 784.09375 802.6875 784.335938 803.039062 C 784.578125 803.394531 784.789062 803.765625 784.96875 804.15625 C 785.148438 804.542969 785.296875 804.945312 785.40625 805.359375 C 785.515625 805.773438 785.59375 806.195312 785.632812 806.621094 C 785.472656 807.714844 785.109375 808.734375 784.542969 809.683594 C 758.695312 837 725.597656 852.546875 691.601562 866.464844 C 685.085938 869.1875 677.847656 867.308594 671.886719 863.226562 C 661.496094 856.097656 651.578125 848.261719 640.9375 841.460938 C 635.675781 838.128906 630.476562 832.332031 622.914062 835.910156 C 618.289062 841.816406 621.0625 846.671875 624.734375 851.351562 C 631.539062 860.085938 644.300781 863.1875 649.46875 875.144531 C 645.46875 877.414062 642.882812 879.753906 639.945312 880.421875 C 627.703125 883.144531 615.28125 885.359375 602.929688 887.726562 C 593.515625 889.523438 586.605469 894.625 588.425781 898.828125 C 591.734375 906.582031 598.996094 906.988281 605.855469 906.785156 C 617.28125 906.554688 628.722656 905.875 640.121094 904.976562 C 653.835938 903.902344 667.492188 902.148438 681.21875 901.222656 C 685.726562 900.972656 690.078125 901.671875 694.28125 903.316406 C 716.375 912.199219 738.304688 921.492188 758.96875 932.386719 C 758.546875 935.039062 758.777344 936.742188 758.125 937.230469 C 736.753906 952.820312 714.144531 965.933594 687.585938 970.425781 C 672.949219 972.886719 658.203125 974.695312 643.523438 976.925781 C 637.566406 977.824219 632.53125 980.082031 631.6875 987.074219 C 661.847656 997.578125 713.488281 992.433594 779.007812 971.511719 C 779.277344 981.511719 779.699219 988.230469 779.605469 994.9375 C 779.226562 1022.484375 778.652344 1050.019531 778.246094 1077.566406 C 778.121094 1085.550781 782.964844 1090.257812 789.753906 1092.898438 C 805.34375 1098.976562 818.011719 1091.808594 819.574219 1075.582031 C 820.179688 1067.570312 820.007812 1059.574219 819.058594 1051.597656 C 818.527344 1046.03125 816.664062 1040.90625 817.113281 1034.863281 C 818.878906 1011.152344 819.398438 987.359375 820.636719 963.609375 C 820.867188 959.214844 822.296875 954.886719 823.015625 951.367188 C 830.8125 949.066406 835.015625 953.230469 839.503906 956.808594 C 853.230469 967.484375 868.890625 974.585938 884.859375 981.0625 C 890.085938 983.171875 896.492188 986.980469 900.574219 981.457031 C 906.667969 973.292969 897.539062 969.839844 893.105469 965.636719 C 884.820312 957.746094 876.34375 950.003906 867.40625 942.875 C 854.796875 932.808594 842.703125 922.28125 833.207031 909.152344 C 830.824219 905.859375 826.976562 902.050781 833.367188 895.550781 C 852.414062 896.816406 871.921875 900.160156 889.59375 912.648438 C 908.300781 926.148438 928.433594 936.996094 949.996094 945.1875 C 959.902344 948.847656 969.738281 950.792969 980.035156 948.25 C 981.53125 947.882812 982.605469 945.039062 983.421875 943.148438 C 983.535156 942.609375 983.507812 942.074219 983.34375 941.546875 C 983.179688 941.019531 982.894531 940.566406 982.496094 940.183594 C 976.824219 936.449219 970.960938 933.039062 964.90625 929.953125 C 953.886719 924.757812 942.433594 920.429688 934.5 911.984375 C 937.046875 904.867188 941.589844 903.65625 946.1875 903.25 C 957.617188 902.214844 969.054688 901.195312 980.523438 900.855469 C 986.8125 900.777344 993.023438 900.039062 999.15625 898.636719 C 1005.289062 897.234375 1011.203125 895.203125 1016.902344 892.542969 C 1018.261719 891.863281 1019.460938 888.679688 1019.148438 886.9375 C 1018.832031 885.195312 1016.808594 883.25 1015.066406 882.355469 C 1012.957031 881.394531 1010.75 881.007812 1008.441406 881.199219 C 972.796875 883.238281 937.453125 880.597656 902.246094 874.925781 C 894.289062 873.632812 885.308594 874.207031 879.488281 868.398438 C 860.277344 849.242188 838.675781 831.667969 829.449219 804.882812 C 834.496094 799.441406 838.769531 803.96875 842.226562 805.289062 C 878.546875 819.234375 914.054688 835.21875 951.453125 846.453125 C 975.707031 853.757812 1000.113281 859.039062 1025.308594 860.820312 C 1028.75 861.023438 1032.101562 860.570312 1035.363281 859.460938 C 1036.308594 859.007812 1037.09375 858.367188 1037.726562 857.527344 C 1038.355469 856.691406 1038.753906 855.757812 1038.925781 854.726562 C 1038.863281 853.605469 1038.542969 852.566406 1037.964844 851.609375 C 1037.386719 850.648438 1036.621094 849.878906 1035.664062 849.296875 Z M -975.914062 370.679688 C -977.84375 373.90625 -984.074219 373.578125 -989.203125 368.546875 C -985.21875 355.484375 -978.101562 343.839844 -966.078125 332.03125 C -961.042969 349.011719 -969.4375 359.878906 -975.914062 370.679688 Z M -957.207031 824.007812 C -958.566406 830.402344 -963.476562 833.328125 -969.125 834.890625 C -993.09375 841.691406 -1016.96875 849.40625 -1044.257812 844.6875 C -1043.824219 843.007812 -1043.285156 841.367188 -1042.640625 839.761719 C -1041.992188 838.15625 -1041.246094 836.597656 -1040.394531 835.089844 C -1039.546875 833.578125 -1038.605469 832.132812 -1037.566406 830.746094 C -1036.53125 829.359375 -1035.40625 828.042969 -1034.199219 826.804688 C -1032.992188 825.5625 -1031.710938 824.402344 -1030.351562 823.328125 C -1028.996094 822.253906 -1027.574219 821.273438 -1026.089844 820.382812 C -1024.605469 819.492188 -1023.066406 818.699219 -1021.480469 818.011719 C -1019.890625 817.320312 -1018.265625 816.734375 -1016.601562 816.253906 C -998.507812 810.8125 -978.960938 810.132812 -960.484375 807.492188 C -955.355469 812.757812 -956.023438 818.390625 -957.207031 824.007812 Z M -529.902344 554.738281 C -519.464844 574.925781 -522.160156 578.828125 -552.703125 583.863281 C -545.941406 570.027344 -538.839844 561.867188 -529.902344 554.738281 Z M -524.253906 731.246094 C -524.515625 732.9375 -525.03125 734.546875 -525.800781 736.074219 C -526.574219 737.601562 -527.5625 738.96875 -528.773438 740.183594 C -549.625 758.167969 -570.875 775.117188 -598.261719 783.15625 C -637.617188 794.707031 -676.648438 799.222656 -716.617188 786.246094 C -730.726562 781.648438 -745.308594 778.546875 -759.714844 774.925781 C -760.261719 774.769531 -760.820312 774.652344 -761.386719 774.582031 C -761.953125 774.511719 -762.519531 774.484375 -763.089844 774.503906 C -763.660156 774.523438 -764.226562 774.585938 -764.789062 774.691406 C -765.347656 774.800781 -765.894531 774.949219 -766.433594 775.144531 C -766.96875 775.339844 -767.488281 775.574219 -767.988281 775.847656 C -768.488281 776.121094 -768.960938 776.433594 -769.414062 776.785156 C -769.863281 777.136719 -770.285156 777.519531 -770.675781 777.933594 C -771.066406 778.351562 -771.421875 778.792969 -771.742188 779.265625 C -774.816406 783.347656 -772.246094 790.613281 -766.421875 793.523438 C -762.214844 795.601562 -757.910156 797.457031 -753.511719 799.085938 C -769.035156 799.765625 -784.597656 798.816406 -800.1875 797.726562 C -804.785156 797.425781 -809.058594 796.214844 -807.492188 788.71875 C -771.578125 777.363281 -741.921875 753.1875 -709.269531 734.632812 C -707.160156 733.59375 -705.453125 732.09375 -704.15625 730.128906 C -702.539062 727.171875 -701.527344 724.019531 -701.121094 720.675781 C -700.863281 718.1875 -709.214844 715.65625 -713.027344 717.097656 C -747.214844 730.144531 -781.347656 743.339844 -815.546875 756.304688 C -838.0625 764.847656 -860.65625 772.871094 -884.925781 775.714844 C -894.734375 776.871094 -903.0625 774.355469 -911.402344 770.777344 C -917.277344 768.246094 -919.058594 762.617188 -919.046875 756.535156 C -919.046875 751.324219 -913.605469 745.421875 -907.699219 745.84375 C -882.125 747.652344 -857.691406 740.238281 -832.878906 736.753906 C -814.757812 734.023438 -797.003906 729.765625 -779.617188 723.980469 C -772.472656 721.78125 -765.621094 718.890625 -759.054688 715.316406 C -752.492188 711.738281 -746.351562 707.542969 -740.628906 702.730469 C -737.144531 699.738281 -734.820312 695.003906 -737.90625 690.488281 C -739.582031 688.082031 -743.089844 686.964844 -746.316406 684.925781 C -770.640625 704.921875 -799.519531 713.300781 -829.300781 715.613281 C -859.445312 717.953125 -890.628906 721.054688 -920.707031 706.09375 L -920.707031 667.265625 C -920.707031 662.832031 -920.707031 658.195312 -914.246094 655.59375 C -900.3125 660.820312 -887.390625 671.363281 -871.351562 673.851562 C -855.3125 676.339844 -840.726562 683.960938 -824.292969 683.375 C -808.90625 682.789062 -793.003906 687.277344 -778.039062 680.164062 C -780.191406 670.042969 -787.183594 669.144531 -794.023438 667.921875 C -832.960938 661.117188 -868.65625 646.085938 -901.496094 624.390625 C -908.066406 620.0625 -913.671875 614.007812 -918.882812 608.0625 C -920.734375 605.929688 -921.183594 601.261719 -920.242188 598.390625 C -919.90625 597.675781 -919.492188 597.007812 -919 596.390625 C -918.507812 595.769531 -917.949219 595.214844 -917.328125 594.722656 C -916.710938 594.234375 -916.039062 593.820312 -915.324219 593.484375 C -914.609375 593.148438 -913.863281 592.898438 -913.089844 592.734375 C -889.960938 590.3125 -867.460938 590.84375 -847.910156 606.800781 C -840.007812 613.246094 -829.953125 617.015625 -821.546875 622.933594 C -805.222656 634.429688 -786.242188 639.175781 -767.851562 645.394531 C -764.148438 646.664062 -760.34375 647.4375 -756.4375 647.71875 C -756.65625 648.273438 -756.835938 648.839844 -756.96875 649.417969 C -757.890625 653.867188 -753.988281 655.71875 -751.023438 655.894531 C -743.871094 656.273438 -736.71875 656.253906 -729.566406 655.828125 C -722.417969 655.40625 -715.3125 654.582031 -708.257812 653.363281 C -701.199219 652.140625 -694.230469 650.527344 -687.355469 648.523438 C -680.476562 646.523438 -673.734375 644.140625 -667.125 641.378906 C -632.488281 627.203125 -597.839844 618.347656 -560.332031 622.59375 C -551.503906 623.585938 -542.183594 618.742188 -532.269531 625.464844 C -538.089844 649.707031 -548.59375 671.714844 -565.285156 689.796875 C -601.0625 692.800781 -610.980469 692.039062 -640.992188 682.339844 C -651.96875 678.789062 -662.757812 675.101562 -674.445312 675.265625 C -680.007812 675.347656 -686.890625 674.558594 -688.441406 681.539062 C -689.886719 688.054688 -684.050781 691.742188 -679.261719 694.707031 C -671.507812 699.507812 -663.75 704.09375 -654.203125 705.425781 C -640.613281 707.242188 -627.199219 709.929688 -613.960938 713.492188 C -608.082031 715.125 -600.191406 714.445312 -596.546875 722.6875 C -614.613281 741.652344 -643.34375 740.074219 -662.9375 755.703125 C -662.703125 758.316406 -663.355469 761.40625 -662.1875 762.4375 C -655.179688 768.65625 -646.734375 772.65625 -637.46875 769.714844 C -614.503906 762.425781 -591.488281 754.671875 -574.183594 736.660156 C -563.191406 725.21875 -548.769531 721.695312 -534.402344 718.078125 C -531.859375 717.4375 -527.382812 719.4375 -525.765625 721.628906 C -524.144531 723.816406 -523.722656 728.128906 -524.253906 731.246094 Z M -133.136719 458.261719 C -134.945312 465.675781 -138.035156 466.273438 -151.449219 463.078125 C -152.738281 451.839844 -143.285156 449.023438 -137.652344 443.269531 C -130.988281 447.773438 -131.925781 453.308594 -133.136719 458.261719 Z M -489.210938 510.921875 C -488.367188 509.113281 -486.246094 506.144531 -485.386719 506.363281 C -479.15625 507.996094 -473.144531 510.308594 -465.375 512.960938 C -481.0625 518.128906 -481.074219 518.171875 -486.613281 516.28125 C -489.195312 515.394531 -490.355469 513.371094 -489.210938 510.921875 Z M -164.832031 776.339844 C -181.851562 789.945312 -199.0625 803.34375 -215.277344 817.859375 C -220.382812 822.46875 -225.890625 826.53125 -231.800781 830.050781 C -237.710938 833.570312 -243.90625 836.476562 -250.390625 838.769531 C -264.28125 843.734375 -278.15625 848.902344 -289.84375 856.78125 L -289.84375 858.140625 C -298.070312 860.113281 -306.40625 861.398438 -314.847656 861.988281 C -349.347656 863.554688 -383.328125 859.269531 -417.136719 851.910156 C -440.699219 846.78125 -458.207031 832.386719 -476.355469 818.511719 C -483.046875 813.398438 -485.878906 805.589844 -487.863281 797.792969 C -490.039062 789.375 -486.355469 782.257812 -480.777344 775.035156 C -472.261719 780.136719 -463.851562 785.605469 -455.050781 790.367188 C -424.796875 806.730469 -393.953125 821.695312 -360.460938 830.730469 C -347.90625 834.117188 -335.578125 835.191406 -323.132812 832.59375 C -315.296875 830.960938 -307.730469 827.628906 -305.148438 817.125 C -316.03125 810.988281 -328.273438 810.039062 -340.519531 808.011719 C -360.925781 804.636719 -381.464844 800.761719 -399.273438 789.929688 C -419.816406 777.429688 -439.527344 763.5 -459.132812 749.472656 C -466.355469 744.304688 -474.300781 738.78125 -476.109375 727.4375 C -458.195312 720.851562 -439.5 717.328125 -421.992188 714.171875 C -407.574219 719.492188 -396.554688 727.355469 -385.261719 735.542969 C -361.222656 753.039062 -336.503906 769.742188 -308.617188 781.035156 C -301.078125 784.082031 -293.652344 786.910156 -285.488281 786.828125 C -278.917969 786.828125 -274.988281 783.523438 -273.804688 775.796875 C -281.3125 771.402344 -288.6875 765.457031 -297.121094 762.453125 C -321.160156 753.867188 -340.941406 737.816406 -363.25 726.253906 C -369.296875 722.882812 -374.699219 718.679688 -379.453125 713.640625 C -383.804688 709.25 -391.453125 706.839844 -390.730469 698.679688 C -383.671875 689.726562 -372.390625 689.25 -363.414062 684.40625 C -354.433594 679.566406 -344.652344 679.550781 -333.714844 680.882812 C -317.75 682.9375 -301.726562 683.597656 -285.644531 682.867188 C -269.566406 682.132812 -253.667969 680.015625 -237.957031 676.519531 C -228.433594 674.339844 -220.992188 669.714844 -218.828125 657.472656 C -223.476562 656.148438 -228.210938 655.328125 -233.03125 655.011719 C -227.140625 653.160156 -221.265625 651.324219 -215.347656 649.570312 C -187.632812 641.257812 -162.371094 627.804688 -142.753906 605.589844 C -140.902344 603.492188 -138.183594 600.949219 -134.59375 602.867188 C -139.121094 642.113281 -143.136719 650.628906 -177.621094 693.753906 C -188.695312 697.835938 -199.863281 695.113281 -210.910156 692.09375 C -223.046875 688.761719 -234.992188 684.722656 -247.125 681.402344 C -253.792969 679.59375 -260.648438 678.914062 -267.394531 685.074219 C -255.640625 708.675781 -225.699219 705.125 -209.753906 721.492188 C -212.476562 730.183594 -219.453125 732.769531 -225.496094 735.175781 C -236.308594 739.488281 -240.460938 748.78125 -245.261719 757.894531 C -246.117188 759.527344 -246.226562 762.875 -245.179688 763.921875 C -242.949219 766.167969 -239.371094 769.253906 -237.015625 768.804688 C -224.636719 766.4375 -212.652344 762.886719 -202.585938 754.386719 C -190.339844 744.074219 -177.621094 734.414062 -165.1875 724.539062 C -153.636719 729.667969 -141.394531 724.878906 -130.835938 733.136719 C -139.257812 750.46875 -150.25 764.710938 -164.832031 776.339844 Z M 301.679688 603.03125 C 304.539062 599.570312 307.652344 596.363281 311.023438 593.398438 C 315.023438 589.726562 318.359375 584.800781 324.628906 584.679688 C 329.105469 596.378906 328.941406 601.671875 322.914062 604.433594 C 313.921875 608.511719 304.523438 611.820312 293.800781 616.023438 C 293.257812 608.378906 298.972656 606.5 301.691406 603.03125 Z M 325.484375 672.328125 C 314.699219 684.246094 303.257812 694.664062 287.75 701.277344 C 252.566406 716.242188 216.339844 725.492188 178.152344 727.125 C 170.140625 727.464844 162.058594 727.558594 154.113281 728.632812 C 149.605469 729.484375 145.378906 731.085938 141.4375 733.433594 C 140.546875 734.113281 139.855469 734.953125 139.355469 735.949219 C 138.855469 736.949219 138.601562 738.003906 138.59375 739.121094 C 138.59375 740.957031 140.402344 743.9375 141.925781 744.292969 C 147.40625 745.707031 152.972656 746.492188 158.632812 746.644531 C 187.335938 746.902344 216.039062 746.644531 244.730469 746.972656 C 250.773438 746.972656 257.765625 744.835938 262.714844 751.1875 C 256.582031 754.644531 250.839844 758.371094 244.691406 761.242188 C 208.367188 778.246094 172.152344 795.5625 130.917969 797.332031 C 129.496094 797.398438 128.082031 797.539062 126.675781 797.753906 C 126.90625 796.175781 127.136719 794.488281 127.394531 792.585938 C 123.125 789.222656 118.675781 791.222656 114.445312 792.476562 C 98.121094 797.304688 81.617188 801.996094 65.46875 807.4375 C 39.621094 815.96875 13.773438 814.484375 -11.488281 809.234375 C -17.679688 799.710938 -27.199219 793.792969 -27.949219 782.695312 C -23.867188 778.953125 -19.785156 779.15625 -15.011719 780.21875 C 20.632812 788.082031 55.484375 787.019531 88.734375 770.054688 C 93.195312 767.769531 95.835938 764.003906 94.867188 759.171875 C 93.902344 754.34375 90.570312 750.425781 85.578125 750.425781 C 73.007812 750.425781 60.328125 750.425781 47.878906 751.992188 C 33.976562 753.703125 19.597656 753.351562 7.246094 749.023438 C -18.601562 739.800781 -42.667969 725.898438 -62.136719 705.859375 C -72.882812 694.800781 -71.496094 682.027344 -66.21875 667.28125 C -44.761719 677.101562 -24.28125 688.65625 -4.78125 701.941406 C 9.871094 711.996094 25.867188 717.695312 43.621094 717.273438 C 52.820312 717.058594 62.082031 715.507812 67.414062 704.949219 C 59.605469 694.324219 47.851562 690.773438 35.582031 687.589844 C 16.792969 682.707031 -1.679688 676.832031 -19.554688 662.75 C 28.34375 651.351562 74.558594 641.460938 106.203125 602.335938 C 98.570312 592.882812 98.1875 592.351562 91.15625 597.359375 C 49.253906 627.21875 2.035156 630.539062 -46.925781 625.652344 C -54.054688 624.945312 -60.625 623.152344 -64.707031 616.839844 C -69.304688 609.722656 -76.679688 603.234375 -73.007812 591.671875 C -59.128906 597.195312 -46.492188 602.011719 -34.042969 607.261719 C -16.546875 614.621094 1.679688 614.921875 20.058594 613.097656 C 22.984375 612.8125 27.050781 610.609375 26.261719 606.582031 C 25.679688 603.644531 23.71875 599.78125 21.296875 598.664062 C 15.0625 595.695312 8.570312 593.480469 1.816406 592.027344 C -12.929688 588.882812 -26.222656 582.882812 -42.898438 571.863281 C -24.984375 571.863281 -11.609375 571.757812 1.625 571.863281 C 19.3125 572.054688 35.855469 567.578125 51.851562 560.574219 C 118.308594 586.679688 187.703125 587.480469 260.308594 577.699219 C 249.425781 591.699219 240.582031 603.113281 229.183594 612.878906 C 214.121094 625.789062 198.464844 630.972656 178.535156 626.90625 C 158.605469 622.835938 137.789062 621.328125 117.316406 619 C 116.191406 619.058594 115.132812 619.351562 114.140625 619.886719 C 113.152344 620.421875 112.324219 621.140625 111.65625 622.046875 C 109.410156 625.367188 111.167969 628.851562 114.023438 630.644531 C 125.804688 638.046875 139.175781 641.378906 152.292969 645.542969 C 157.910156 647.339844 165.894531 647.5 167.445312 657.335938 C 158.835938 662.464844 150.222656 668.054688 141.203125 672.886719 C 121.996094 683.195312 102.609375 693.15625 83.265625 703.195312 C 77.183594 706.351562 70.476562 708.636719 66.449219 714.675781 C 64.109375 718.199219 66 720.988281 69.660156 724.632812 C 98.148438 715.585938 127.519531 706.675781 156.5625 696.800781 C 167.3125 693.15625 177.335938 687.277344 187.59375 682.3125 C 213.144531 669.851562 237.207031 653.050781 267.738281 655.433594 C 268.785156 655.515625 269.871094 654.5625 270.988281 654.410156 C 280.046875 653.160156 289.09375 651.363281 298.195312 650.96875 C 308.167969 650.519531 316.996094 641.882812 327.527344 646.523438 C 331.0625 665.566406 331.0625 666.398438 325.621094 672.328125 Z M 325.324219 325.953125 C 318.425781 331.515625 310.222656 327.855469 303.421875 323.09375 C 301.625 321.84375 300.34375 319.832031 297.746094 316.972656 C 307.105469 311.152344 315.757812 304.90625 326.585938 302.796875 C 330.667969 311.707031 332.300781 320.386719 325.363281 325.953125 Z M 328.832031 252.847656 C 322.300781 266.914062 310.519531 276.175781 297.109375 283.140625 C 286.972656 288.40625 276.292969 292.664062 264.457031 297.941406 C 252.949219 290.894531 241.453125 287.496094 236.652344 275.808594 C 249.464844 263.988281 267.300781 266.832031 281.542969 259.484375 C 295.789062 252.136719 310.113281 245.390625 323.960938 238.644531 C 332.261719 241.71875 331.035156 248.003906 328.859375 252.847656 Z M 359.699219 399.316406 C 368.367188 400.066406 373.890625 404.691406 377.386719 415.164062 C 356.980469 417 355.617188 415.585938 359.699219 399.316406 Z M 362.011719 676.246094 C 356.570312 673.15625 358.871094 668.980469 361.5625 665.144531 C 369.726562 666.054688 375.875 670.179688 380.921875 676.410156 C 374.394531 680.722656 368 679.648438 362.011719 676.246094 Z M 384.308594 612.511719 C 401.453125 618.320312 418.320312 625.367188 435.734375 629.625 C 465.746094 636.882812 495.992188 643.183594 526.472656 648.535156 C 553.84375 653.324219 581.421875 651.148438 608.410156 645.066406 C 610.136719 644.671875 611.878906 644.238281 613.59375 643.707031 L 614.328125 644.238281 C 627.523438 639.582031 642.789062 639.433594 655.617188 630.796875 C 671.453125 620.128906 688.59375 615.53125 707.789062 619.546875 C 713.3125 620.703125 719.324219 619.421875 724.945312 620.292969 C 730.5625 621.164062 737.828125 617.289062 742.519531 623.476562 C 742.078125 624.878906 741.472656 626.207031 740.710938 627.464844 C 739.214844 629.148438 737.730469 631.148438 735.785156 632.128906 C 688.402344 656.195312 640.898438 679.933594 586.140625 681.238281 C 588.863281 679.792969 591.300781 677.964844 593.445312 675.75 C 595.589844 673.535156 597.339844 671.042969 598.699219 668.273438 C 594.441406 666.914062 591.445312 665.089844 588.398438 665.023438 C 574.429688 664.683594 561.300781 669.226562 548.078125 672.886719 C 525.996094 678.992188 503.945312 684.734375 480.859375 686.011719 C 469.976562 686.625 460.304688 684.328125 451.636719 678.21875 C 426.109375 660.460938 403.4375 639.601562 383.617188 615.640625 C 383.34375 615.246094 384.023438 614.078125 384.433594 612.511719 Z M 781.15625 713.722656 C 770.273438 728.6875 756.804688 741.09375 742.75 752.929688 C 741.628906 753.839844 740.425781 754.628906 739.144531 755.292969 C 737.859375 755.957031 736.519531 756.484375 735.128906 756.875 C 733.734375 757.261719 732.316406 757.503906 730.875 757.601562 C 729.433594 757.699219 727.996094 757.644531 726.5625 757.445312 C 700.308594 754.535156 674.089844 750.890625 651.113281 736.550781 C 640.421875 729.886719 628.652344 726.347656 617.023438 722.28125 C 615.660156 721.816406 612.628906 723.914062 611.582031 725.574219 C 611.0625 726.515625 610.78125 727.523438 610.738281 728.597656 C 610.699219 729.675781 610.902344 730.703125 611.347656 731.679688 C 613.878906 735.40625 616.65625 739.460938 620.328125 741.828125 C 631.890625 749.257812 643.890625 756.042969 655.792969 762.929688 C 660.757812 765.796875 666.472656 767.621094 670.867188 771.089844 C 675.628906 774.886719 683.695312 774.683594 685.503906 782.3125 C 682.265625 784.792969 678.769531 786.835938 675.023438 788.449219 C 671.273438 790.0625 667.386719 791.191406 663.359375 791.835938 C 636.449219 797.003906 609.242188 800.734375 583.09375 809.316406 C 576.738281 811.398438 569.488281 810.675781 562.6875 811.25 C 558.144531 811.65625 553.3125 811.398438 549.164062 812.933594 C 546.539062 813.902344 543.503906 817.480469 543.246094 820.144531 C 543.246094 822.390625 543.921875 824.40625 545.273438 826.199219 L 544.988281 826.199219 C 536.035156 827.980469 527.113281 830.46875 518.066406 831.125 C 504.378906 832.101562 490.652344 833.257812 477.023438 834.101562 C 452.398438 835.652344 428.945312 830.890625 416.511719 805.003906 C 414.035156 799.863281 410.445312 795.265625 407.75 790.203125 C 405.464844 785.945312 405.027344 781.605469 410.023438 777.960938 C 435.148438 788.695312 461.5 797.929688 488.570312 801.195312 C 535.382812 806.839844 582.441406 805.808594 628.570312 793.578125 C 632.652344 792.503906 636.109375 788.882812 639.5625 786.09375 C 641.972656 784.148438 640.378906 778.339844 637.375 777.730469 C 632.980469 776.832031 628.53125 775.605469 624.125 775.605469 C 583.976562 775.714844 544.007812 775.023438 504.191406 768.152344 C 486.6875 765.246094 469.527344 760.964844 452.707031 755.3125 C 435.890625 749.65625 419.628906 742.699219 403.925781 734.441406 C 398.933594 731.722656 392.089844 729.871094 390.878906 721.339844 C 409.164062 720.539062 426.332031 719.695312 443.5 719.097656 C 451.527344 718.8125 459.828125 718.390625 467.105469 722.445312 C 493.808594 737.230469 523.859375 739.324219 552.890625 745.285156 C 563.542969 747.472656 573.296875 745.894531 582.25 736.632812 C 561.027344 722.28125 532.648438 726.917969 512.734375 708.511719 C 526.527344 698.472656 543.574219 698.3125 557.707031 691.386719 C 562.371094 689.3125 567.175781 687.660156 572.128906 686.433594 C 571.378906 687.246094 570.847656 688.179688 570.535156 689.238281 C 569.273438 694.421875 573.40625 698.066406 577.871094 698.757812 C 598.277344 701.957031 619.320312 705.425781 639.386719 700.445312 C 669.222656 693.019531 700.386719 690.1875 728.535156 676.3125 C 733.433594 673.890625 739.269531 672.054688 744.859375 676.570312 C 736.425781 691.238281 722.03125 698.488281 708.128906 706.390625 C 700.210938 710.863281 692.445312 715.585938 684.824219 720.566406 C 681.914062 722.484375 684.28125 730.769531 687.546875 732.46875 C 689.070312 733.277344 690.667969 733.902344 692.332031 734.351562 C 694 734.796875 695.695312 735.054688 697.417969 735.117188 C 699.144531 735.183594 700.851562 735.054688 702.546875 734.734375 C 704.242188 734.414062 705.882812 733.90625 707.460938 733.21875 C 726.304688 725.273438 746.410156 719.738281 762.355469 705.875 C 765.863281 702.890625 769.585938 700.207031 773.523438 697.820312 C 776.789062 695.808594 779.15625 690.800781 784.246094 693.660156 C 784.871094 695.316406 785.28125 697.023438 785.476562 698.785156 C 785.671875 700.546875 785.644531 702.304688 785.394531 704.058594 C 785.144531 705.8125 784.679688 707.507812 784.003906 709.144531 C 783.324219 710.78125 782.453125 712.308594 781.386719 713.722656 Z M 783.183594 572.558594 C 771.972656 578.082031 761.511719 585.058594 745.609375 582.3125 C 755.59375 566.546875 768.328125 556.289062 783.113281 544.890625 C 787.058594 556.5625 785.5625 564.207031 783.25 572.558594 Z M 785.496094 896.515625 C 780.855469 902.867188 775.035156 902.609375 769.386719 901.957031 C 755.976562 900.351562 743.199219 896.898438 732.535156 889.402344 C 733.175781 886.257812 733.039062 884.679688 733.648438 884.300781 C 749.785156 873.960938 765.988281 863.746094 783.019531 853.011719 C 784.652344 857.636719 786.488281 860.628906 786.652344 863.703125 C 787.332031 874.96875 788.828125 886.367188 785.5625 896.515625 Z M 818.457031 524.0625 C 821.941406 525.707031 824.5 526.144531 825.804688 527.667969 C 833.015625 536.085938 839.925781 544.78125 846.945312 553.390625 C 839.980469 559.71875 832.933594 562.683594 822.742188 561.878906 C 819.34375 550.070312 813.902344 538.15625 818.527344 524.101562 Z M 818.457031 524.0625 "/>
</g>
</g>
</svg>
