<?xml version="1.0" encoding="UTF-8"?>
<svg xmlns="http://www.w3.org/2000/svg" xmlns:xlink="http://www.w3.org/1999/xlink" width="1125pt" height="1124.99995pt" viewBox="0 0 1125 1124.99995" version="1.2">
<defs>
<clipPath id="clip1">
  <path d="M 195.019531 130 L 930 130 L 930 995 L 195.019531 995 Z M 195.019531 130 "/>
</clipPath>
</defs>
<g id="surface1">
<g clip-path="url(#clip1)" clip-rule="nonzero">
<path style=" stroke:none;fill-rule:nonzero;fill:rgb(100%,100%,100%);fill-opacity:1;" d="M 927.632812 777.242188 C 924.277344 775.929688 920.828125 774.929688 917.289062 774.242188 C 891.546875 768.296875 866.738281 759.667969 842.863281 748.359375 C 838.160156 746.203125 832.765625 744.726562 831.710938 736.832031 C 843.648438 737.824219 855.332031 736.3125 866.9375 739.761719 C 876.710938 742.664062 886.808594 741.425781 896.785156 740.734375 C 900.839844 740.464844 903.191406 738.027344 903.667969 733.984375 C 901.21875 730.746094 897.605469 730.433594 894.023438 729.765625 C 877.066406 726.59375 859.96875 723.941406 843.21875 719.855469 C 836.085938 718.167969 829.105469 715.996094 822.277344 713.335938 C 815.445312 710.679688 808.832031 707.558594 802.4375 703.980469 C 796.042969 700.402344 789.925781 696.394531 784.089844 691.964844 C 778.253906 687.535156 772.75 682.71875 767.582031 677.523438 C 774.347656 671.050781 780.753906 668.894531 788.140625 672.421875 C 793.859375 675.160156 798.929688 679.109375 804.59375 682.074219 C 828.753906 694.832031 853.53125 705.800781 881.488281 706.632812 C 881.832031 706.660156 882.175781 706.65625 882.515625 706.617188 C 882.859375 706.578125 883.195312 706.503906 883.519531 706.394531 C 883.847656 706.285156 884.160156 706.148438 884.460938 705.976562 C 884.757812 705.804688 885.035156 705.605469 885.292969 705.375 C 885.550781 705.148438 885.785156 704.898438 885.992188 704.621094 C 886.199219 704.347656 886.375 704.054688 886.523438 703.742188 C 886.671875 703.433594 886.785156 703.109375 886.867188 702.773438 C 886.953125 702.441406 887 702.101562 887.011719 701.757812 C 887.011719 700.257812 886.09375 697.886719 884.855469 697.3125 C 880 695.007812 874.867188 693.269531 869.851562 691.253906 C 850.433594 683.433594 831.796875 674.394531 818.550781 657.636719 C 821.96875 649.386719 829.035156 646.625 835.289062 643.183594 C 851.601562 634.242188 863.121094 620.203125 874.972656 606.515625 C 878.015625 603.011719 879.859375 598.738281 874.023438 594.351562 C 865.117188 597.714844 856.433594 602.363281 849.496094 609.738281 C 835.226562 624.9375 816.304688 630.792969 799.003906 637.230469 C 791.582031 633.488281 785.683594 630.964844 785.972656 621.917969 C 801.484375 615.144531 817.027344 607.746094 831.03125 597.660156 C 833.988281 595.621094 836.46875 593.101562 838.460938 590.109375 C 840.15625 587.371094 837.578125 585.332031 834.902344 583.457031 C 832.746094 584.179688 829.855469 584.535156 827.695312 585.914062 C 808 598.675781 786.707031 598.371094 764.800781 594.15625 C 764.347656 594.089844 763.90625 593.988281 763.46875 593.851562 C 763.035156 593.714844 762.617188 593.539062 762.210938 593.328125 C 761.804688 593.121094 761.417969 592.878906 761.054688 592.605469 C 760.691406 592.332031 760.351562 592.027344 760.035156 591.699219 C 759.722656 591.367188 759.4375 591.011719 759.183594 590.632812 C 758.929688 590.253906 758.707031 589.855469 758.519531 589.441406 C 758.332031 589.023438 758.179688 588.597656 758.066406 588.15625 C 757.949219 587.714844 757.871094 587.265625 757.832031 586.8125 C 757.476562 583.015625 759.925781 580.339844 763.710938 578.777344 C 777.097656 573.199219 790.40625 567.410156 804.582031 561.335938 C 818.484375 569.402344 834.136719 573.890625 850.121094 577.253906 C 853.683594 577.96875 857.28125 578.230469 860.910156 578.042969 C 861.804688 577.933594 862.632812 577.628906 863.390625 577.136719 C 864.148438 576.644531 864.757812 576.011719 865.222656 575.238281 C 865.828125 573.976562 865.4375 571.257812 864.4375 570.40625 C 861.015625 567.515625 857.089844 565.25 853.457031 562.589844 C 844.75 556.214844 834.425781 551.804688 827.320312 541.871094 C 838.105469 524.441406 856.441406 512.449219 863.84375 492.980469 C 860.605469 488.96875 856.863281 489.679688 853.671875 491.492188 C 850.457031 493.183594 847.707031 495.4375 845.417969 498.253906 C 835.34375 511.867188 820.609375 518.917969 807.816406 527.828125 C 788.605469 514.886719 775.070312 498.179688 770.472656 482.445312 C 779.210938 478.863281 788.464844 480.859375 797.441406 480.222656 C 805.886719 479.609375 813.425781 476.621094 820.859375 473.34375 C 829.164062 469.691406 837.195312 465.507812 844.945312 460.789062 C 857.542969 453.089844 857.390625 452.828125 862.582031 442.820312 C 859.03125 440.015625 855.503906 436.855469 850.5 439.011719 C 844.652344 441.527344 839.011719 444.492188 833.15625 446.972656 C 811.484375 456.171875 789.339844 456.960938 766.796875 450.5 C 754.929688 447.113281 748.242188 439.421875 747.53125 427.097656 C 747.109375 419.988281 747.453125 412.847656 747.453125 405.246094 C 755.425781 407.941406 757.164062 414.832031 761.347656 419.417969 C 763.917969 422.300781 766.703125 424.953125 769.710938 427.375 C 772.71875 429.800781 775.902344 431.957031 779.269531 433.851562 C 782.632812 435.75 786.128906 437.355469 789.761719 438.671875 C 793.390625 439.988281 797.105469 440.996094 800.902344 441.699219 C 802.285156 441.957031 804.472656 440.78125 805.421875 439.542969 C 805.921875 438.84375 806.25 438.070312 806.40625 437.226562 C 806.5625 436.378906 806.53125 435.542969 806.316406 434.710938 C 805.207031 432.226562 803.789062 429.929688 802.066406 427.820312 C 794.027344 416.824219 785.957031 405.855469 777.851562 394.914062 C 771.324219 386.125 765.820312 376.738281 761.339844 366.75 C 756.859375 356.765625 753.507812 346.410156 751.285156 335.691406 C 749.214844 325.988281 745.523438 316.59375 742.179688 307.199219 C 740.261719 301.808594 735.925781 299.261719 732.050781 300.328125 C 731.175781 300.5625 730.34375 300.902344 729.554688 301.34375 C 728.761719 301.785156 728.039062 302.316406 727.378906 302.9375 C 726.71875 303.558594 726.148438 304.25 725.660156 305.015625 C 725.171875 305.777344 724.785156 306.589844 724.5 307.449219 C 723.875 309.128906 723.898438 311.027344 723.421875 312.773438 C 713.898438 350.351562 695.269531 381.574219 661.269531 402.152344 C 658.164062 404.027344 655.21875 406.28125 655.875 410.679688 C 660.332031 415.589844 665.929688 414.78125 670.976562 412.632812 C 688.550781 405.082031 705.9375 397.070312 719.355469 382.695312 C 721.589844 380.289062 723.777344 377.03125 729.0625 380.160156 C 727.304688 401.480469 720.898438 420.34375 700.621094 432.058594 C 697.503906 433.953125 694.5625 436.089844 691.796875 438.464844 C 676.867188 450.738281 659.542969 454.21875 640.722656 453.035156 C 633.410156 452.570312 626.234375 452.050781 619.320312 449.378906 C 616.753906 448.386719 613.992188 448.386719 611.683594 451.296875 C 608.683594 456.386719 612.136719 459.699219 616.375 461.328125 C 631.746094 467.214844 647.570312 470.90625 664.28125 470.269531 C 675.949219 469.828125 687.65625 470.183594 699.453125 470.183594 C 698.601562 476.652344 693.792969 479.664062 689.597656 482.683594 C 668.023438 498.289062 644.980469 510.570312 617.832031 513.636719 C 610.746094 514.433594 603.808594 517.257812 596.992188 519.546875 C 595.6875 519.976562 594.46875 522.132812 594.144531 523.6875 C 594.011719 524.351562 593.996094 525.015625 594.101562 525.683594 C 594.207031 526.351562 594.425781 526.984375 594.757812 527.570312 C 595.089844 528.160156 595.515625 528.675781 596.035156 529.109375 C 596.554688 529.546875 597.132812 529.875 597.769531 530.101562 C 601.003906 531.503906 604.921875 533.695312 608.007812 533.035156 C 626.589844 529.101562 645.886719 529.066406 663.859375 521.324219 C 679.746094 514.488281 695.570312 507.679688 710.617188 499.117188 C 713.757812 497.339844 716.984375 495.582031 721.242188 498.480469 C 720.457031 500.574219 719.992188 503.066406 718.707031 505.039062 C 707.664062 521.929688 693.402344 535.992188 678.519531 549.355469 C 656.285156 569.308594 647.863281 571.398438 619.191406 565.035156 C 612.125 563.472656 605.308594 560.796875 598.351562 558.714844 C 595.761719 557.941406 593.011719 556.65625 590.519531 556.992188 C 588.246094 557.304688 585.851562 559.148438 584.285156 561.011719 C 583.597656 561.8125 584.285156 564.582031 585.246094 565.898438 C 589.5625 572.144531 596.410156 574.871094 603.011719 577.988281 C 608.308594 580.492188 614.941406 581.417969 617.617188 588.257812 C 614.132812 592.699219 609.441406 594.597656 604.878906 596.527344 C 599.191406 593.808594 596.519531 593.582031 586.929688 593.832031 C 564.101562 594.433594 541.558594 592.199219 519.296875 587.125 C 484.78125 579.25 450.792969 569.738281 417.664062 552.257812 C 433.84375 542.839844 449.378906 540.78125 465.699219 544.492188 C 472.761719 546.097656 479.472656 548.804688 486.949219 548.804688 C 507.875 548.804688 528.800781 549.234375 549.726562 549.234375 C 555.117188 549.234375 560.835938 549.074219 565.90625 547.445312 C 571.632812 545.625 577.867188 542.96875 577.199219 534.847656 C 567.179688 529.457031 556.703125 527.613281 545.617188 527.503906 C 536.535156 527.40625 527.417969 526.867188 518.367188 525.960938 C 513.179688 525.445312 507.679688 524.527344 504.992188 518.035156 C 512.804688 512.242188 521.355469 507.046875 528.464844 500.316406 C 535.195312 493.941406 544.222656 487.988281 542.488281 474.875 C 537.265625 476.144531 533.007812 476.816406 529.035156 478.261719 C 525.675781 479.601562 522.507812 481.300781 519.535156 483.363281 C 513.449219 487.332031 507.734375 491.902344 501.488281 495.570312 C 467.207031 515.628906 453.617188 514.5625 423.425781 489.390625 C 419.316406 485.960938 415.9375 481.582031 412.519531 477.398438 C 409.78125 474.054688 405.722656 471.035156 407.980469 465.089844 C 414.257812 462.546875 420.859375 459.558594 427.652344 457.175781 C 449.023438 449.625 449.074219 449.625 472.429688 455.945312 C 486.453125 459.730469 500.605469 463.257812 515.328125 461.976562 C 517.601562 461.78125 520.71875 460.765625 520.117188 455.039062 C 513.332031 448.34375 502.988281 444.914062 493.453125 440.277344 C 489.386719 438.289062 484.953125 437.039062 484.21875 430.796875 L 491.769531 423.871094 C 494.457031 421.421875 496.894531 418.835938 497.078125 414.898438 C 496.320312 414.402344 495.621094 413.5625 494.8125 413.429688 C 482.417969 411.46875 473.03125 421.640625 459.765625 421.800781 C 436.953125 408.644531 414.945312 393.027344 400.644531 368.628906 C 395.175781 359.300781 389.4375 350.070312 391.453125 334.710938 C 396.320312 338.324219 398.636719 339.683594 400.515625 341.515625 C 420.859375 361.339844 444.46875 376.480469 469.355469 389.8125 C 484.058594 397.675781 499.558594 402.128906 516.449219 400.886719 C 519.144531 400.695312 522.101562 400.695312 524.421875 399.574219 C 526.738281 398.453125 529.394531 396.25 529.8125 394.125 C 530.179688 392.261719 528.152344 388.832031 526.265625 387.839844 C 522.171875 385.851562 517.890625 384.414062 513.429688 383.523438 C 483.410156 376.546875 457.933594 361.726562 436.21875 339.003906 C 438.871094 335.152344 442.980469 333.613281 447.1875 332.359375 C 455.894531 329.71875 464.78125 327.605469 473.324219 324.507812 C 487.519531 319.355469 498.78125 310.488281 504.605469 296.082031 C 505.585938 293.652344 505.480469 290.449219 502.535156 288.996094 C 501.1875 288.324219 498.757812 288.121094 497.648438 288.886719 C 479.3125 301.613281 459.300781 303.867188 437.988281 298.59375 C 434.503906 297.730469 430.609375 298.441406 427.199219 297.515625 C 418.464844 295.183594 409.746094 292.660156 401.3125 289.566406 C 396.996094 288.003906 393.277344 284.625 392.683594 279.75 C 392.523438 278.621094 392.503906 277.488281 392.625 276.351562 C 392.746094 275.21875 393.003906 274.113281 393.402344 273.042969 C 393.796875 271.972656 394.316406 270.964844 394.960938 270.023438 C 395.605469 269.082031 396.359375 268.234375 397.214844 267.476562 C 404.203125 268.113281 407.0625 274.53125 411.980469 278.015625 C 421.6875 284.886719 431.847656 290.902344 443.910156 292.433594 C 449.367188 293.125 452.007812 289.664062 453.175781 283.753906 C 441.664062 272.96875 427.511719 264.339844 417.921875 250.816406 C 405.757812 233.644531 400.664062 222.40625 399.382812 209.011719 C 407.082031 210.265625 415.042969 211.699219 423.046875 212.703125 C 424.277344 212.863281 425.753906 211.039062 427.804688 209.671875 C 427.976562 202.328125 421.785156 199.46875 416.921875 195.769531 C 399.585938 182.613281 387.484375 166.207031 384.367188 144.085938 C 384.070312 141.355469 383.347656 138.738281 382.210938 136.234375 C 380.730469 133.269531 379.363281 129.410156 374.59375 130.84375 C 373.417969 132.234375 371.507812 133.453125 371.261719 134.953125 C 368.640625 150.945312 361.84375 166.230469 363.0625 182.882812 C 363.613281 190.429688 361.121094 197 357.832031 203.707031 C 346.894531 226.019531 333.171875 246.136719 314.136719 262.386719 C 310.714844 265.300781 307.242188 268.535156 308.398438 273.710938 C 309.121094 276.949219 318.105469 277.335938 323.28125 273.710938 C 332.988281 266.9375 342.179688 259.488281 351.800781 252.636719 C 354.929688 250.417969 355.664062 244.527344 361.433594 245.777344 C 363.320312 253.707031 357.378906 257.695312 353.386719 261.957031 C 346.59375 269.226562 339.453125 276.375 330.035156 280.484375 C 318.375 285.566406 306.875 291.074219 295 295.585938 C 287.609375 298.398438 280.320312 302.777344 272.519531 301.332031 C 264.839844 297.117188 264.246094 288.53125 258.628906 283.851562 C 257.972656 283.292969 257.238281 282.882812 256.421875 282.621094 C 255.605469 282.359375 254.769531 282.261719 253.914062 282.328125 C 253.246094 282.460938 252.625 282.703125 252.046875 283.058594 C 251.472656 283.414062 250.972656 283.863281 250.558594 284.398438 C 250.144531 284.933594 249.835938 285.527344 249.632812 286.175781 C 249.433594 286.824219 249.355469 287.488281 249.394531 288.164062 C 249.394531 294.375 255.285156 299.683594 252.359375 306.238281 C 247.875 313.390625 236.484375 309.703125 233.042969 318.664062 C 240.59375 330.679688 254.238281 321.15625 264.734375 329.375 C 267.503906 335.335938 275.746094 340.601562 277.203125 350.4375 C 250.570312 356.90625 223.269531 350.835938 196.746094 354.6875 C 196.960938 363.085938 202.441406 365.472656 207.304688 367.335938 C 223.722656 373.613281 240.980469 376.277344 258.175781 372.566406 C 273.503906 369.257812 288.851562 370.269531 303.542969 368.578125 C 309.679688 372.492188 314.902344 376.125 320.425781 379.277344 C 326.367188 382.640625 332.601562 385.507812 338.652344 388.5625 C 336.300781 394.179688 331.976562 395.570312 327.425781 396.304688 C 311.160156 398.949219 294.933594 398.722656 278.980469 394.289062 C 267.613281 391.128906 256.328125 388.625 244.269531 392.929688 C 253.621094 402.527344 256.425781 404.792969 266.351562 407.757812 C 287.234375 414.023438 308.234375 419.914062 330.378906 419.546875 C 334.8125 419.472656 339.625 419.296875 341.382812 424.9375 C 337.691406 441.050781 326.894531 447.222656 311.394531 445.722656 C 298.753906 444.503906 286.230469 442.164062 273.640625 440.683594 C 255.929688 438.605469 240.667969 431.335938 226.871094 420.269531 C 222.113281 416.460938 218.597656 410.5625 211.585938 410.023438 C 209.753906 419.730469 209.796875 419.730469 211.402344 422.40625 C 224.347656 444.40625 242.78125 459.582031 266.8125 468.5625 C 276.015625 471.992188 286.683594 472.488281 294.589844 481.042969 C 288.667969 489.109375 279.683594 493.628906 271.839844 499.378906 C 263.0625 505.761719 253.699219 511.316406 244.765625 517.496094 C 243.625 518.28125 242.910156 520.667969 243.09375 522.175781 C 243.128906 522.507812 243.199219 522.835938 243.300781 523.152344 C 243.40625 523.472656 243.539062 523.777344 243.703125 524.066406 C 243.867188 524.359375 244.058594 524.628906 244.28125 524.882812 C 244.5 525.132812 244.742188 525.359375 245.011719 525.5625 C 245.277344 525.765625 245.5625 525.9375 245.863281 526.082031 C 246.164062 526.226562 246.480469 526.335938 246.804688 526.417969 C 247.128906 526.496094 247.460938 526.542969 247.792969 526.554688 C 248.128906 526.566406 248.460938 526.546875 248.789062 526.492188 C 266.792969 523.730469 284.65625 520.730469 298.410156 506.808594 C 304.144531 501.097656 310.328125 495.917969 316.960938 491.277344 C 321.277344 488.183594 326.441406 484.449219 331.382812 484.214844 C 343.25 483.632812 354.035156 479.273438 364.617188 475.984375 C 369.339844 482.910156 366.4375 489.359375 366.773438 495.558594 C 367.269531 505.105469 362.460938 511.175781 353.96875 514.25 C 331.792969 522.273438 309.992188 531.410156 286.015625 533.664062 C 269.769531 535.183594 253.578125 537.675781 237.476562 540.511719 C 216.636719 544.1875 196.011719 544.566406 175.289062 539.863281 C 170.707031 538.785156 166.101562 537.878906 161.492188 536.972656 C 162.347656 535.453125 163 533.847656 163.457031 532.164062 C 162.066406 528.398438 159.140625 525.304688 155.527344 526.039062 C 147.535156 527.644531 139.878906 530.804688 131.929688 532.648438 C 123.148438 534.6875 114.054688 537.804688 105.328125 537.199219 C 96.703125 536.679688 88.1875 535.433594 79.777344 533.460938 C 71.363281 531.488281 63.179688 528.820312 55.222656 525.457031 C 48.503906 522.554688 41.976562 519.144531 37.964844 512.707031 C 35.011719 508.027344 32.390625 503 39.347656 498.148438 C 56.496094 503.710938 74.703125 502.785156 92.871094 502.460938 C 97.90625 502.386719 102.828125 501.601562 107.636719 500.113281 C 112.445312 498.621094 116.949219 496.480469 121.140625 493.695312 C 124.011719 491.816406 127.613281 489.078125 125.328125 484.980469 C 124.246094 483.070312 121.195312 481.570312 118.855469 481.246094 C 115.328125 480.75 111.628906 481.691406 108.003906 481.601562 C 96.191406 481.3125 84.273438 481.601562 72.589844 480.210938 C 62.246094 478.960938 52.03125 475.898438 45.160156 463.808594 C 55.191406 463.332031 63.28125 463.269531 71.296875 462.492188 C 80.304688 461.617188 89.214844 459.398438 98.261719 459 C 115.519531 458.222656 129.035156 449.34375 142.230469 439.648438 C 143.144531 438.980469 143.308594 436.144531 142.691406 434.851562 C 142.230469 434.097656 141.648438 433.457031 140.941406 432.929688 C 140.234375 432.398438 139.457031 432.019531 138.605469 431.789062 C 136.785156 431.433594 134.988281 431.523438 133.210938 432.058594 C 122.640625 434.539062 112.222656 437.804688 101.542969 439.605469 C 78.535156 443.382812 56.335938 440.003906 35.085938 430.332031 C 30.769531 428.378906 26.457031 426.019531 25.214844 421.5625 C 23.585938 415.535156 23.113281 409.140625 22.679688 402.863281 C 22.066406 393.976562 22.28125 393.964844 26.5625 383.957031 C 42.59375 394.191406 58.6875 404.351562 74.660156 414.683594 C 82.386719 419.675781 90.496094 423.675781 99.699219 424.625 C 101.027344 424.703125 102.320312 424.523438 103.578125 424.09375 C 104.835938 423.664062 105.964844 423.007812 106.96875 422.136719 C 109.125 419.976562 107.613281 416.851562 105.542969 415.277344 C 97.59375 409.234375 89.570312 403.25 81.242188 397.738281 C 74.761719 393.480469 68.785156 388.597656 63.320312 383.101562 C 57.851562 377.601562 53.007812 371.597656 48.785156 365.09375 C 32.886719 340.664062 17.65625 315.882812 12.109375 286.558594 C 11.285156 283.007812 9.945312 279.664062 8.085938 276.527344 C 6.222656 273.074219 2.941406 271.707031 -1.945312 272.394531 C -7.273438 281.703125 -7.121094 292.660156 -8.503906 303.296875 C -11.394531 325.339844 -15.394531 329.351562 -36.730469 333.117188 C -46.4375 334.839844 -56.148438 336.859375 -65.855469 339.078125 C -67.019531 339.347656 -68.347656 341.765625 -68.390625 343.222656 C -68.304688 344.070312 -68.0625 344.875 -67.667969 345.628906 C -67.273438 346.386719 -66.75 347.042969 -66.101562 347.601562 C -64.832031 348.679688 -62.867188 349.089844 -61.28125 349.898438 C -53.558594 353.832031 -43.667969 352.128906 -35.847656 358.523438 C -42.523438 373.332031 -51.886719 383.804688 -65.542969 390.382812 C -71.269531 393.144531 -77.179688 395.613281 -82.519531 399.011719 C -84.269531 400.089844 -85.023438 403.574219 -85.25 406.042969 C -85.519531 408.902344 -80.203125 413.128906 -77.527344 412.300781 C -66.382812 408.835938 -54.152344 408.308594 -45.058594 399.355469 C -41.230469 395.570312 -36.148438 393.089844 -31.867188 389.738281 C -26.871094 385.8125 -22.246094 381.421875 -17.230469 377.515625 C -13.183594 374.359375 -11.046875 368.414062 -4.652344 368.542969 C 2.144531 392.59375 -18.1875 433.675781 -52.113281 463.722656 C -55.429688 463.136719 -58.703125 462.359375 -61.929688 461.390625 C -77.570312 455.871094 -90.730469 446.089844 -103.996094 436.585938 C -108.367188 433.421875 -112.917969 430.546875 -117.652344 427.957031 C -118.632812 427.429688 -121.289062 428.605469 -122.246094 429.761719 C -122.710938 430.449219 -122.988281 431.210938 -123.078125 432.039062 C -123.167969 432.867188 -123.0625 433.667969 -122.753906 434.441406 C -115.785156 445.398438 -105.496094 452.96875 -95.390625 460.765625 C -87.839844 466.578125 -79.824219 471.746094 -72.972656 478.023438 C -79.296875 487.4375 -91.949219 487.609375 -96.199219 498.363281 C -92.832031 500.109375 -90.652344 502.03125 -88.238281 502.375 C -85.542969 502.800781 -82.828125 503.003906 -80.097656 502.984375 C -77.371094 502.964844 -74.660156 502.71875 -71.972656 502.25 C -69.28125 501.78125 -66.648438 501.09375 -64.074219 500.191406 C -61.5 499.289062 -59.015625 498.179688 -56.621094 496.863281 C -42.417969 489.097656 -29.257812 492.171875 -16.710938 499.636719 C -16.796875 506.105469 -20.164062 509.484375 -23.097656 512.804688 C -37.121094 528.605469 -52.835938 541.921875 -72.433594 550.722656 C -80.40625 554.292969 -90.480469 555.351562 -95.085938 564.660156 C -94.484375 568.671875 -92.207031 571.226562 -88.335938 571.949219 C -75.152344 574.441406 -62.867188 571.496094 -51.886719 564.324219 C -38.230469 555.414062 -23.570312 547.953125 -11.5 536.628906 C -8.6875 533.984375 -5.804688 529.511719 -0.605469 531.636719 C -0.101562 532.660156 0.761719 533.597656 0.558594 534.125 C -0.378906 536.640625 -1.09375 539.519531 -2.839844 541.40625 C -16.472656 556.136719 -31.242188 569.523438 -49.222656 578.875 C -60.515625 584.730469 -72.199219 589.960938 -82.972656 596.65625 C -94.582031 603.960938 -107.035156 609.308594 -120.328125 612.695312 C -122.796875 613.332031 -125.257812 614.074219 -127.683594 614.90625 C -117.738281 605.847656 -110.769531 595.882812 -103.425781 586.261719 C -102.808594 585.453125 -103.695312 582.722656 -104.699219 581.675781 C -105.699219 580.632812 -108.140625 579.671875 -109.28125 580.1875 C -117.640625 583.910156 -124.652344 589.625 -131.339844 595.828125 C -136.667969 600.765625 -142.128906 605.535156 -147.875 610.042969 C -158.566406 618.453125 -170.117188 621.074219 -183.667969 616.792969 C -196.609375 612.707031 -210.203125 610.742188 -223.273438 607.011719 C -235.507812 603.566406 -247.503906 599.429688 -259.257812 594.597656 C -265.871094 591.847656 -270.464844 586.335938 -269.464844 577.773438 C -265.765625 576.964844 -263.152344 575.875 -260.566406 575.917969 C -235.9375 576.339844 -211.667969 573.609375 -187.441406 569.167969 C -175.480469 567.007812 -164.605469 563.386719 -155.082031 555.988281 C -154.339844 555.4375 -153.703125 554.78125 -153.171875 554.027344 C -152.640625 553.269531 -152.242188 552.449219 -151.972656 551.566406 C -151.707031 550.679688 -151.582031 549.777344 -151.605469 548.851562 C -151.628906 547.929688 -151.792969 547.03125 -152.105469 546.164062 C -153.59375 542.011719 -157.109375 542.3125 -160.917969 543.777344 C -188.695312 554.457031 -217.40625 555.511719 -246.683594 552.664062 C -256.519531 551.707031 -265.441406 549.140625 -276.519531 544.328125 C -259.257812 539.625 -244.15625 536.457031 -229.738281 531.214844 C -218.949219 527.308594 -209.304688 525.820312 -198.132812 529.683594 C -171.910156 538.765625 -144.394531 536.8125 -117.230469 537.351562 C -111.753906 537.46875 -106.292969 536.972656 -101.582031 533.664062 C -99.335938 532.078125 -97.449219 530.027344 -98.59375 527.117188 C -99.195312 525.574219 -100.632812 523.601562 -102.035156 523.277344 C -115.183594 520.179688 -128.351562 517.160156 -141.609375 514.582031 C -154.867188 512.007812 -168.328125 509.933594 -181.519531 507.671875 C -181.640625 502.839844 -179.566406 499.992188 -176.871094 497.414062 C -170.949219 491.773438 -164.757812 486.382812 -159.277344 480.332031 C -156.042969 476.78125 -155.515625 472.285156 -159.601562 468.953125 C -180.097656 474.949219 -193.257812 494.328125 -214.613281 497.933594 C -226.800781 493.371094 -239.109375 489.765625 -250.46875 484.203125 C -262.539062 478.292969 -273.984375 470.808594 -280.671875 457.691406 C -264.046875 452.851562 -249.152344 452.460938 -236.089844 464.097656 C -235.320312 464.605469 -234.492188 464.964844 -233.597656 465.179688 C -229.789062 466.578125 -226.144531 466.050781 -224.289062 462.394531 C -223.210938 460.238281 -222.855469 456.765625 -223.910156 454.847656 C -225.5625 451.78125 -228.667969 449.507812 -231.226562 446.820312 C -227.742188 439.777344 -220.976562 436.714844 -214.453125 433.6875 C -202.671875 428.207031 -193.589844 419.09375 -183.753906 411.113281 C -178.523438 406.796875 -173.410156 401.070312 -176.117188 391.539062 C -190.074219 395.324219 -198.378906 407.089844 -210.234375 413.109375 C -223.4375 419.742188 -237.199219 423.484375 -252 426.339844 C -267.199219 415.253906 -276.90625 399.894531 -282.773438 382.585938 C -286.011719 372.878906 -292.332031 362.558594 -285.792969 351.460938 C -274.035156 352.410156 -269.925781 363.410156 -261.675781 368.640625 C -252.527344 374.445312 -243.339844 380.007812 -233.015625 383.503906 C -228.269531 372.449219 -228.140625 370.378906 -234.09375 367.035156 C -245.378906 360.671875 -255.539062 353.25 -262.140625 341.851562 C -275.300781 319.105469 -289.816406 296.984375 -289.449219 268.964844 C -289.355469 261.847656 -294.648438 257.988281 -303.355469 259.863281 C -303.894531 264.179688 -305.015625 268.632812 -304.929688 273.066406 C -304.648438 286.847656 -307.757812 300.167969 -310.65625 313.410156 C -319.222656 352.519531 -342.121094 382.046875 -373.933594 405.289062 C -376.867188 407.445312 -380.402344 408.878906 -382.980469 411.328125 C -387.371094 415.4375 -389.3125 420.152344 -383.371094 424.929688 C -371.503906 423.050781 -361.117188 417.636719 -351.011719 411.328125 C -340.222656 404.621094 -329.027344 398.546875 -317.960938 392.292969 C -314.832031 390.511719 -311.488281 389.058594 -306.882812 393.175781 C -306.742188 401.804688 -306.007812 411.792969 -306.546875 421.671875 C -307.398438 437.210938 -314.433594 448.558594 -328.640625 456.691406 C -342.542969 464.660156 -355.765625 466.398438 -369.996094 459.632812 C -377.339844 456.128906 -384.351562 451.890625 -391.449219 447.878906 C -396.972656 444.773438 -402.234375 441.148438 -407.921875 438.421875 C -411.535156 436.683594 -414.78125 438.367188 -417.1875 443.035156 C -412.277344 454.566406 -398.375 461.046875 -394.320312 475.875 C -405.828125 476.414062 -415.761719 476.953125 -425.695312 477.332031 C -434.789062 477.699219 -443.828125 478.164062 -452.664062 481.019531 C -455.628906 481.980469 -457.925781 483.933594 -457.882812 486.242188 C -457.882812 488.398438 -455.574219 492.074219 -453.816406 492.378906 C -436.042969 495.472656 -418.546875 500.464844 -399.972656 495.613281 C -389.582031 492.875 -378.398438 493.015625 -367.480469 492.527344 C -355.617188 491.988281 -340.351562 496.625 -326.492188 504.25 C -328.550781 507.21875 -330.246094 510.355469 -332.597656 512.878906 C -349.179688 531.042969 -367.222656 547.613281 -386.734375 562.585938 C -395.851562 569.511719 -404.371094 571.722656 -414.425781 567.503906 C -431.15625 560.472656 -449.449219 557.574219 -465.285156 548.148438 C -466.707031 547.292969 -469.425781 546.734375 -470.449219 547.5 C -472.304688 548.890625 -474.820312 551.8125 -474.386719 553.34375 C -473.296875 556.769531 -471.46875 559.734375 -468.898438 562.242188 C -462.425781 568.875 -453.320312 571.386719 -445.480469 575.886719 C -439.558594 579.292969 -431.316406 578.875 -427.390625 586.011719 C -432.007812 593.109375 -439.933594 593.21875 -446.257812 596.03125 C -456.515625 600.59375 -466.957031 604.757812 -477.375 608.972656 C -477.527344 606.816406 -479.53125 603.375 -481.019531 603.128906 C -503.996094 599.257812 -523.867188 588.527344 -542.902344 575.886719 C -546.410156 573.566406 -550.863281 571.484375 -549.277344 565.78125 C -536.226562 561.726562 -523.273438 557.59375 -510.242188 553.679688 C -501.925781 551.175781 -499.109375 545.117188 -498.710938 537.199219 C -498.527344 533.621094 -501.601562 530.730469 -505.292969 530.253906 C -513.003906 529.242188 -519.410156 532.066406 -525.894531 535.765625 C -529.460938 537.785156 -533.148438 539.554688 -536.960938 541.066406 C -540.773438 542.578125 -544.667969 543.820312 -548.652344 544.792969 C -552.636719 545.765625 -556.667969 546.460938 -560.746094 546.878906 C -564.824219 547.296875 -568.910156 547.429688 -573.007812 547.285156 C -578.867188 547.144531 -584.066406 545.332031 -587.300781 540.695312 C -591.691406 534.375 -598.820312 529.683594 -600.9375 519.996094 C -582.546875 519.179688 -565.425781 518.328125 -548.285156 517.699219 C -544.769531 517.570312 -541.230469 518.316406 -537.695312 518.5625 C -519.292969 519.867188 -501.816406 513.957031 -483.921875 511.390625 C -482.476562 511.1875 -481.324219 508.996094 -480.050781 507.714844 C -478.550781 506.214844 -479.800781 501.449219 -481.949219 500.917969 C -484.484375 500.28125 -487.34375 499.011719 -489.628906 499.625 C -512.917969 505.921875 -536.648438 504.089844 -560.195312 503.121094 C -580.34375 502.277344 -599.351562 495.40625 -617.761719 487.46875 C -627.976562 483.070312 -630.082031 479.101562 -631.160156 466.871094 C -624.9375 466.160156 -618.691406 464.929688 -612.433594 464.832031 C -593.082031 464.542969 -574.746094 459.105469 -556.464844 453.820312 C -552.050781 452.574219 -547.777344 450.964844 -543.640625 448.988281 C -539.503906 447.015625 -535.5625 444.703125 -531.820312 442.054688 C -528.078125 439.40625 -524.589844 436.460938 -521.347656 433.214844 C -518.109375 429.96875 -515.171875 426.476562 -512.527344 422.726562 C -510.46875 419.890625 -508.214844 416.839844 -510.683594 413.023438 C -511.320312 412.558594 -512.226562 411.480469 -512.625 411.640625 C -518.484375 414.066406 -524.285156 416.613281 -530.078125 419.191406 C -540.867188 423.988281 -551.242188 429.976562 -562.4375 433.425781 C -584.152344 440.179688 -605.585938 439.132812 -625.214844 426.15625 C -632.90625 421.066406 -639.410156 414.421875 -640.457031 404.585938 C -642.078125 389.347656 -643.261719 374.054688 -644.773438 357.1875 C -635.765625 359.34375 -633.804688 365.050781 -630.039062 368.804688 C -616.523438 382.199219 -603.136719 395.863281 -589.535156 409.234375 C -584.917969 413.777344 -579.363281 417.261719 -572.503906 416.3125 C -570.054688 415.976562 -566.742188 414.457031 -565.824219 412.527344 C -564.910156 410.59375 -565.824219 406.054688 -567.324219 405.265625 C -591.519531 392.984375 -602.058594 368.867188 -616.761719 348.441406 C -621.496094 341.839844 -624.980469 334.3125 -628.710938 327.042969 C -629.929688 324.648438 -629.917969 321.769531 -626.898438 319.234375 C -623.664062 321.976562 -619.984375 324.542969 -616.910156 327.667969 C -593.890625 351.050781 -564.660156 363.398438 -534.640625 374.421875 C -528.363281 376.730469 -524.328125 374.929688 -522.019531 368.71875 C -533.132812 360.832031 -544.804688 353.886719 -557.035156 347.878906 C -580.441406 336.640625 -598.59375 318.964844 -613.234375 297.785156 C -616.957031 292.429688 -620.125 286.765625 -622.746094 280.789062 C -625.363281 274.816406 -627.382812 268.648438 -628.796875 262.28125 C -626.457031 259.445312 -625.261719 259.917969 -623.316406 261.296875 C -615.199219 267.050781 -606.992188 272.714844 -598.691406 278.296875 C -595.707031 280.375 -592.542969 282.132812 -589.199219 283.570312 C -588.890625 283.707031 -588.570312 283.816406 -588.242188 283.894531 C -587.910156 283.972656 -587.578125 284.019531 -587.238281 284.039062 C -586.902344 284.054688 -586.5625 284.042969 -586.226562 283.996094 C -585.890625 283.953125 -585.5625 283.878906 -585.242188 283.773438 C -584.917969 283.667969 -584.609375 283.535156 -584.308594 283.375 C -584.011719 283.214844 -583.730469 283.027344 -583.46875 282.8125 C -583.203125 282.601562 -582.960938 282.367188 -582.742188 282.109375 C -582.523438 281.851562 -582.328125 281.574219 -582.15625 281.28125 C -580.601562 278.890625 -579.75 276.074219 -581.769531 273.839844 C -600.0625 253.644531 -616.5625 232.074219 -631.269531 209.132812 C -641.761719 192.726562 -650.339844 176.203125 -652.117188 156.628906 C -652.34375 154.117188 -654.101562 151.746094 -655.09375 149.4375 C -664.371094 150.160156 -667.027344 151.59375 -667.046875 156.714844 C -667.144531 176.734375 -667.652344 196.78125 -666.679688 216.746094 C -666.316406 223.136719 -666.832031 229.460938 -668.21875 235.710938 C -669.609375 241.960938 -671.820312 247.90625 -674.855469 253.542969 C -683.484375 269.398438 -691.933594 285.617188 -705.46875 298.410156 C -719.308594 311.46875 -731.292969 326.503906 -747.308594 337.234375 C -748.390625 337.957031 -748.3125 340.386719 -748.886719 342.378906 C -739.578125 346.230469 -731.625 343.371094 -723.40625 338.539062 C -706.148438 328.390625 -690.851562 315.773438 -676.226562 301.136719 C -672.257812 317.230469 -672.03125 317.316406 -676.109375 327.949219 C -680.984375 340.675781 -686.300781 353.25 -691.46875 365.871094 C -696.332031 377.734375 -703.550781 388.207031 -710.882812 398.632812 C -716.007812 405.902344 -722.089844 410.605469 -731.378906 409.417969 C -754.6875 406.324219 -778.539062 407.585938 -801.394531 400.726562 C -802.226562 400.46875 -803.074219 400.367188 -803.945312 400.425781 C -804.8125 400.480469 -805.640625 400.695312 -806.433594 401.0625 C -807.132812 401.535156 -807.691406 402.140625 -808.105469 402.878906 C -808.523438 403.617188 -808.75 404.410156 -808.792969 405.257812 C -808.308594 410.445312 -804.296875 412.945312 -799.992188 414.53125 C -782.355469 421.003906 -764.632812 427.289062 -745.402344 434.191406 C -753.183594 440.234375 -761.449219 445.515625 -770.203125 450.039062 C -778.957031 454.5625 -788.046875 458.25 -797.480469 461.101562 C -802.277344 462.546875 -807.8125 464.863281 -809.148438 471.226562 C -810.011719 475.304688 -802.355469 477.179688 -792.96875 475.789062 C -782.765625 474.269531 -773.738281 469.601562 -765.496094 464.230469 C -751.074219 454.824219 -734.925781 448.320312 -721.875 436.5 C -713.179688 428.628906 -697.636719 429.371094 -683.820312 436.414062 C -694.738281 460.9375 -713.796875 476.910156 -737.300781 488.183594 C -745.476562 492.117188 -754.128906 495.03125 -762.574219 498.417969 C -766.21875 499.882812 -768.355469 502.277344 -767.503906 506.515625 C -763.847656 509.980469 -759.152344 510.160156 -754.699219 509.816406 C -741.839844 508.804688 -730.582031 502.105469 -718.445312 498.902344 C -693.019531 492.214844 -677.898438 472.144531 -659.832031 455.933594 C -655.613281 460.5625 -656.390625 464.875 -658.472656 469.113281 C -663.457031 479.285156 -672.183594 485.9375 -680.941406 492.464844 C -709.449219 513.710938 -741.152344 525.660156 -777.09375 524.097656 C -784.242188 523.792969 -791.289062 521.378906 -798.40625 520.117188 C -807.035156 518.585938 -815.664062 517.195312 -824.1875 521.261719 C -820 530.058594 -812.019531 530.511719 -805.34375 532.324219 C -770.71875 541.699219 -735.671875 543.953125 -700.226562 537.144531 C -694.832031 536.121094 -689.375 534.988281 -684.046875 535.246094 C -678.921875 535.507812 -674.1875 529.597656 -668.632812 534.71875 C -675.105469 557.195312 -690.660156 573.878906 -705.15625 591.199219 C -710.820312 597.960938 -718.617188 600.085938 -727.28125 598.511719 C -738.875 596.355469 -750.480469 594.339844 -762.023438 591.945312 C -780.683594 588.0625 -799.269531 583.714844 -817.984375 580.082031 C -821.4375 579.402344 -826.613281 577.007812 -828.996094 582.960938 C -824.335938 589.238281 -817.996094 592.667969 -810.984375 594.824219 C -796.226562 599.289062 -781.191406 602.902344 -766.628906 607.90625 C -757.613281 611.011719 -747.128906 611.734375 -740.117188 620.125 C -747.589844 628.3125 -756.480469 632.777344 -766.003906 636.023438 C -776.292969 639.515625 -786.679688 642.710938 -797.070312 645.914062 C -804.921875 648.328125 -809.441406 652.277344 -807.78125 655.707031 C -804.726562 661.960938 -798.65625 660.742188 -793.507812 660.699219 C -782.464844 660.601562 -771.871094 657.710938 -761.828125 653.3125 C -746.039062 646.375 -729.859375 640.011719 -716.007812 629.445312 C -709.957031 624.839844 -703.644531 621.753906 -696.09375 621.785156 C -691.714844 621.785156 -687.097656 622.132812 -685.09375 628.496094 C -690.625 639.765625 -699.675781 648.78125 -710.582031 655.285156 C -728.445312 665.941406 -742.433594 682.699219 -763.285156 688.644531 C -764.234375 688.914062 -765.074219 691.878906 -764.839844 693.34375 C -764.667969 694.199219 -764.320312 694.976562 -763.796875 695.675781 C -763.273438 696.371094 -762.625 696.921875 -761.851562 697.324219 C -759.714844 698.097656 -757.519531 698.632812 -755.269531 698.933594 C -753.015625 699.230469 -750.757812 699.289062 -748.492188 699.101562 C -746.230469 698.917969 -744.011719 698.492188 -741.839844 697.828125 C -739.667969 697.164062 -737.589844 696.277344 -735.605469 695.167969 C -723.65625 688.632812 -711.671875 682.160156 -699.71875 675.636719 C -696.484375 673.878906 -693.335938 672.132812 -689.398438 677.792969 C -697.855469 690.5625 -699.570312 707.667969 -712.050781 720.859375 C -723.914062 722.410156 -737.042969 727.144531 -748.90625 725.019531 C -770.726562 721.105469 -792.410156 723.1875 -814.101562 722.03125 C -817.238281 721.859375 -821.15625 720.953125 -823.203125 725.007812 C -821.046875 731.738281 -815.902344 735.609375 -809.679688 737.371094 C -800.089844 740.066406 -790.542969 743.085938 -780.316406 743.011719 C -771.234375 743.011719 -762.132812 743.730469 -753.050781 744.195312 C -746.578125 744.53125 -740.363281 745.664062 -736.058594 751.269531 C -736.820312 752.90625 -737.679688 754.488281 -738.636719 756.015625 C -750.210938 772.128906 -765.324219 776.851562 -784.007812 770.035156 C -788.320312 768.460938 -792.539062 766.800781 -796.949219 765.636719 C -799.609375 765.011719 -802.308594 764.699219 -805.039062 764.699219 C -805.460938 764.773438 -805.847656 764.9375 -806.191406 765.191406 C -806.535156 765.445312 -806.808594 765.761719 -807.003906 766.144531 C -807.46875 767.609375 -808.082031 769.585938 -807.488281 770.726562 C -802.09375 780.953125 -788.460938 781.027344 -781.933594 791.597656 C -784.351562 794.011719 -786.488281 797.054688 -789.390625 798.863281 C -799.429688 805.132812 -809.882812 810.535156 -821.371094 813.964844 C -826.550781 815.570312 -831.625 817.464844 -836.589844 819.648438 C -840.03125 821.105469 -842.933594 826.992188 -841.089844 828.144531 C -838.867188 829.539062 -836.222656 831.089844 -833.753906 831.101562 C -825.511719 831.101562 -817.507812 829.730469 -810.140625 825.546875 C -799.085938 819.269531 -787.210938 814.160156 -776.953125 806.804688 C -765.753906 798.777344 -754.300781 795.941406 -741.054688 798.433594 C -734.820312 799.609375 -728.457031 800.105469 -722.175781 801.066406 C -704.097656 803.816406 -686.148438 805.378906 -668.664062 797.710938 C -665.644531 796.382812 -662.03125 796.382812 -658.957031 795.824219 C -652.851562 808.765625 -652.3125 821.265625 -652.042969 834.011719 C -651.515625 859.488281 -650.15625 884.929688 -649.5625 910.394531 C -649.511719 914.488281 -649.011719 918.53125 -648.058594 922.515625 C -647.109375 926.503906 -645.726562 930.335938 -643.921875 934.011719 C -641.667969 938.550781 -637.222656 939.964844 -632.421875 939.585938 C -625.488281 939.046875 -620.816406 935.164062 -617.65625 929.0625 C -616.027344 925.777344 -614.890625 922.328125 -614.246094 918.71875 C -613.605469 915.109375 -613.484375 911.480469 -613.878906 907.835938 C -614.773438 897.050781 -616.976562 886.265625 -617.300781 875.480469 C -618.183594 845.5 -618.476562 815.496094 -618.753906 785.492188 C -618.753906 781.664062 -620.914062 776.59375 -615.238281 774.394531 C -587.03125 797.949219 -562.65625 811.914062 -528.179688 824.070312 C -522.21875 826.308594 -516.128906 828.105469 -509.90625 829.460938 C -505.59375 830.324219 -500.902344 829.828125 -496.390625 829.699219 C -493.511719 829.613281 -488.214844 824.511719 -489.164062 822.699219 C -490.363281 820.433594 -492.164062 817.726562 -494.34375 816.886719 C -498.527344 815.300781 -503.199219 815.054688 -507.597656 813.964844 C -518.265625 811.34375 -528.484375 807.570312 -537.542969 801.207031 C -551.683594 791.273438 -565.730469 781.210938 -579.804688 771.179688 C -580.589844 770.667969 -581.300781 770.0625 -581.933594 769.371094 C -582.566406 768.679688 -583.105469 767.921875 -583.550781 767.097656 C -583.996094 766.269531 -584.332031 765.402344 -584.558594 764.492188 C -584.789062 763.582031 -584.898438 762.660156 -584.894531 761.722656 C -582.425781 761.042969 -579.871094 759.78125 -577.347656 759.738281 C -561.886719 759.488281 -546.410156 758.894531 -530.964844 759.585938 C -509.800781 760.546875 -489.5625 754.570312 -468.84375 752.359375 C -463.535156 751.789062 -458.207031 749.675781 -453.320312 747.34375 C -452.554688 746.984375 -451.859375 746.519531 -451.230469 745.953125 C -411.511719 752.921875 -372.355469 754.085938 -333.847656 739.710938 C -331.238281 738.820312 -328.566406 738.519531 -325.824219 738.804688 C -324.355469 738.933594 -323.019531 740.648438 -320.679688 742.320312 C -323.179688 745.953125 -325.175781 750.136719 -328.292969 753.179688 C -365.625 789.621094 -356.511719 791.476562 -413.128906 784.347656 C -438.253906 781.175781 -463.761719 780.972656 -488.386719 774.046875 C -489.628906 773.703125 -492.347656 775.203125 -492.875 776.464844 C -493.8125 778.730469 -494.601562 781.976562 -493.621094 783.875 C -491.847656 787.097656 -489.460938 789.78125 -486.46875 791.917969 C -472.984375 801.863281 -457.464844 806.707031 -441.078125 809.121094 C -430.355469 810.695312 -419.300781 810.867188 -409.550781 817.179688 C -413.109375 825.664062 -422.082031 826.59375 -428.675781 830.625 C -432.460938 832.945312 -437.304688 833.601562 -439.804688 837.84375 C -440.253906 838.585938 -440.554688 839.382812 -440.707031 840.234375 C -440.859375 841.089844 -440.851562 841.941406 -440.691406 842.792969 C -440.390625 843.605469 -439.933594 844.320312 -439.316406 844.9375 C -438.703125 845.550781 -437.988281 846.007812 -437.171875 846.308594 C -431.78125 847.710938 -426.59375 846.707031 -421.230469 845.015625 C -400.304688 838.425781 -380.898438 828.664062 -362.335938 816.832031 C -353.027344 822.871094 -342.199219 816.402344 -333.296875 821.425781 C -333.296875 826.085938 -335.5625 828.816406 -338.121094 831.46875 C -347.222656 841.046875 -357.007812 849.867188 -367.472656 857.9375 C -377.933594 866.007812 -388.957031 873.230469 -400.53125 879.601562 C -417.285156 888.726562 -433.96875 897.9375 -452.585938 903.210938 C -456.15625 904.222656 -461.140625 906.445312 -458.5625 913.996094 C -438.898438 914.511719 -419.289062 913.648438 -400.1875 906.519531 C -372.648438 896.253906 -347.558594 882.125 -326.113281 861.742188 C -322.683594 858.507812 -319.523438 852.519531 -311.292969 856.726562 C -311.292969 860.46875 -311.359375 864.921875 -311.292969 869.367188 C -310.742188 900.296875 -309.945312 931.21875 -309.699219 962.117188 C -309.613281 972.417969 -307.9375 981.949219 -302.09375 990.566406 C -298.597656 995.710938 -288.71875 995.625 -285.816406 989.976562 C -281.683594 981.949219 -279.007812 973.796875 -279.828125 964.089844 C -281.414062 945.121094 -281.40625 926.007812 -281.761719 906.929688 C -281.824219 903.695312 -282.171875 899.382812 -275.558594 898.582031 C -268.203125 905.160156 -260.273438 912.507812 -252.066406 919.515625 C -243.523438 926.816406 -232.648438 929.222656 -222.335938 932.640625 C -207.03125 937.785156 -203.664062 937.269531 -192.867188 931.1875 C -193.117188 930.335938 -193.082031 929.179688 -193.644531 928.664062 C -195.609375 926.859375 -197.507812 924.660156 -199.878906 923.703125 C -226.738281 912.765625 -247.4375 893.847656 -266.324219 872.632812 C -269.019531 869.613281 -272.859375 866.164062 -268.890625 859.886719 C -249.140625 858.894531 -230.363281 861.441406 -213.621094 875.382812 C -203.914062 883.441406 -192.609375 889.921875 -181.164062 895.28125 C -167.238281 901.808594 -152.515625 906.703125 -137.910156 911.644531 C -133.832031 913.023438 -128.925781 912.3125 -124.4375 911.96875 C -123.121094 911.871094 -121.332031 909.929688 -120.898438 908.484375 C -120.710938 907.628906 -120.710938 906.773438 -120.898438 905.917969 C -121.085938 905.058594 -121.445312 904.285156 -121.976562 903.585938 C -123.714844 901.625 -125.949219 899.273438 -128.320312 898.84375 C -150.21875 894.332031 -168.230469 881.703125 -187.152344 871.027344 C -190.277344 869.257812 -193.417969 867.230469 -193.925781 863.078125 C -192.941406 861.742188 -192.230469 859.714844 -190.894531 859.152344 C -185.898438 856.996094 -180.734375 855.28125 -175.554688 853.597656 C -164.359375 849.964844 -153.042969 846.652344 -141.921875 842.8125 C -137.660156 841.1875 -133.621094 839.117188 -129.808594 836.613281 C -127.542969 835.230469 -125.085938 832.957031 -126.21875 829.992188 C -127.714844 826.03125 -131.425781 825.675781 -135.171875 826.28125 C -137.84375 826.753906 -140.726562 826.960938 -143.109375 828.113281 C -167.132812 839.71875 -192.898438 836.925781 -218.269531 837.5625 C -223.902344 837.703125 -229.335938 837.171875 -233.46875 833 C -242.929688 823.453125 -253.519531 814.890625 -261.113281 803.878906 C -255.074219 796.976562 -250.210938 803.320312 -245.28125 802.984375 C -225.269531 801.660156 -205.746094 804.816406 -186.125 808.28125 C -159.730469 812.9375 -133.628906 808.203125 -107.675781 803.523438 C -102.054688 802.511719 -98.042969 798.726562 -95.453125 793.515625 C -95.046875 792.554688 -94.898438 791.554688 -95.011719 790.515625 C -91.734375 789.917969 -88.496094 789.140625 -85.304688 788.1875 C -60.765625 780.789062 -37.960938 769.851562 -17.703125 753.914062 C -11.230469 748.855469 -4.652344 744.054688 1.960938 739.234375 C 8.257812 734.628906 13.996094 728.957031 23.261719 726.765625 C 26.84375 737.011719 28.375 746.492188 27.167969 755.28125 C 7.503906 783.429688 -16.925781 802.660156 -48.941406 811.582031 C -56.804688 813.738281 -64.703125 815.894531 -72.425781 818.546875 C -75.796875 819.820312 -78.898438 821.574219 -81.722656 823.8125 C -82.328125 824.402344 -82.773438 825.101562 -83.054688 825.898438 C -83.335938 826.699219 -83.429688 827.519531 -83.328125 828.363281 C -82.785156 830.109375 -81.742188 831.480469 -80.203125 832.472656 C -78.675781 833.515625 -76.988281 834.0625 -75.144531 834.109375 C -43.59375 834.011719 -13.832031 828.15625 11.019531 806.878906 C 13.78125 804.515625 16.347656 801.886719 19.261719 799.71875 C 21.699219 797.90625 23.273438 793.386719 28.570312 796.914062 C 29.011719 804.460938 29.003906 812.625 30.089844 820.640625 C 31.191406 829.628906 31.722656 838.652344 31.6875 847.710938 C 32.074219 884.054688 33.640625 920.390625 34.644531 956.734375 C 34.816406 963.207031 35.203125 969.34375 38.6875 975.070312 C 41.265625 979.382812 44.460938 981.722656 49.527344 981.722656 C 62.539062 981.722656 69.367188 975.675781 66.710938 963.390625 C 61.082031 937.269531 63.140625 910.953125 62.570312 884.660156 C 61.804688 849.273438 64.058594 813.757812 57.660156 778.609375 C 56.398438 771.675781 63.226562 767.296875 70.226562 769.507812 C 77.605469 771.835938 82.902344 776.980469 87.402344 782.449219 C 96.308594 793.234375 107.34375 800.785156 119.761719 806.921875 C 123.820312 808.953125 127.675781 811.316406 131.335938 814.007812 C 141.851562 821.652344 154.203125 824.921875 166.273438 828.730469 C 168.160156 829.320312 172.03125 827.648438 173.035156 825.859375 C 174.039062 824.070312 173.273438 820.21875 171.804688 818.710938 C 167.980469 814.832031 163.773438 811.429688 159.183594 808.496094 C 146.976562 800.535156 137.214844 790.160156 125.207031 777.285156 C 132.046875 775.527344 134.582031 774.535156 137.191406 774.253906 C 158.386719 772 177.621094 764.191406 195.839844 753.566406 C 197.988281 752.421875 199.988281 751.054688 201.835938 749.46875 C 218.242188 749.773438 234.53125 749.589844 251 746.480469 C 283.628906 740.335938 314.382812 730.769531 340.84375 709.867188 C 348.394531 703.914062 356.09375 698.003906 366.160156 693.246094 C 366.4375 698.542969 366.320312 702.167969 366.882812 705.683594 C 369.039062 719.097656 362.773438 728.6875 352.566406 735.988281 C 337.746094 746.578125 322.539062 755.769531 303.597656 758.539062 C 290.082031 760.523438 276.628906 762.023438 263.027344 762.855469 C 254.789062 763.351562 246.847656 764.148438 239.027344 770.316406 C 242.597656 772.539062 245.285156 775.375 248.378906 775.925781 C 257.296875 777.601562 266.285156 778.679688 275.347656 779.160156 C 305.65625 780.550781 334.671875 773.769531 362.222656 762.886719 C 364.121094 765.355469 366.082031 766.726562 366.082031 768.085938 C 366.082031 792.632812 366.246094 817.179688 365.457031 841.703125 C 364.898438 858.957031 366.859375 875.945312 368.121094 893.027344 C 368.292969 895.367188 370.734375 897.417969 373.925781 897.773438 C 382.554688 898.746094 389.101562 894.722656 389.824219 886.933594 C 390.273438 880.589844 390.402344 874.238281 390.214844 867.878906 C 390.050781 841.5 389.792969 815.117188 389.585938 788.738281 C 389.585938 784.199219 389.371094 779.59375 392.75 775.859375 C 394.484375 776.035156 396.296875 776.078125 398.054688 776.410156 C 435.257812 783.441406 435.429688 783.25 465.074219 808.3125 C 480.550781 821.40625 499.125 828.394531 515.769531 837.636719 C 521.703125 833.625 522.878906 829.136719 518.703125 825.621094 C 512.492188 820.390625 505.273438 816.367188 498.585938 811.699219 C 487.636719 804.074219 485.71875 801.765625 478.089844 788.035156 C 481.328125 783.960938 486.050781 784.347656 490.386719 783.894531 C 511.476562 781.738281 530.4375 772.765625 549.867188 765.355469 C 550.6875 764.839844 551.25 764.121094 551.546875 763.199219 C 569.53125 764.96875 586.863281 759.660156 604.5 757.804688 C 630.699219 755.046875 656.675781 750.65625 680.847656 739.417969 C 683.746094 738.085938 686.761719 737.140625 689.902344 736.574219 C 693.039062 736.007812 696.199219 735.839844 699.378906 736.074219 C 707.554688 736.515625 715.742188 737.035156 723.863281 738.015625 C 724.546875 738.097656 725.191406 738.289062 725.808594 738.59375 C 726.421875 738.894531 726.96875 739.292969 727.445312 739.785156 C 727.921875 740.273438 728.304688 740.832031 728.59375 741.453125 C 728.878906 742.074219 729.054688 742.726562 729.117188 743.410156 C 728.988281 744.273438 728.703125 745.082031 728.253906 745.835938 C 707.761719 767.492188 681.515625 779.820312 654.5625 790.851562 C 649.394531 793.007812 643.65625 791.519531 638.929688 788.285156 C 630.691406 782.632812 622.828125 776.421875 614.390625 771.027344 C 610.21875 768.386719 606.097656 763.792969 600.097656 766.628906 C 596.433594 771.308594 598.632812 775.160156 601.542969 778.871094 C 606.9375 785.792969 617.054688 788.253906 621.15625 797.734375 C 617.984375 799.535156 615.933594 801.390625 613.605469 801.917969 C 603.894531 804.074219 594.046875 805.832031 584.253906 807.707031 C 576.789062 809.132812 571.308594 813.175781 572.753906 816.507812 C 575.375 822.65625 581.136719 822.980469 586.574219 822.820312 C 595.632812 822.636719 604.707031 822.097656 613.746094 821.382812 C 624.617188 820.53125 635.445312 819.140625 646.332031 818.40625 C 649.902344 818.210938 653.355469 818.765625 656.6875 820.066406 C 674.203125 827.109375 691.589844 834.476562 707.976562 843.117188 C 707.640625 845.21875 707.824219 846.566406 707.308594 846.957031 C 690.363281 859.316406 672.433594 869.710938 651.378906 873.269531 C 639.773438 875.222656 628.078125 876.65625 616.441406 878.425781 C 611.714844 879.136719 607.726562 880.929688 607.058594 886.472656 C 630.96875 894.796875 671.917969 890.71875 723.863281 874.132812 C 724.082031 882.058594 724.414062 887.386719 724.339844 892.707031 C 724.039062 914.542969 723.585938 936.375 723.261719 958.214844 C 723.164062 964.542969 727.003906 968.277344 732.386719 970.367188 C 744.746094 975.1875 754.789062 969.503906 756.03125 956.636719 C 756.507812 950.289062 756.371094 943.949219 755.621094 937.625 C 755.199219 933.214844 753.722656 929.148438 754.078125 924.359375 C 755.480469 905.5625 755.890625 886.699219 756.871094 867.867188 C 757.054688 864.382812 758.1875 860.953125 758.757812 858.160156 C 764.941406 856.339844 768.273438 859.636719 771.832031 862.476562 C 782.714844 870.941406 795.132812 876.570312 807.796875 881.703125 C 811.9375 883.375 817.019531 886.394531 820.253906 882.015625 C 825.085938 875.546875 817.847656 872.808594 814.332031 869.472656 C 807.761719 863.21875 801.042969 857.082031 793.957031 851.429688 C 783.957031 843.449219 774.367188 835.101562 766.839844 824.695312 C 764.949219 822.085938 761.898438 819.066406 766.96875 813.910156 C 782.070312 814.914062 797.539062 817.566406 811.550781 827.46875 C 826.378906 838.167969 842.34375 846.769531 859.441406 853.265625 C 867.292969 856.164062 875.09375 857.707031 883.257812 855.691406 C 884.445312 855.398438 885.296875 853.144531 885.945312 851.648438 C 886.03125 851.21875 886.011719 850.792969 885.878906 850.375 C 885.75 849.957031 885.527344 849.597656 885.210938 849.296875 C 880.710938 846.335938 876.0625 843.628906 871.261719 841.183594 C 862.527344 837.066406 853.445312 833.636719 847.15625 826.9375 C 849.171875 821.296875 852.773438 820.335938 856.421875 820.015625 C 865.480469 819.195312 874.554688 818.386719 883.648438 818.117188 C 888.632812 818.054688 893.558594 817.46875 898.417969 816.359375 C 903.28125 815.246094 907.972656 813.636719 912.488281 811.527344 C 913.570312 810.988281 914.519531 808.464844 914.269531 807.082031 C 914.023438 805.703125 912.414062 804.160156 911.035156 803.449219 C 909.363281 802.6875 907.613281 802.382812 905.78125 802.53125 C 877.519531 804.148438 849.496094 802.058594 821.582031 797.558594 C 815.269531 796.535156 808.152344 796.988281 803.535156 792.382812 C 788.304688 777.199219 771.175781 763.265625 763.859375 742.027344 C 767.863281 737.714844 771.25 741.304688 773.988281 742.351562 C 802.789062 753.40625 830.941406 766.078125 860.59375 774.988281 C 879.828125 780.777344 899.179688 784.964844 919.15625 786.375 C 921.882812 786.539062 924.539062 786.179688 927.128906 785.296875 C 927.875 784.941406 928.5 784.429688 929 783.765625 C 929.5 783.105469 929.816406 782.363281 929.953125 781.542969 C 929.902344 780.65625 929.648438 779.835938 929.191406 779.074219 C 928.734375 778.3125 928.125 777.703125 927.363281 777.242188 Z M -667.597656 397.792969 C -669.128906 400.347656 -674.070312 400.089844 -678.136719 396.101562 C -674.976562 385.746094 -669.332031 376.515625 -659.796875 367.152344 C -655.808594 380.613281 -662.460938 389.230469 -667.597656 397.792969 Z M -652.765625 757.191406 C -653.84375 762.261719 -657.738281 764.578125 -662.214844 765.820312 C -681.21875 771.210938 -700.152344 777.328125 -721.789062 773.585938 C -721.445312 772.257812 -721.015625 770.957031 -720.503906 769.683594 C -719.992188 768.410156 -719.398438 767.171875 -718.726562 765.976562 C -718.050781 764.78125 -717.304688 763.632812 -716.484375 762.53125 C -715.660156 761.433594 -714.769531 760.390625 -713.8125 759.40625 C -712.855469 758.421875 -711.839844 757.503906 -710.761719 756.652344 C -709.6875 755.800781 -708.558594 755.023438 -707.382812 754.316406 C -706.203125 753.609375 -704.984375 752.984375 -703.726562 752.4375 C -702.46875 751.890625 -701.179688 751.425781 -699.859375 751.042969 C -685.515625 746.730469 -670.011719 746.191406 -655.363281 744.097656 C -651.296875 748.273438 -651.828125 752.738281 -652.765625 757.191406 Z M -313.957031 543.714844 C -305.683594 559.71875 -307.820312 562.8125 -332.035156 566.804688 C -326.675781 555.835938 -321.046875 549.367188 -313.957031 543.714844 Z M -309.480469 683.648438 C -309.6875 684.992188 -310.097656 686.265625 -310.707031 687.476562 C -311.320312 688.6875 -312.105469 689.773438 -313.0625 690.734375 C -329.597656 704.992188 -346.449219 718.429688 -368.160156 724.804688 C -399.367188 733.960938 -430.3125 737.542969 -462.003906 727.253906 C -473.191406 723.609375 -484.753906 721.148438 -496.175781 718.28125 C -497.050781 718.027344 -497.941406 717.914062 -498.851562 717.945312 C -499.761719 717.972656 -500.644531 718.144531 -501.503906 718.453125 C -502.359375 718.761719 -503.148438 719.195312 -503.867188 719.753906 C -504.585938 720.3125 -505.199219 720.96875 -505.710938 721.71875 C -508.148438 724.957031 -506.109375 730.714844 -501.496094 733.023438 C -498.160156 734.671875 -494.746094 736.140625 -491.257812 737.433594 C -503.566406 737.972656 -515.90625 737.21875 -528.265625 736.355469 C -531.914062 736.117188 -535.300781 735.160156 -534.058594 729.214844 C -505.582031 720.210938 -482.066406 701.046875 -456.179688 686.335938 C -454.503906 685.511719 -453.152344 684.320312 -452.125 682.765625 C -450.839844 680.421875 -450.039062 677.921875 -449.71875 675.269531 C -449.511719 673.296875 -456.136719 671.289062 -459.15625 672.433594 C -486.261719 682.777344 -513.328125 693.238281 -540.445312 703.515625 C -558.296875 710.289062 -576.214844 716.652344 -595.457031 718.90625 C -603.234375 719.820312 -609.835938 717.828125 -616.445312 714.992188 C -621.105469 712.984375 -622.519531 708.519531 -622.507812 703.699219 C -622.507812 699.566406 -618.195312 694.886719 -613.511719 695.222656 C -593.234375 696.65625 -573.863281 690.777344 -554.1875 688.015625 C -539.820312 685.851562 -525.742188 682.476562 -511.957031 677.890625 C -506.292969 676.144531 -500.859375 673.855469 -495.652344 671.019531 C -490.449219 668.183594 -485.578125 664.859375 -481.042969 661.042969 C -478.28125 658.671875 -476.4375 654.917969 -478.886719 651.335938 C -480.210938 649.429688 -482.996094 648.542969 -485.550781 646.925781 C -504.839844 662.78125 -527.738281 669.425781 -551.351562 671.257812 C -575.253906 673.113281 -599.976562 675.570312 -623.824219 663.707031 L -623.824219 632.925781 C -623.824219 629.410156 -623.824219 625.734375 -618.703125 623.675781 C -607.65625 627.816406 -597.410156 636.175781 -584.691406 638.148438 C -571.972656 640.121094 -560.410156 646.160156 -547.378906 645.695312 C -535.179688 645.234375 -522.570312 648.792969 -510.707031 643.152344 C -512.410156 635.128906 -517.953125 634.417969 -523.378906 633.445312 C -554.25 628.054688 -582.554688 616.136719 -608.59375 598.933594 C -613.804688 595.503906 -618.25 590.703125 -622.378906 585.992188 C -623.847656 584.296875 -624.203125 580.597656 -623.457031 578.324219 C -622.914062 577.171875 -622.144531 576.203125 -621.148438 575.414062 C -620.148438 574.625 -619.027344 574.101562 -617.785156 573.835938 C -599.449219 571.917969 -581.605469 572.335938 -566.105469 584.988281 C -559.839844 590.101562 -551.867188 593.089844 -545.203125 597.78125 C -532.257812 606.894531 -517.210938 610.65625 -502.625 615.585938 C -499.691406 616.59375 -496.671875 617.207031 -493.578125 617.429688 C -493.75 617.867188 -493.890625 618.316406 -493.996094 618.777344 C -494.730469 622.304688 -491.636719 623.769531 -489.285156 623.910156 C -477.90625 624.515625 -466.601562 623.84375 -455.375 621.902344 C -444.148438 619.960938 -433.277344 616.792969 -422.761719 612.402344 C -395.300781 601.164062 -367.828125 594.144531 -338.085938 597.511719 C -331.085938 598.296875 -323.699219 594.457031 -315.835938 599.785156 C -320.453125 619.003906 -328.777344 636.453125 -342.015625 650.789062 C -370.382812 653.171875 -378.246094 652.566406 -402.042969 644.878906 C -410.746094 642.0625 -419.300781 639.140625 -428.566406 639.269531 C -432.976562 639.332031 -438.4375 638.707031 -439.664062 644.242188 C -440.808594 649.40625 -436.179688 652.328125 -432.382812 654.679688 C -426.234375 658.488281 -420.085938 662.121094 -412.515625 663.179688 C -401.742188 664.617188 -391.105469 666.75 -380.609375 669.574219 C -375.949219 670.871094 -369.691406 670.328125 -366.800781 676.867188 C -381.125 691.898438 -403.90625 690.648438 -419.441406 703.039062 C -419.257812 705.113281 -419.773438 707.558594 -418.847656 708.378906 C -413.292969 713.308594 -406.59375 716.480469 -399.246094 714.148438 C -381.039062 708.367188 -362.789062 702.222656 -349.070312 687.941406 C -340.351562 678.871094 -328.917969 676.078125 -317.527344 673.210938 C -315.511719 672.703125 -311.960938 674.289062 -310.679688 676.023438 C -309.394531 677.761719 -309.0625 681.179688 -309.480469 683.648438 Z M 0.632812 467.226562 C -0.800781 473.105469 -3.25 473.578125 -13.886719 471.046875 C -14.910156 462.136719 -7.414062 459.902344 -2.949219 455.34375 C 2.335938 458.910156 1.59375 463.300781 0.632812 467.226562 Z M -281.695312 508.976562 C -281.027344 507.542969 -279.34375 505.191406 -278.664062 505.363281 C -273.722656 506.65625 -268.957031 508.492188 -262.796875 510.59375 C -275.234375 514.691406 -275.246094 514.722656 -279.636719 513.226562 C -281.683594 512.523438 -282.601562 510.917969 -281.695312 508.976562 Z M -24.5 719.402344 C -37.992188 730.1875 -51.636719 740.808594 -64.496094 752.316406 C -68.542969 755.96875 -72.910156 759.191406 -77.597656 761.980469 C -82.28125 764.769531 -87.195312 767.074219 -92.335938 768.894531 C -103.351562 772.832031 -114.351562 776.929688 -123.617188 783.171875 L -123.617188 784.25 C -130.140625 785.816406 -136.75 786.835938 -143.445312 787.304688 C -170.796875 788.542969 -197.742188 785.148438 -224.546875 779.3125 C -243.230469 775.246094 -257.113281 763.835938 -271.503906 752.835938 C -276.808594 748.78125 -279.054688 742.589844 -280.628906 736.410156 C -282.351562 729.734375 -279.429688 724.09375 -275.007812 718.367188 C -268.253906 722.410156 -261.589844 726.746094 -254.609375 730.519531 C -230.621094 743.496094 -206.167969 755.359375 -179.609375 762.519531 C -169.65625 765.207031 -159.882812 766.058594 -150.011719 763.996094 C -143.800781 762.703125 -137.800781 760.0625 -135.753906 751.734375 C -144.382812 746.871094 -154.089844 746.117188 -163.796875 744.507812 C -179.976562 741.835938 -196.265625 738.761719 -210.386719 730.175781 C -226.671875 720.265625 -242.304688 709.21875 -257.847656 698.101562 C -263.574219 694.003906 -269.875 689.625 -271.308594 680.628906 C -257.101562 675.410156 -242.28125 672.617188 -228.398438 670.113281 C -216.964844 674.332031 -208.226562 680.566406 -199.273438 687.058594 C -180.214844 700.925781 -160.617188 714.171875 -138.503906 723.121094 C -132.527344 725.539062 -126.636719 727.78125 -120.167969 727.71875 C -114.957031 727.71875 -111.839844 725.097656 -110.898438 718.96875 C -116.855469 715.488281 -122.699219 710.773438 -129.386719 708.390625 C -148.449219 701.585938 -164.132812 688.859375 -181.820312 679.691406 C -186.617188 677.019531 -190.898438 673.6875 -194.667969 669.695312 C -198.121094 666.210938 -204.183594 664.300781 -203.609375 657.832031 C -198.011719 650.734375 -189.070312 650.355469 -181.953125 646.515625 C -174.832031 642.675781 -167.078125 642.667969 -158.40625 643.722656 C -145.746094 645.351562 -133.039062 645.875 -120.289062 645.292969 C -107.539062 644.710938 -94.9375 643.035156 -82.476562 640.261719 C -74.925781 638.535156 -69.027344 634.867188 -67.3125 625.164062 C -70.996094 624.113281 -74.75 623.460938 -78.574219 623.210938 C -73.902344 621.742188 -69.242188 620.289062 -64.550781 618.898438 C -42.578125 612.308594 -22.546875 601.640625 -6.992188 584.027344 C -5.527344 582.367188 -3.367188 580.351562 -0.519531 581.871094 C -4.113281 612.988281 -7.292969 619.738281 -34.640625 653.925781 C -43.417969 657.160156 -52.273438 655.003906 -61.035156 652.609375 C -70.65625 649.96875 -80.125 646.765625 -89.746094 644.132812 C -95.03125 642.699219 -100.46875 642.160156 -105.820312 647.046875 C -96.5 665.757812 -72.757812 662.941406 -60.117188 675.917969 C -62.273438 682.808594 -67.808594 684.859375 -72.597656 686.765625 C -81.171875 690.183594 -84.460938 697.550781 -88.269531 704.777344 C -88.949219 706.070312 -89.035156 708.726562 -88.207031 709.554688 C -86.4375 711.335938 -83.597656 713.78125 -81.734375 713.425781 C -71.917969 711.550781 -62.414062 708.734375 -54.433594 701.996094 C -44.722656 693.820312 -34.640625 686.164062 -24.78125 678.332031 C -15.621094 682.398438 -5.914062 678.601562 2.457031 685.148438 C -4.222656 698.890625 -12.9375 710.179688 -24.5 719.402344 Z M 345.394531 582 C 347.660156 579.257812 350.132812 576.714844 352.804688 574.363281 C 355.976562 571.453125 358.621094 567.550781 363.59375 567.453125 C 367.140625 576.726562 367.011719 580.921875 362.234375 583.113281 C 355.101562 586.347656 347.648438 588.96875 339.148438 592.300781 C 338.71875 586.238281 343.25 584.75 345.40625 582 Z M 364.269531 636.941406 C 355.71875 646.386719 346.644531 654.648438 334.347656 659.890625 C 306.457031 671.753906 277.730469 679.085938 247.453125 680.382812 C 241.097656 680.652344 234.691406 680.726562 228.394531 681.578125 C 224.816406 682.253906 221.464844 683.523438 218.339844 685.386719 C 217.636719 685.921875 217.085938 686.585938 216.691406 687.378906 C 216.292969 688.171875 216.09375 689.007812 216.085938 689.894531 C 216.085938 691.351562 217.519531 693.710938 218.726562 693.992188 C 223.074219 695.113281 227.488281 695.738281 231.972656 695.859375 C 254.734375 696.0625 277.492188 695.859375 300.242188 696.117188 C 305.03125 696.117188 310.574219 694.421875 314.503906 699.460938 C 309.636719 702.199219 305.085938 705.15625 300.210938 707.429688 C 271.410156 720.910156 242.695312 734.640625 210 736.042969 C 208.875 736.09375 207.753906 736.207031 206.636719 736.378906 C 206.820312 735.125 207.003906 733.789062 207.207031 732.277344 C 203.820312 729.613281 200.292969 731.199219 196.9375 732.191406 C 183.996094 736.019531 170.910156 739.742188 158.105469 744.054688 C 137.613281 750.816406 117.117188 749.644531 97.085938 745.480469 C 92.179688 737.929688 84.628906 733.238281 84.035156 724.4375 C 87.269531 721.472656 90.507812 721.632812 94.292969 722.476562 C 122.554688 728.710938 150.191406 727.867188 176.550781 714.417969 C 180.089844 712.605469 182.183594 709.621094 181.417969 705.789062 C 180.652344 701.960938 178.007812 698.855469 174.050781 698.855469 C 164.082031 698.855469 154.03125 698.855469 144.160156 700.097656 C 133.136719 701.457031 121.734375 701.175781 111.941406 697.746094 C 91.445312 690.433594 72.363281 679.410156 56.929688 663.523438 C 48.40625 654.757812 49.507812 644.628906 53.691406 632.9375 C 70.707031 640.722656 86.941406 649.882812 102.40625 660.417969 C 114.023438 668.390625 126.707031 672.90625 140.785156 672.574219 C 148.074219 672.402344 155.421875 671.171875 159.648438 662.800781 C 153.457031 654.378906 144.136719 651.5625 134.410156 649.039062 C 119.511719 645.167969 104.863281 640.507812 90.691406 629.347656 C 128.671875 620.308594 165.3125 612.46875 190.402344 581.449219 C 184.351562 573.957031 184.050781 573.535156 178.472656 577.503906 C 145.25 601.175781 107.808594 603.808594 68.988281 599.9375 C 63.335938 599.375 58.125 597.953125 54.890625 592.949219 C 51.242188 587.308594 45.398438 582.164062 48.308594 572.996094 C 59.3125 577.375 69.332031 581.191406 79.203125 585.355469 C 93.074219 591.191406 107.527344 591.425781 122.101562 589.980469 C 124.421875 589.753906 127.644531 588.007812 127.019531 584.816406 C 126.554688 582.484375 125.003906 579.421875 123.082031 578.539062 C 118.140625 576.183594 112.988281 574.429688 107.636719 573.277344 C 95.945312 570.785156 85.40625 566.027344 72.179688 557.292969 C 86.386719 557.292969 96.988281 557.207031 107.484375 557.292969 C 121.507812 557.445312 134.625 553.894531 147.308594 548.339844 C 200.003906 569.039062 255.023438 569.671875 312.59375 561.917969 C 303.964844 573.015625 296.953125 582.066406 287.914062 589.808594 C 275.972656 600.042969 263.558594 604.152344 247.753906 600.929688 C 231.953125 597.703125 215.449219 596.507812 199.214844 594.664062 C 198.324219 594.707031 197.484375 594.941406 196.699219 595.363281 C 195.914062 595.789062 195.253906 596.359375 194.726562 597.078125 C 192.949219 599.710938 194.339844 602.472656 196.605469 603.894531 C 205.945312 609.761719 216.550781 612.402344 226.945312 615.703125 C 231.402344 617.128906 237.734375 617.257812 238.964844 625.054688 C 232.136719 629.121094 225.308594 633.554688 218.15625 637.382812 C 202.925781 645.558594 187.554688 653.453125 172.214844 661.410156 C 167.394531 663.914062 162.078125 665.726562 158.882812 670.511719 C 157.027344 673.308594 158.527344 675.515625 161.429688 678.40625 C 184.015625 671.234375 207.304688 664.171875 230.335938 656.34375 C 238.855469 653.453125 246.804688 648.792969 254.9375 644.855469 C 275.195312 634.976562 294.277344 621.65625 318.484375 623.542969 C 319.3125 623.609375 320.175781 622.855469 321.058594 622.734375 C 328.246094 621.742188 335.417969 620.320312 342.632812 620.007812 C 350.539062 619.652344 357.539062 612.804688 365.890625 616.480469 C 368.695312 631.578125 368.695312 632.238281 364.378906 636.941406 Z M 364.140625 362.332031 C 358.671875 366.742188 352.167969 363.84375 346.777344 360.066406 C 345.351562 359.074219 344.335938 357.480469 342.277344 355.214844 C 349.699219 350.597656 356.558594 345.648438 365.144531 343.976562 C 368.382812 351.039062 369.675781 357.921875 364.175781 362.332031 Z M 366.925781 304.375 C 361.746094 315.527344 352.40625 322.871094 341.769531 328.390625 C 333.734375 332.566406 325.265625 335.941406 315.882812 340.125 C 306.757812 334.539062 297.640625 331.84375 293.835938 322.578125 C 303.996094 313.207031 318.136719 315.460938 329.429688 309.636719 C 340.722656 303.8125 352.082031 298.464844 363.0625 293.113281 C 369.644531 295.550781 368.671875 300.535156 366.945312 304.375 Z M 391.398438 420.496094 C 398.269531 421.089844 402.648438 424.757812 405.421875 433.058594 C 389.242188 434.515625 388.164062 433.394531 391.398438 420.496094 Z M 393.234375 640.046875 C 388.917969 637.597656 390.742188 634.285156 392.878906 631.246094 C 399.347656 631.96875 404.226562 635.234375 408.226562 640.175781 C 403.050781 643.59375 397.980469 642.742188 393.234375 640.046875 Z M 410.914062 589.519531 C 424.503906 594.125 437.878906 599.710938 451.6875 603.085938 C 475.480469 608.835938 499.464844 613.835938 523.632812 618.078125 C 545.335938 621.871094 567.199219 620.148438 588.601562 615.328125 C 589.96875 615.015625 591.351562 614.667969 592.710938 614.246094 L 593.292969 614.667969 C 603.753906 610.980469 615.859375 610.863281 626.03125 604.011719 C 638.585938 595.558594 652.175781 591.914062 667.398438 595.09375 C 671.777344 596.011719 676.542969 594.996094 681 595.6875 C 685.453125 596.378906 691.214844 593.304688 694.933594 598.210938 C 694.582031 599.320312 694.105469 600.375 693.5 601.371094 C 692.3125 602.707031 691.136719 604.292969 689.59375 605.070312 C 652.027344 624.148438 614.359375 642.96875 570.941406 644.003906 C 573.101562 642.859375 575.035156 641.410156 576.734375 639.652344 C 578.433594 637.898438 579.824219 635.921875 580.898438 633.726562 C 577.523438 632.648438 575.148438 631.203125 572.734375 631.148438 C 561.65625 630.878906 551.246094 634.480469 540.761719 637.382812 C 523.253906 642.222656 505.769531 646.777344 487.464844 647.789062 C 478.835938 648.273438 471.167969 646.453125 464.296875 641.609375 C 444.054688 627.53125 426.078125 610.996094 410.363281 592 C 410.148438 591.6875 410.6875 590.757812 411.007812 589.519531 Z M 725.570312 669.757812 C 716.9375 681.621094 706.261719 691.457031 695.117188 700.839844 C 694.230469 701.5625 693.273438 702.1875 692.257812 702.714844 C 691.238281 703.242188 690.175781 703.660156 689.074219 703.96875 C 687.96875 704.277344 686.84375 704.46875 685.699219 704.542969 C 684.558594 704.621094 683.417969 704.578125 682.28125 704.421875 C 661.464844 702.113281 640.679688 699.222656 622.460938 687.855469 C 613.980469 682.570312 604.652344 679.765625 595.429688 676.542969 C 594.347656 676.175781 591.945312 677.835938 591.113281 679.152344 C 590.703125 679.898438 590.480469 680.699219 590.445312 681.550781 C 590.414062 682.402344 590.574219 683.21875 590.929688 683.996094 C 592.9375 686.949219 595.136719 690.164062 598.050781 692.039062 C 607.21875 697.929688 616.730469 703.308594 626.171875 708.769531 C 630.105469 711.042969 634.636719 712.488281 638.121094 715.238281 C 641.898438 718.246094 648.292969 718.085938 649.726562 724.136719 C 647.160156 726.101562 644.386719 727.722656 641.417969 729 C 638.445312 730.277344 635.363281 731.171875 632.167969 731.6875 C 610.832031 735.785156 589.257812 738.738281 568.527344 745.542969 C 563.488281 747.195312 557.738281 746.621094 552.347656 747.074219 C 548.742188 747.398438 544.914062 747.195312 541.625 748.414062 C 539.542969 749.179688 537.136719 752.015625 536.933594 754.128906 C 536.933594 755.90625 537.46875 757.507812 538.539062 758.929688 L 538.3125 758.929688 C 531.214844 760.339844 524.140625 762.316406 516.964844 762.832031 C 506.113281 763.609375 495.230469 764.527344 484.421875 765.195312 C 464.898438 766.425781 446.304688 762.648438 436.445312 742.125 C 434.480469 738.046875 431.632812 734.402344 429.496094 730.390625 C 427.6875 727.015625 427.339844 723.574219 431.300781 720.683594 C 451.222656 729.195312 472.117188 736.515625 493.582031 739.105469 C 530.699219 743.582031 568.007812 742.761719 604.585938 733.066406 C 607.820312 732.214844 610.5625 729.34375 613.300781 727.132812 C 615.210938 725.59375 613.949219 720.988281 611.566406 720.5 C 608.082031 719.789062 604.554688 718.820312 601.058594 718.820312 C 569.226562 718.90625 537.535156 718.355469 505.964844 712.910156 C 492.085938 710.605469 478.480469 707.210938 465.144531 702.730469 C 451.8125 698.246094 438.917969 692.730469 426.46875 686.183594 C 422.507812 684.027344 417.082031 682.558594 416.121094 675.796875 C 430.621094 675.160156 444.234375 674.492188 457.84375 674.019531 C 464.210938 673.792969 470.789062 673.457031 476.558594 676.671875 C 497.734375 688.394531 521.5625 690.054688 544.582031 694.78125 C 553.027344 696.515625 560.761719 695.265625 567.859375 687.921875 C 551.03125 676.542969 528.53125 680.21875 512.738281 665.628906 C 523.675781 657.667969 537.191406 657.539062 548.398438 652.050781 C 552.09375 650.402344 555.90625 649.09375 559.832031 648.125 C 559.238281 648.765625 558.816406 649.507812 558.570312 650.34375 C 557.566406 654.453125 560.847656 657.34375 564.382812 657.894531 C 580.5625 660.429688 597.25 663.179688 613.160156 659.230469 C 636.816406 653.34375 661.527344 651.101562 683.847656 640.101562 C 687.730469 638.179688 692.355469 636.722656 696.789062 640.304688 C 690.101562 651.929688 678.691406 657.679688 667.667969 663.945312 C 661.386719 667.488281 655.230469 671.234375 649.1875 675.183594 C 646.878906 676.703125 648.757812 683.273438 651.347656 684.621094 C 652.554688 685.261719 653.820312 685.757812 655.140625 686.113281 C 656.464844 686.464844 657.808594 686.667969 659.175781 686.71875 C 660.542969 686.769531 661.898438 686.667969 663.242188 686.414062 C 664.585938 686.160156 665.882812 685.761719 667.136719 685.214844 C 682.078125 678.914062 698.019531 674.523438 710.660156 663.535156 C 713.441406 661.167969 716.394531 659.042969 719.515625 657.152344 C 722.105469 655.554688 723.984375 651.585938 728.015625 653.851562 C 728.515625 655.164062 728.839844 656.519531 728.996094 657.914062 C 729.148438 659.3125 729.128906 660.703125 728.929688 662.09375 C 728.730469 663.484375 728.363281 664.832031 727.824219 666.128906 C 727.289062 667.425781 726.597656 668.636719 725.753906 669.757812 Z M 727.175781 557.84375 C 718.289062 562.222656 709.992188 567.753906 697.382812 565.574219 C 705.300781 553.074219 715.398438 544.945312 727.121094 535.90625 C 730.25 545.160156 729.0625 551.21875 727.230469 557.84375 Z M 729.007812 814.675781 C 725.332031 819.710938 720.714844 819.507812 716.238281 818.988281 C 705.601562 817.71875 695.472656 814.976562 687.015625 809.035156 C 687.523438 806.542969 687.417969 805.292969 687.902344 804.992188 C 700.695312 796.792969 713.542969 788.695312 727.046875 780.1875 C 728.339844 783.851562 729.796875 786.226562 729.925781 788.664062 C 730.464844 797.59375 731.652344 806.628906 729.0625 814.675781 Z M 755.144531 519.394531 C 757.90625 520.699219 759.933594 521.042969 760.96875 522.253906 C 766.6875 528.929688 772.167969 535.820312 777.734375 542.648438 C 772.210938 547.660156 766.621094 550.011719 758.542969 549.375 C 755.847656 540.015625 751.53125 530.566406 755.199219 519.425781 Z M 755.144531 519.394531 "/>
</g>
</g>
</svg>
