<?xml version="1.0" encoding="UTF-8"?>
<svg xmlns="http://www.w3.org/2000/svg" xmlns:xlink="http://www.w3.org/1999/xlink" width="1125pt" height="1124.99995pt" viewBox="0 0 1125 1124.99995" version="1.2">
<defs>
<clipPath id="clip1">
  <path d="M 195.019531 130 L 930.019531 130 L 930.019531 995 L 195.019531 995 Z M 195.019531 130 "/>
</clipPath>
</defs>
<g id="surface1">
<g clip-path="url(#clip1)" clip-rule="nonzero">
<path style=" stroke:none;fill-rule:nonzero;fill:rgb(0%,0%,0%);fill-opacity:1;" d="M 927.996094 777.277344 C 924.640625 775.960938 921.191406 774.964844 917.652344 774.277344 C 891.902344 768.328125 867.089844 759.699219 843.207031 748.394531 C 838.503906 746.234375 833.109375 744.757812 832.050781 736.863281 C 843.996094 737.855469 855.679688 736.34375 867.289062 739.796875 C 877.0625 742.699219 887.160156 741.457031 897.140625 740.765625 C 901.199219 740.496094 903.550781 738.058594 904.023438 734.015625 C 901.574219 730.78125 897.960938 730.46875 894.378906 729.796875 C 877.417969 726.628906 860.320312 723.972656 843.5625 719.886719 C 836.429688 718.199219 829.449219 716.027344 822.617188 713.367188 C 815.785156 710.710938 809.171875 707.589844 802.777344 704.011719 C 796.378906 700.433594 790.261719 696.425781 784.421875 691.996094 C 778.585938 687.5625 773.082031 682.75 767.914062 677.554688 C 774.675781 671.082031 781.085938 668.925781 788.476562 672.453125 C 794.195312 675.191406 799.265625 679.136719 804.929688 682.105469 C 829.097656 694.863281 853.878906 705.832031 881.84375 706.664062 C 882.1875 706.691406 882.527344 706.6875 882.871094 706.648438 C 883.214844 706.605469 883.546875 706.535156 883.875 706.425781 C 884.203125 706.316406 884.515625 706.179688 884.8125 706.007812 C 885.113281 705.835938 885.390625 705.636719 885.648438 705.40625 C 885.90625 705.179688 886.140625 704.929688 886.347656 704.652344 C 886.554688 704.378906 886.730469 704.085938 886.878906 703.773438 C 887.027344 703.464844 887.140625 703.140625 887.222656 702.804688 C 887.304688 702.472656 887.355469 702.132812 887.367188 701.789062 C 887.367188 700.289062 886.449219 697.917969 885.210938 697.34375 C 880.355469 695.035156 875.21875 693.300781 870.203125 691.28125 C 850.78125 683.464844 832.140625 674.425781 818.890625 657.664062 C 822.308594 649.414062 829.375 646.652344 835.632812 643.210938 C 851.945312 634.269531 863.46875 620.226562 875.328125 606.539062 C 878.367188 603.035156 880.214844 598.765625 874.378906 594.375 C 865.464844 597.738281 856.78125 602.386719 849.84375 609.765625 C 835.570312 624.960938 816.644531 630.820312 799.339844 637.257812 C 791.917969 633.515625 786.015625 630.992188 786.308594 621.941406 C 801.820312 615.167969 817.367188 607.769531 831.371094 597.6875 C 834.332031 595.644531 836.8125 593.128906 838.804688 590.136719 C 840.5 587.398438 837.921875 585.359375 835.246094 583.480469 C 833.089844 584.203125 830.195312 584.558594 828.039062 585.941406 C 808.339844 598.699219 787.042969 598.398438 765.128906 594.179688 C 764.675781 594.117188 764.234375 594.015625 763.800781 593.875 C 763.363281 593.738281 762.945312 593.5625 762.539062 593.355469 C 762.132812 593.144531 761.746094 592.902344 761.382812 592.628906 C 761.019531 592.355469 760.679688 592.054688 760.363281 591.722656 C 760.050781 591.390625 759.765625 591.035156 759.511719 590.65625 C 759.257812 590.277344 759.035156 589.882812 758.847656 589.464844 C 758.660156 589.050781 758.507812 588.621094 758.394531 588.179688 C 758.277344 587.738281 758.199219 587.289062 758.160156 586.835938 C 757.804688 583.039062 760.253906 580.363281 764.039062 578.800781 C 777.429688 573.222656 790.742188 567.433594 804.917969 561.359375 C 818.824219 569.429688 834.480469 573.914062 850.46875 577.28125 C 854.03125 577.992188 857.628906 578.253906 861.257812 578.066406 C 862.152344 577.957031 862.980469 577.65625 863.738281 577.160156 C 864.496094 576.667969 865.109375 576.035156 865.574219 575.261719 C 866.175781 574 865.789062 571.28125 864.785156 570.429688 C 861.367188 567.539062 857.4375 565.273438 853.800781 562.613281 C 845.097656 556.238281 834.769531 551.824219 827.660156 541.890625 C 838.449219 524.460938 856.792969 512.46875 864.191406 493 C 860.957031 488.988281 857.210938 489.699219 854.019531 491.511719 C 850.804688 493.203125 848.054688 495.457031 845.765625 498.277344 C 835.6875 511.886719 820.949219 518.941406 808.15625 527.847656 C 788.941406 514.90625 775.398438 498.199219 770.804688 482.464844 C 779.542969 478.882812 788.800781 480.878906 797.777344 480.242188 C 806.222656 479.628906 813.765625 476.640625 821.199219 473.359375 C 829.507812 469.710938 837.539062 465.527344 845.289062 460.804688 C 857.890625 453.105469 857.742188 452.847656 862.929688 442.835938 C 859.378906 440.035156 855.851562 436.875 850.847656 439.03125 C 845 441.542969 839.355469 444.507812 833.496094 446.988281 C 811.824219 456.191406 789.671875 456.976562 767.125 450.515625 C 755.257812 447.128906 748.570312 439.441406 747.855469 427.113281 C 747.433594 420.003906 747.78125 412.863281 747.78125 405.261719 C 755.753906 407.957031 757.492188 414.847656 761.675781 419.433594 C 764.246094 422.316406 767.035156 424.96875 770.042969 427.390625 C 773.050781 429.816406 776.234375 431.972656 779.601562 433.871094 C 782.964844 435.765625 786.464844 437.371094 790.09375 438.6875 C 793.726562 440.003906 797.441406 441.015625 801.238281 441.714844 C 802.621094 441.976562 804.8125 440.800781 805.761719 439.558594 C 806.257812 438.859375 806.585938 438.085938 806.742188 437.242188 C 806.898438 436.398438 806.871094 435.558594 806.65625 434.726562 C 805.542969 432.242188 804.125 429.945312 802.40625 427.835938 C 794.363281 416.839844 786.289062 405.871094 778.183594 394.929688 C 771.65625 386.140625 766.148438 376.753906 761.667969 366.765625 C 757.1875 356.777344 753.835938 346.421875 751.609375 335.703125 C 749.539062 325.996094 745.851562 316.601562 742.503906 307.210938 C 740.585938 301.816406 736.246094 299.269531 732.375 300.339844 C 731.5 300.574219 730.667969 300.910156 729.875 301.351562 C 729.085938 301.792969 728.359375 302.324219 727.699219 302.945312 C 727.042969 303.566406 726.46875 304.261719 725.980469 305.023438 C 725.496094 305.785156 725.109375 306.597656 724.824219 307.457031 C 724.195312 309.140625 724.21875 311.039062 723.742188 312.785156 C 714.21875 350.363281 695.585938 381.585938 661.578125 402.164062 C 658.472656 404.042969 655.527344 406.296875 656.183594 410.695312 C 660.640625 415.605469 666.238281 414.796875 671.289062 412.648438 C 688.863281 405.097656 706.253906 397.085938 719.675781 382.707031 C 721.910156 380.304688 724.097656 377.046875 729.386719 380.171875 C 727.628906 401.496094 721.21875 420.359375 700.9375 432.074219 C 697.820312 433.96875 694.878906 436.105469 692.109375 438.480469 C 677.179688 450.753906 659.851562 454.238281 641.027344 453.050781 C 633.710938 452.585938 626.535156 452.070312 619.621094 449.394531 C 617.054688 448.402344 614.289062 448.402344 611.980469 451.316406 C 608.984375 456.40625 612.433594 459.71875 616.675781 461.34375 C 632.050781 467.234375 647.875 470.921875 664.589844 470.285156 C 676.261719 469.84375 687.96875 470.199219 699.769531 470.199219 C 698.917969 476.671875 694.105469 479.679688 689.910156 482.699219 C 668.332031 498.308594 645.289062 510.59375 618.132812 513.65625 C 611.042969 514.453125 604.105469 517.28125 597.289062 519.566406 C 595.980469 519.996094 594.761719 522.15625 594.441406 523.707031 C 594.304688 524.371094 594.289062 525.039062 594.394531 525.707031 C 594.5 526.375 594.71875 527.003906 595.050781 527.59375 C 595.386719 528.183594 595.8125 528.695312 596.328125 529.132812 C 596.847656 529.566406 597.425781 529.898438 598.066406 530.125 C 601.300781 531.527344 605.21875 533.714844 608.304688 533.058594 C 626.890625 529.121094 646.195312 529.089844 664.167969 521.347656 C 680.058594 514.507812 695.886719 507.703125 710.9375 499.136719 C 714.078125 497.359375 717.300781 495.601562 721.5625 498.5 C 720.777344 500.59375 720.3125 503.085938 719.027344 505.058594 C 707.980469 521.949219 693.71875 536.015625 678.828125 549.378906 C 656.59375 569.332031 648.167969 571.421875 619.492188 565.058594 C 612.425781 563.496094 605.605469 560.820312 598.648438 558.738281 C 596.058594 557.960938 593.308594 556.679688 590.816406 557.011719 C 588.539062 557.328125 586.144531 559.171875 584.578125 561.035156 C 583.886719 561.835938 584.578125 564.605469 585.539062 565.921875 C 589.855469 572.167969 596.707031 574.894531 603.308594 578.011719 C 608.605469 580.515625 615.242188 581.441406 617.914062 588.28125 C 614.429688 592.722656 609.738281 594.621094 605.175781 596.554688 C 599.488281 593.835938 596.8125 593.609375 587.222656 593.855469 C 564.390625 594.457031 541.84375 592.222656 519.574219 587.148438 C 485.050781 579.273438 451.054688 569.761719 417.921875 552.277344 C 434.105469 542.863281 449.644531 540.804688 465.964844 544.511719 C 473.03125 546.121094 479.742188 548.828125 487.21875 548.828125 C 508.152344 548.828125 529.082031 549.257812 550.011719 549.257812 C 555.40625 549.257812 561.125 549.097656 566.195312 547.46875 C 571.921875 545.644531 578.160156 542.992188 577.488281 534.871094 C 567.46875 529.476562 556.992188 527.632812 545.902344 527.527344 C 536.816406 527.429688 527.699219 526.890625 518.648438 525.984375 C 513.457031 525.464844 507.957031 524.550781 505.269531 518.054688 C 513.082031 512.265625 521.636719 507.066406 528.746094 500.335938 C 535.476562 493.960938 544.507812 488.007812 542.773438 474.890625 C 537.550781 476.164062 533.289062 476.832031 529.316406 478.277344 C 525.957031 479.621094 522.789062 481.320312 519.8125 483.378906 C 513.726562 487.351562 508.011719 491.921875 501.761719 495.589844 C 467.476562 515.652344 453.882812 514.582031 423.683594 489.410156 C 419.574219 485.980469 416.199219 481.601562 412.777344 477.417969 C 410.035156 474.074219 405.980469 471.050781 408.234375 465.109375 C 414.515625 462.5625 421.117188 459.578125 427.914062 457.191406 C 449.285156 449.644531 449.339844 449.644531 472.699219 455.964844 C 486.722656 459.75 500.878906 463.277344 515.605469 461.992188 C 517.882812 461.796875 521 460.785156 520.394531 455.058594 C 513.609375 448.359375 503.261719 444.929688 493.726562 440.292969 C 489.660156 438.308594 485.222656 437.054688 484.492188 430.8125 L 492.042969 423.886719 C 494.730469 421.4375 497.167969 418.851562 497.351562 414.914062 C 496.59375 414.417969 495.894531 413.578125 495.085938 413.445312 C 482.6875 411.484375 473.300781 421.65625 460.03125 421.816406 C 437.214844 408.65625 415.203125 393.039062 400.898438 368.644531 C 395.429688 359.3125 389.6875 350.082031 391.707031 334.722656 C 396.574219 338.335938 398.890625 339.695312 400.769531 341.527344 C 421.117188 361.351562 444.734375 376.496094 469.625 389.828125 C 484.328125 397.6875 499.832031 402.144531 516.726562 400.902344 C 519.425781 400.710938 522.378906 400.710938 524.699219 399.585938 C 527.019531 398.464844 529.675781 396.265625 530.09375 394.140625 C 530.460938 392.273438 528.433594 388.84375 526.546875 387.851562 C 522.449219 385.867188 518.171875 384.425781 513.707031 383.539062 C 483.679688 376.558594 458.199219 361.742188 436.480469 339.015625 C 439.132812 335.164062 443.246094 333.621094 447.453125 332.371094 C 456.160156 329.730469 465.050781 327.617188 473.59375 324.519531 C 487.792969 319.363281 499.054688 310.5 504.882812 296.089844 C 505.863281 293.664062 505.753906 290.460938 502.808594 289.003906 C 501.460938 288.335938 499.035156 288.128906 497.921875 288.894531 C 479.582031 301.621094 459.566406 303.875 438.25 298.601562 C 434.765625 297.738281 430.871094 298.453125 427.460938 297.523438 C 418.722656 295.195312 410.003906 292.671875 401.566406 289.574219 C 397.253906 288.011719 393.53125 284.636719 392.9375 279.761719 C 392.777344 278.628906 392.757812 277.496094 392.878906 276.359375 C 393 275.226562 393.257812 274.121094 393.652344 273.050781 C 394.050781 271.980469 394.570312 270.972656 395.214844 270.03125 C 395.859375 269.089844 396.613281 268.242188 397.46875 267.484375 C 404.457031 268.121094 407.316406 274.539062 412.238281 278.023438 C 421.949219 284.894531 432.109375 290.910156 444.171875 292.445312 C 449.632812 293.132812 452.273438 289.671875 453.441406 283.761719 C 441.929688 272.976562 427.773438 264.347656 418.183594 250.820312 C 406.011719 233.652344 400.921875 222.414062 399.636719 209.015625 C 407.339844 210.269531 415.300781 211.703125 423.308594 212.707031 C 424.535156 212.867188 426.015625 211.046875 428.066406 209.675781 C 428.238281 202.332031 422.042969 199.472656 417.179688 195.773438 C 399.839844 182.613281 387.734375 166.210938 384.617188 144.089844 C 384.320312 141.355469 383.601562 138.738281 382.460938 136.234375 C 380.980469 133.269531 379.613281 129.410156 374.84375 130.84375 C 373.667969 132.234375 371.757812 133.453125 371.507812 134.953125 C 368.886719 150.949219 362.089844 166.230469 363.308594 182.882812 C 363.859375 190.433594 361.367188 197.003906 358.078125 203.710938 C 347.136719 226.027344 333.414062 246.140625 314.371094 262.394531 C 310.953125 265.308594 307.476562 268.542969 308.632812 273.71875 C 309.355469 276.957031 318.34375 277.34375 323.519531 273.71875 C 333.230469 266.945312 342.421875 259.492188 352.046875 252.644531 C 355.175781 250.421875 355.910156 244.535156 361.679688 245.785156 C 363.570312 253.710938 357.625 257.703125 353.632812 261.964844 C 346.835938 269.234375 339.695312 276.382812 330.273438 280.492188 C 318.613281 285.574219 307.113281 291.085938 295.234375 295.59375 C 287.84375 298.40625 280.550781 302.785156 272.75 301.339844 C 265.066406 297.125 264.472656 288.539062 258.851562 283.859375 C 258.199219 283.300781 257.464844 282.894531 256.648438 282.628906 C 255.828125 282.367188 254.992188 282.269531 254.136719 282.335938 C 253.472656 282.46875 252.851562 282.710938 252.273438 283.066406 C 251.695312 283.425781 251.199219 283.871094 250.78125 284.40625 C 250.367188 284.945312 250.058594 285.535156 249.859375 286.183594 C 249.65625 286.832031 249.578125 287.496094 249.617188 288.171875 C 249.617188 294.386719 255.507812 299.691406 252.585938 306.25 C 248.097656 313.398438 236.703125 309.710938 233.261719 318.675781 C 240.8125 330.6875 254.460938 321.164062 264.960938 329.382812 C 267.730469 335.347656 275.976562 340.613281 277.429688 350.449219 C 250.792969 356.917969 223.488281 350.847656 196.957031 354.699219 C 197.171875 363.101562 202.652344 365.484375 207.519531 367.347656 C 223.941406 373.625 241.203125 376.289062 258.398438 372.582031 C 273.730469 369.269531 289.082031 370.28125 303.777344 368.589844 C 309.917969 372.503906 315.136719 376.140625 320.664062 379.289062 C 326.605469 382.652344 332.84375 385.523438 338.894531 388.574219 C 336.542969 394.195312 332.21875 395.585938 327.664062 396.320312 C 311.394531 398.960938 295.167969 398.734375 279.210938 394.300781 C 267.839844 391.140625 256.554688 388.640625 244.492188 392.945312 C 253.847656 402.542969 256.652344 404.808594 266.578125 407.773438 C 287.464844 414.039062 308.472656 419.929688 330.621094 419.5625 C 335.054688 419.488281 339.867188 419.3125 341.625 424.957031 C 337.933594 441.070312 327.136719 447.238281 311.632812 445.738281 C 298.988281 444.519531 286.460938 442.179688 273.871094 440.703125 C 256.15625 438.621094 240.890625 431.351562 227.089844 420.285156 C 222.332031 416.476562 218.816406 410.578125 211.804688 410.039062 C 209.96875 419.746094 210.011719 419.746094 211.621094 422.421875 C 224.566406 444.421875 243.003906 459.597656 267.042969 468.582031 C 276.246094 472.011719 286.914062 472.507812 294.824219 481.0625 C 288.898438 489.128906 279.914062 493.648438 272.070312 499.398438 C 263.289062 505.78125 253.921875 511.335938 244.988281 517.515625 C 243.847656 518.304688 243.132812 520.6875 243.316406 522.199219 C 243.351562 522.53125 243.421875 522.855469 243.523438 523.175781 C 243.625 523.492188 243.761719 523.796875 243.925781 524.089844 C 244.089844 524.378906 244.28125 524.652344 244.503906 524.902344 C 244.722656 525.15625 244.96875 525.382812 245.234375 525.585938 C 245.5 525.785156 245.785156 525.960938 246.085938 526.101562 C 246.390625 526.246094 246.703125 526.359375 247.027344 526.4375 C 247.351562 526.519531 247.683594 526.566406 248.015625 526.578125 C 248.351562 526.589844 248.683594 526.566406 249.011719 526.511719 C 267.019531 523.75 284.886719 520.753906 298.640625 506.828125 C 304.378906 501.117188 310.566406 495.9375 317.199219 491.296875 C 321.515625 488.203125 326.683594 484.46875 331.625 484.234375 C 343.492188 483.648438 354.28125 479.292969 364.863281 476.003906 C 369.589844 482.925781 366.6875 489.378906 367.023438 495.578125 C 367.519531 505.125 362.707031 511.195312 354.214844 514.269531 C 332.035156 522.292969 310.230469 531.429688 286.246094 533.683594 C 269.996094 535.207031 253.804688 537.695312 237.695312 540.53125 C 216.851562 544.210938 196.222656 544.589844 175.5 539.886719 C 170.914062 538.808594 166.304688 537.902344 161.699219 536.996094 C 162.554688 535.472656 163.207031 533.871094 163.664062 532.183594 C 162.273438 528.421875 159.347656 525.324219 155.734375 526.058594 C 147.738281 527.667969 140.078125 530.828125 132.128906 532.671875 C 123.34375 534.710938 114.25 537.824219 105.523438 537.222656 C 96.898438 536.699219 88.378906 535.453125 79.964844 533.480469 C 71.550781 531.511719 63.367188 528.84375 55.410156 525.476562 C 48.6875 522.574219 42.160156 519.167969 38.144531 512.726562 C 35.191406 508.046875 32.570312 503.019531 39.527344 498.167969 C 56.679688 503.734375 74.894531 502.804688 93.0625 502.480469 C 98.097656 502.40625 103.019531 501.625 107.832031 500.132812 C 112.640625 498.640625 117.144531 496.5 121.339844 493.714844 C 124.207031 491.835938 127.8125 489.097656 125.523438 485 C 124.445312 483.089844 121.394531 481.589844 119.050781 481.265625 C 115.523438 480.769531 111.824219 481.707031 108.199219 481.621094 C 96.382812 481.332031 84.460938 481.621094 72.777344 480.230469 C 62.433594 478.980469 52.214844 475.917969 45.34375 463.828125 C 55.375 463.351562 63.46875 463.285156 71.484375 462.511719 C 80.492188 461.636719 89.402344 459.414062 98.457031 459.015625 C 115.71875 458.238281 129.234375 449.363281 142.429688 439.667969 C 143.347656 438.996094 143.511719 436.160156 142.894531 434.867188 C 142.433594 434.113281 141.851562 433.472656 141.144531 432.945312 C 140.4375 432.414062 139.65625 432.035156 138.804688 431.804688 C 136.984375 431.449219 135.1875 431.539062 133.410156 432.074219 C 122.839844 434.554688 112.417969 437.820312 101.734375 439.625 C 78.722656 443.398438 56.519531 440.023438 35.265625 430.347656 C 30.949219 428.394531 26.632812 426.035156 25.394531 421.578125 C 23.765625 415.550781 23.289062 409.152344 22.859375 402.878906 C 22.242188 393.988281 22.460938 393.980469 26.742188 383.96875 C 42.773438 394.207031 58.871094 404.367188 74.851562 414.699219 C 82.574219 419.691406 90.6875 423.691406 99.890625 424.640625 C 101.21875 424.71875 102.511719 424.539062 103.769531 424.109375 C 105.03125 423.679688 106.160156 423.023438 107.164062 422.152344 C 109.320312 419.992188 107.808594 416.867188 105.738281 415.292969 C 97.785156 409.25 89.761719 403.265625 81.429688 397.753906 C 74.949219 393.492188 68.972656 388.613281 63.503906 383.113281 C 58.035156 377.613281 53.191406 371.609375 48.96875 365.105469 C 33.066406 340.675781 17.832031 315.890625 12.285156 286.566406 C 11.460938 283.015625 10.117188 279.671875 8.261719 276.535156 C 6.394531 273.082031 3.113281 271.714844 -1.773438 272.402344 C -7.101562 281.710938 -6.949219 292.671875 -8.332031 303.304688 C -11.222656 325.351562 -15.226562 329.363281 -36.566406 333.125 C -46.277344 334.851562 -55.984375 336.871094 -65.695312 339.089844 C -66.863281 339.359375 -68.1875 341.777344 -68.230469 343.234375 C -68.144531 344.082031 -67.902344 344.886719 -67.507812 345.640625 C -67.113281 346.398438 -66.59375 347.054688 -65.945312 347.613281 C -64.671875 348.691406 -62.707031 349.101562 -61.121094 349.910156 C -53.398438 353.847656 -43.503906 352.140625 -35.679688 358.539062 C -42.359375 373.347656 -51.722656 383.820312 -65.382812 390.398438 C -71.113281 393.160156 -77.023438 395.628906 -82.363281 399.027344 C -84.113281 400.105469 -84.867188 403.589844 -85.09375 406.058594 C -85.363281 408.917969 -80.046875 413.144531 -77.371094 412.3125 C -66.226562 408.851562 -53.992188 408.324219 -44.894531 399.371094 C -41.066406 395.585938 -35.984375 393.105469 -31.699219 389.75 C -26.707031 385.824219 -22.078125 381.433594 -17.058594 377.53125 C -13.015625 374.371094 -10.878906 368.429688 -4.480469 368.558594 C 2.316406 392.609375 -18.019531 433.691406 -51.953125 463.738281 C -55.269531 463.152344 -58.542969 462.378906 -61.769531 461.410156 C -77.414062 455.886719 -90.574219 446.105469 -103.84375 436.601562 C -108.214844 433.441406 -112.769531 430.5625 -117.503906 427.976562 C -118.484375 427.445312 -121.140625 428.621094 -122.101562 429.777344 C -122.566406 430.46875 -122.84375 431.226562 -122.929688 432.054688 C -123.019531 432.882812 -122.914062 433.683594 -122.605469 434.457031 C -115.636719 445.414062 -105.34375 452.988281 -95.234375 460.785156 C -87.683594 466.597656 -79.667969 471.765625 -72.816406 478.042969 C -79.140625 487.457031 -91.792969 487.628906 -96.046875 498.382812 C -92.679688 500.128906 -90.5 502.050781 -88.082031 502.394531 C -85.386719 502.824219 -82.671875 503.027344 -79.941406 503.003906 C -77.210938 502.984375 -74.503906 502.738281 -71.8125 502.269531 C -69.125 501.800781 -66.492188 501.113281 -63.914062 500.210938 C -61.339844 499.308594 -58.855469 498.199219 -56.460938 496.882812 C -42.253906 489.117188 -29.089844 492.191406 -16.542969 499.65625 C -16.628906 506.128906 -19.996094 509.503906 -22.929688 512.824219 C -36.953125 528.625 -52.675781 541.945312 -72.277344 550.746094 C -80.25 554.316406 -90.328125 555.375 -94.933594 564.683594 C -94.328125 568.695312 -92.054688 571.25 -88.179688 571.972656 C -74.996094 574.464844 -62.707031 571.519531 -51.726562 564.347656 C -38.066406 555.4375 -23.402344 547.976562 -11.332031 536.648438 C -8.515625 534.007812 -5.636719 529.53125 -0.433594 531.65625 C 0.0742188 532.679688 0.9375 533.621094 0.730469 534.148438 C -0.207031 536.660156 -0.921875 539.539062 -2.667969 541.429688 C -16.304688 556.160156 -31.074219 569.546875 -49.058594 578.898438 C -60.355469 584.753906 -72.039062 589.984375 -82.816406 596.683594 C -94.429688 603.988281 -106.882812 609.332031 -120.179688 612.722656 C -122.648438 613.355469 -125.109375 614.101562 -127.539062 614.933594 C -117.589844 605.871094 -110.621094 595.90625 -103.273438 586.285156 C -102.660156 585.476562 -103.542969 582.746094 -104.546875 581.703125 C -105.550781 580.65625 -107.988281 579.695312 -109.132812 580.214844 C -117.492188 583.933594 -124.507812 589.652344 -131.195312 595.851562 C -136.523438 600.792969 -141.984375 605.558594 -147.734375 610.066406 C -158.425781 618.480469 -169.980469 621.101562 -183.53125 616.820312 C -196.476562 612.730469 -210.070312 610.769531 -223.148438 607.035156 C -235.386719 603.59375 -247.382812 599.453125 -259.140625 594.621094 C -265.753906 591.871094 -270.347656 586.359375 -269.347656 577.796875 C -265.644531 576.988281 -263.035156 575.898438 -260.445312 575.941406 C -235.8125 576.363281 -211.539062 573.632812 -187.308594 569.191406 C -175.34375 567.035156 -164.46875 563.410156 -154.941406 556.011719 C -154.199219 555.457031 -153.5625 554.804688 -153.03125 554.050781 C -152.5 553.292969 -152.101562 552.472656 -151.832031 551.589844 C -151.5625 550.703125 -151.441406 549.800781 -151.464844 548.875 C -151.484375 547.953125 -151.652344 547.054688 -151.964844 546.183594 C -153.453125 542.03125 -156.96875 542.335938 -160.777344 543.800781 C -188.558594 554.480469 -217.277344 555.535156 -246.558594 552.6875 C -256.398438 551.730469 -265.320312 549.160156 -276.402344 544.351562 C -259.140625 539.648438 -244.035156 536.476562 -229.609375 531.234375 C -218.820312 527.332031 -209.175781 525.84375 -198 529.703125 C -171.773438 538.785156 -144.25 536.832031 -117.082031 537.371094 C -111.601562 537.492188 -106.144531 536.996094 -101.429688 533.683594 C -99.183594 532.097656 -97.296875 530.050781 -98.441406 527.136719 C -99.042969 525.59375 -100.480469 523.621094 -101.882812 523.296875 C -115.035156 520.203125 -128.207031 517.183594 -141.464844 514.605469 C -154.726562 512.027344 -168.191406 509.957031 -181.382812 507.691406 C -181.503906 502.859375 -179.433594 500.011719 -176.734375 497.433594 C -170.8125 491.792969 -164.617188 486.398438 -159.136719 480.347656 C -155.902344 476.800781 -155.371094 472.304688 -159.460938 468.972656 C -179.960938 474.96875 -193.121094 494.347656 -214.484375 497.953125 C -226.675781 493.390625 -238.984375 489.785156 -250.347656 484.222656 C -262.417969 478.3125 -273.867188 470.824219 -280.554688 457.710938 C -263.929688 452.867188 -249.03125 452.480469 -235.964844 464.117188 C -235.199219 464.621094 -234.367188 464.980469 -233.472656 465.195312 C -229.664062 466.597656 -226.019531 466.070312 -224.164062 462.414062 C -223.082031 460.257812 -222.726562 456.78125 -223.785156 454.863281 C -225.433594 451.800781 -228.542969 449.523438 -231.101562 446.839844 C -227.613281 439.796875 -220.851562 436.734375 -214.324219 433.703125 C -202.542969 428.222656 -193.457031 419.109375 -183.617188 411.128906 C -178.386719 406.8125 -173.273438 401.085938 -175.980469 391.550781 C -189.941406 395.335938 -198.246094 407.105469 -210.105469 413.125 C -223.308594 419.757812 -237.078125 423.5 -251.878906 426.355469 C -267.082031 415.269531 -276.789062 399.910156 -282.660156 382.601562 C -285.894531 372.894531 -292.21875 362.570312 -285.679688 351.472656 C -273.921875 352.421875 -269.808594 363.421875 -261.554688 368.652344 C -252.40625 374.457031 -243.214844 380.023438 -232.890625 383.515625 C -228.144531 372.460938 -228.015625 370.390625 -233.96875 367.046875 C -245.253906 360.683594 -255.417969 353.261719 -262.019531 341.863281 C -275.183594 319.117188 -289.703125 296.996094 -289.335938 268.972656 C -289.242188 261.855469 -294.539062 257.996094 -303.246094 259.871094 C -303.785156 264.183594 -304.90625 268.640625 -304.820312 273.074219 C -304.539062 286.855469 -307.644531 300.175781 -310.546875 313.421875 C -319.113281 352.53125 -342.019531 382.0625 -373.835938 405.304688 C -376.769531 407.460938 -380.308594 408.894531 -382.886719 411.34375 C -387.277344 415.453125 -389.21875 420.167969 -383.277344 424.945312 C -371.410156 423.066406 -361.019531 417.652344 -350.910156 411.34375 C -340.121094 404.636719 -328.921875 398.5625 -317.851562 392.308594 C -314.722656 390.527344 -311.378906 389.070312 -306.773438 393.191406 C -306.632812 401.820312 -305.898438 411.808594 -306.4375 421.6875 C -307.289062 437.230469 -314.324219 448.574219 -328.535156 456.707031 C -342.441406 464.679688 -355.667969 466.414062 -369.898438 459.652344 C -377.246094 456.148438 -384.257812 451.90625 -391.355469 447.894531 C -396.878906 444.789062 -402.144531 441.164062 -407.832031 438.4375 C -411.445312 436.699219 -414.691406 438.382812 -417.097656 443.054688 C -412.191406 454.582031 -398.285156 461.066406 -394.226562 475.894531 C -405.738281 476.433594 -415.675781 476.972656 -425.609375 477.351562 C -434.707031 477.71875 -443.746094 478.183594 -452.582031 481.039062 C -455.550781 482 -457.847656 483.953125 -457.804688 486.261719 C -457.804688 488.417969 -455.496094 492.09375 -453.738281 492.398438 C -435.957031 495.492188 -418.457031 500.488281 -399.878906 495.632812 C -389.492188 492.894531 -378.300781 493.035156 -367.382812 492.546875 C -355.515625 492.007812 -340.25 496.648438 -326.386719 504.273438 C -328.445312 507.238281 -330.140625 510.375 -332.492188 512.902344 C -349.078125 531.066406 -367.125 547.636719 -386.640625 562.609375 C -395.757812 569.535156 -404.28125 571.746094 -414.335938 567.53125 C -431.070312 560.496094 -449.367188 557.597656 -465.207031 548.167969 C -466.628906 547.316406 -469.347656 546.757812 -470.375 547.523438 C -472.230469 548.914062 -474.742188 551.835938 -474.3125 553.367188 C -473.222656 556.792969 -471.390625 559.757812 -468.820312 562.265625 C -462.347656 568.898438 -453.242188 571.414062 -445.398438 575.910156 C -439.476562 579.316406 -431.230469 578.898438 -427.304688 586.039062 C -431.921875 593.132812 -439.851562 593.242188 -446.175781 596.058594 C -456.433594 600.621094 -466.878906 604.78125 -477.300781 609 C -477.453125 606.84375 -479.457031 603.402344 -480.945312 603.152344 C -503.925781 599.28125 -523.800781 588.550781 -542.84375 575.910156 C -546.347656 573.589844 -550.804688 571.507812 -549.21875 565.804688 C -536.164062 561.75 -523.207031 557.617188 -510.175781 553.703125 C -501.855469 551.199219 -499.039062 545.136719 -498.640625 537.222656 C -498.457031 533.640625 -501.53125 530.75 -505.222656 530.277344 C -512.9375 529.261719 -519.34375 532.089844 -525.828125 535.789062 C -529.398438 537.808594 -533.085938 539.574219 -536.898438 541.085938 C -540.710938 542.597656 -544.609375 543.84375 -548.59375 544.816406 C -552.574219 545.789062 -556.605469 546.484375 -560.6875 546.902344 C -564.765625 547.320312 -568.855469 547.453125 -572.953125 547.304688 C -578.8125 547.167969 -584.011719 545.355469 -587.25 540.714844 C -591.640625 534.394531 -598.773438 529.703125 -600.886719 520.019531 C -582.492188 519.199219 -565.371094 518.347656 -548.226562 517.722656 C -544.710938 517.59375 -541.171875 518.335938 -537.632812 518.585938 C -519.226562 519.890625 -501.746094 513.980469 -483.847656 511.414062 C -482.402344 511.207031 -481.25 509.019531 -479.976562 507.734375 C -478.476562 506.234375 -479.726562 501.46875 -481.875 500.9375 C -484.410156 500.304688 -487.269531 499.03125 -489.558594 499.644531 C -512.851562 505.945312 -536.585938 504.109375 -560.136719 503.140625 C -580.289062 502.296875 -599.300781 495.429688 -617.71875 487.488281 C -627.933594 483.089844 -630.039062 479.121094 -631.117188 466.890625 C -624.890625 466.175781 -618.644531 464.949219 -612.386719 464.851562 C -593.03125 464.558594 -574.691406 459.125 -556.402344 453.839844 C -551.992188 452.59375 -547.714844 450.984375 -543.578125 449.007812 C -539.441406 447.03125 -535.5 444.71875 -531.757812 442.070312 C -528.015625 439.421875 -524.523438 436.476562 -521.285156 433.230469 C -518.042969 429.988281 -515.101562 426.492188 -512.460938 422.742188 C -510.402344 419.90625 -508.144531 416.855469 -510.617188 413.035156 C -511.253906 412.574219 -512.160156 411.496094 -512.558594 411.65625 C -518.417969 414.082031 -524.222656 416.628906 -530.015625 419.207031 C -540.804688 424.007812 -551.183594 429.992188 -562.382812 433.441406 C -584.097656 440.195312 -605.535156 439.148438 -625.171875 426.171875 C -632.863281 421.082031 -639.371094 414.4375 -640.417969 404.601562 C -642.035156 389.363281 -643.222656 374.070312 -644.730469 357.199219 C -635.722656 359.355469 -633.761719 365.0625 -629.996094 368.816406 C -616.476562 382.210938 -603.085938 395.878906 -589.484375 409.25 C -584.863281 413.792969 -579.308594 417.277344 -572.445312 416.328125 C -570 415.992188 -566.6875 414.472656 -565.769531 412.539062 C -564.851562 410.609375 -565.769531 406.070312 -567.269531 405.28125 C -591.46875 392.996094 -602.007812 368.878906 -616.714844 348.453125 C -621.449219 341.851562 -624.933594 334.324219 -628.667969 327.054688 C -629.886719 324.660156 -629.875 321.78125 -626.855469 319.246094 C -623.617188 321.984375 -619.941406 324.550781 -616.863281 327.679688 C -593.839844 351.0625 -564.605469 363.414062 -534.578125 374.433594 C -528.300781 376.742188 -524.265625 374.941406 -521.957031 368.730469 C -533.070312 360.84375 -544.742188 353.898438 -556.976562 347.890625 C -580.386719 336.652344 -598.546875 318.976562 -613.1875 297.792969 C -616.910156 292.4375 -620.082031 286.773438 -622.699219 280.796875 C -625.320312 274.824219 -627.335938 268.652344 -628.753906 262.285156 C -626.414062 259.449219 -625.214844 259.925781 -623.273438 261.304688 C -615.152344 267.058594 -606.941406 272.722656 -598.640625 278.304688 C -595.65625 280.382812 -592.492188 282.140625 -589.148438 283.578125 C -588.839844 283.714844 -588.519531 283.824219 -588.1875 283.902344 C -587.859375 283.980469 -587.523438 284.027344 -587.1875 284.046875 C -586.847656 284.0625 -586.511719 284.050781 -586.175781 284.007812 C -585.839844 283.960938 -585.511719 283.886719 -585.1875 283.78125 C -584.867188 283.679688 -584.554688 283.546875 -584.257812 283.382812 C -583.960938 283.222656 -583.679688 283.035156 -583.414062 282.820312 C -583.152344 282.609375 -582.910156 282.375 -582.6875 282.117188 C -582.46875 281.859375 -582.273438 281.585938 -582.101562 281.292969 C -580.550781 278.898438 -579.695312 276.082031 -581.714844 273.847656 C -600.011719 253.652344 -616.515625 232.078125 -631.222656 209.136719 C -641.722656 192.730469 -650.300781 176.207031 -652.078125 156.632812 C -652.304688 154.117188 -654.066406 151.746094 -655.058594 149.4375 C -664.335938 150.160156 -666.988281 151.59375 -667.011719 156.71875 C -667.109375 176.734375 -667.617188 196.785156 -666.644531 216.75 C -666.28125 223.144531 -666.796875 229.464844 -668.183594 235.714844 C -669.574219 241.96875 -671.785156 247.914062 -674.820312 253.550781 C -683.453125 269.40625 -691.902344 285.628906 -705.441406 298.417969 C -719.28125 311.480469 -731.269531 326.515625 -747.289062 337.246094 C -748.371094 337.96875 -748.292969 340.394531 -748.867188 342.390625 C -739.554688 346.242188 -731.605469 343.382812 -723.382812 338.550781 C -706.121094 328.402344 -690.820312 315.785156 -676.191406 301.148438 C -672.222656 317.238281 -671.996094 317.324219 -676.074219 327.960938 C -680.949219 340.6875 -686.269531 353.261719 -691.4375 365.882812 C -696.300781 377.746094 -703.519531 388.21875 -710.855469 398.648438 C -715.980469 405.917969 -722.066406 410.621094 -731.355469 409.433594 C -754.671875 406.339844 -778.523438 407.601562 -801.386719 400.742188 C -802.21875 400.480469 -803.066406 400.382812 -803.9375 400.4375 C -804.804688 400.496094 -805.632812 400.707031 -806.425781 401.074219 C -807.125 401.550781 -807.683594 402.15625 -808.101562 402.894531 C -808.515625 403.632812 -808.746094 404.425781 -808.785156 405.269531 C -808.300781 410.460938 -804.289062 412.960938 -799.984375 414.546875 C -782.34375 421.019531 -764.617188 427.304688 -745.382812 434.210938 C -753.164062 440.25 -761.433594 445.535156 -770.1875 450.054688 C -778.941406 454.578125 -788.035156 458.265625 -797.46875 461.117188 C -802.269531 462.5625 -807.804688 464.882812 -809.144531 471.246094 C -810.007812 475.324219 -802.347656 477.199219 -792.960938 475.808594 C -782.753906 474.289062 -773.722656 469.617188 -765.480469 464.246094 C -751.054688 454.84375 -734.90625 448.339844 -721.851562 436.515625 C -713.15625 428.644531 -697.609375 429.386719 -683.789062 436.429688 C -694.707031 460.957031 -713.769531 476.929688 -737.277344 488.203125 C -745.457031 492.136719 -754.109375 495.050781 -762.558594 498.4375 C -766.203125 499.902344 -768.339844 502.296875 -767.488281 506.539062 C -763.828125 510 -759.136719 510.183594 -754.679688 509.835938 C -741.820312 508.824219 -730.558594 502.125 -718.417969 498.921875 C -692.992188 492.234375 -677.863281 472.164062 -659.792969 455.953125 C -655.574219 460.578125 -656.351562 464.894531 -658.433594 469.132812 C -663.417969 479.304688 -672.148438 485.957031 -680.90625 492.484375 C -709.421875 513.730469 -741.128906 525.679688 -777.078125 524.117188 C -784.230469 523.816406 -791.277344 521.398438 -798.398438 520.136719 C -807.027344 518.605469 -815.660156 517.214844 -824.183594 521.28125 C -819.996094 530.082031 -812.011719 530.535156 -805.335938 532.347656 C -770.703125 541.71875 -735.648438 543.972656 -700.199219 537.167969 C -694.804688 536.144531 -689.34375 535.011719 -684.015625 535.269531 C -678.890625 535.527344 -674.152344 529.617188 -668.597656 534.742188 C -675.070312 557.21875 -690.628906 573.902344 -705.128906 591.226562 C -710.792969 597.988281 -718.59375 600.113281 -727.257812 598.539062 C -738.855469 596.382812 -750.460938 594.363281 -762.007812 591.96875 C -780.671875 588.085938 -799.261719 583.738281 -817.980469 580.105469 C -821.429688 579.425781 -826.609375 577.03125 -828.996094 582.984375 C -824.332031 589.261719 -817.988281 592.691406 -810.976562 594.847656 C -796.21875 599.316406 -781.179688 602.929688 -766.613281 607.933594 C -757.59375 611.039062 -747.105469 611.761719 -740.09375 620.152344 C -747.570312 628.339844 -756.460938 632.804688 -765.988281 636.050781 C -776.28125 639.542969 -786.667969 642.738281 -797.058594 645.941406 C -804.914062 648.355469 -809.433594 652.304688 -807.773438 655.734375 C -804.71875 661.988281 -798.644531 660.769531 -793.5 660.726562 C -782.453125 660.628906 -771.855469 657.738281 -761.8125 653.339844 C -746.019531 646.40625 -729.835938 640.039062 -715.980469 629.472656 C -709.929688 624.867188 -703.617188 621.78125 -696.066406 621.8125 C -691.683594 621.8125 -687.066406 622.160156 -685.0625 628.523438 C -690.59375 639.792969 -699.648438 648.808594 -710.554688 655.3125 C -728.421875 665.96875 -742.414062 682.730469 -763.269531 688.671875 C -764.21875 688.941406 -765.058594 691.910156 -764.824219 693.375 C -764.652344 694.230469 -764.304688 695.007812 -763.78125 695.707031 C -763.257812 696.402344 -762.609375 696.953125 -761.835938 697.355469 C -759.695312 698.128906 -757.503906 698.664062 -755.25 698.964844 C -752.996094 699.261719 -750.738281 699.320312 -748.472656 699.132812 C -746.210938 698.949219 -743.992188 698.523438 -741.816406 697.859375 C -739.644531 697.195312 -737.566406 696.308594 -735.585938 695.199219 C -723.632812 688.664062 -711.644531 682.191406 -699.691406 675.664062 C -696.453125 673.90625 -693.304688 672.160156 -689.367188 677.824219 C -697.824219 690.59375 -699.539062 707.699219 -712.023438 720.890625 C -723.890625 722.441406 -737.019531 727.175781 -748.886719 725.050781 C -770.714844 721.136719 -792.398438 723.21875 -814.09375 722.066406 C -817.234375 721.890625 -821.152344 720.988281 -823.199219 725.042969 C -821.042969 731.773438 -815.898438 735.644531 -809.671875 737.402344 C -800.082031 740.097656 -790.53125 743.117188 -780.304688 743.042969 C -771.21875 743.042969 -762.113281 743.765625 -753.03125 744.230469 C -746.558594 744.5625 -740.34375 745.695312 -736.039062 751.304688 C -736.796875 752.941406 -737.65625 754.523438 -738.617188 756.050781 C -750.191406 772.164062 -765.308594 776.886719 -783.996094 770.070312 C -788.308594 768.496094 -792.527344 766.835938 -796.941406 765.671875 C -799.601562 765.046875 -802.300781 764.734375 -805.03125 764.734375 C -805.453125 764.808594 -805.839844 764.972656 -806.183594 765.226562 C -806.527344 765.480469 -806.800781 765.796875 -806.996094 766.179688 C -807.460938 767.644531 -808.074219 769.617188 -807.480469 770.761719 C -802.085938 780.988281 -788.449219 781.0625 -781.921875 791.632812 C -784.339844 794.046875 -786.476562 797.089844 -789.378906 798.902344 C -799.421875 805.167969 -809.875 810.570312 -821.367188 814 C -826.550781 815.605469 -831.625 817.5 -836.589844 819.683594 C -840.03125 821.140625 -842.933594 827.03125 -841.089844 828.183594 C -838.867188 829.574219 -836.222656 831.128906 -833.753906 831.140625 C -825.507812 831.140625 -817.503906 829.769531 -810.136719 825.585938 C -799.078125 819.308594 -787.199219 814.195312 -776.9375 806.839844 C -765.738281 798.816406 -754.28125 795.976562 -741.035156 798.46875 C -734.796875 799.644531 -728.433594 800.140625 -722.152344 801.101562 C -704.070312 803.851562 -686.117188 805.414062 -668.628906 797.746094 C -665.609375 796.421875 -661.996094 796.421875 -658.917969 795.859375 C -652.8125 808.800781 -652.273438 821.304688 -652.003906 834.050781 C -651.476562 859.527344 -650.117188 884.96875 -649.523438 910.433594 C -649.472656 914.53125 -648.972656 918.574219 -648.019531 922.558594 C -647.066406 926.546875 -645.6875 930.378906 -643.878906 934.054688 C -641.625 938.597656 -637.179688 940.007812 -632.378906 939.632812 C -625.441406 939.09375 -620.769531 935.210938 -617.609375 929.105469 C -615.980469 925.820312 -614.84375 922.371094 -614.199219 918.761719 C -613.558594 915.152344 -613.4375 911.523438 -613.832031 907.878906 C -614.730469 897.09375 -616.929688 886.308594 -617.253906 875.523438 C -618.136719 845.539062 -618.429688 815.53125 -618.710938 785.527344 C -618.710938 781.699219 -620.867188 776.628906 -615.191406 774.429688 C -586.980469 797.984375 -562.597656 811.953125 -528.117188 824.105469 C -522.152344 826.34375 -516.0625 828.140625 -509.839844 829.5 C -505.523438 830.363281 -500.832031 829.867188 -496.320312 829.738281 C -493.441406 829.652344 -488.144531 824.550781 -489.09375 822.738281 C -490.289062 820.472656 -492.09375 817.765625 -494.269531 816.925781 C -498.457031 815.339844 -503.128906 815.089844 -507.53125 814 C -518.199219 811.378906 -528.417969 807.605469 -537.480469 801.242188 C -551.625 791.308594 -565.671875 781.246094 -579.75 771.214844 C -580.535156 770.699219 -581.246094 770.097656 -581.878906 769.40625 C -582.515625 768.714844 -583.054688 767.957031 -583.5 767.132812 C -583.941406 766.304688 -584.277344 765.4375 -584.507812 764.527344 C -584.734375 763.617188 -584.847656 762.695312 -584.84375 761.753906 C -582.371094 761.078125 -579.816406 759.8125 -577.292969 759.769531 C -561.832031 759.523438 -546.347656 758.929688 -530.898438 759.621094 C -509.730469 760.582031 -489.492188 754.605469 -468.765625 752.394531 C -463.457031 751.820312 -458.128906 749.707031 -453.242188 747.378906 C -452.476562 747.015625 -451.777344 746.550781 -451.148438 745.988281 C -411.425781 752.953125 -372.261719 754.121094 -333.746094 739.742188 C -331.136719 738.855469 -328.460938 738.550781 -325.71875 738.835938 C -324.25 738.964844 -322.914062 740.679688 -320.570312 742.351562 C -323.074219 745.988281 -325.070312 750.171875 -328.1875 753.214844 C -365.527344 789.65625 -356.410156 791.511719 -413.042969 784.382812 C -438.167969 781.214844 -463.683594 781.007812 -488.316406 774.082031 C -489.554688 773.738281 -492.277344 775.238281 -492.804688 776.5 C -493.742188 778.765625 -494.53125 782.011719 -493.546875 783.910156 C -491.773438 787.132812 -489.390625 789.816406 -486.394531 791.957031 C -472.910156 801.898438 -457.382812 806.742188 -440.996094 809.160156 C -430.273438 810.734375 -419.214844 810.90625 -409.460938 817.214844 C -413.019531 825.703125 -421.996094 826.632812 -428.589844 830.664062 C -432.375 832.984375 -437.21875 833.640625 -439.722656 837.878906 C -440.171875 838.621094 -440.472656 839.421875 -440.625 840.273438 C -440.777344 841.128906 -440.769531 841.980469 -440.609375 842.832031 C -440.308594 843.644531 -439.851562 844.359375 -439.234375 844.976562 C -438.621094 845.589844 -437.90625 846.046875 -437.089844 846.347656 C -431.695312 847.75 -426.507812 846.746094 -421.144531 845.050781 C -400.214844 838.460938 -380.804688 828.703125 -362.238281 816.871094 C -352.925781 822.910156 -342.09375 816.4375 -333.195312 821.464844 C -333.195312 826.125 -335.460938 828.851562 -338.015625 831.507812 C -347.121094 841.082031 -356.910156 849.90625 -367.375 857.976562 C -377.839844 866.046875 -388.863281 873.269531 -400.441406 879.640625 C -417.195312 888.765625 -433.886719 897.976562 -452.507812 903.25 C -456.078125 904.265625 -461.0625 906.488281 -458.484375 914.039062 C -438.816406 914.554688 -419.203125 913.691406 -400.097656 906.5625 C -372.550781 896.296875 -347.457031 882.164062 -326.007812 861.78125 C -322.578125 858.546875 -319.417969 852.558594 -311.183594 856.765625 C -311.183594 860.507812 -311.25 864.960938 -311.183594 869.40625 C -310.636719 900.339844 -309.835938 931.261719 -309.589844 962.164062 C -309.503906 972.460938 -307.828125 981.996094 -301.980469 990.613281 C -298.488281 995.757812 -288.605469 995.671875 -285.703125 990.019531 C -281.570312 981.996094 -278.894531 973.84375 -279.714844 964.136719 C -281.300781 945.164062 -281.289062 926.050781 -281.644531 906.972656 C -281.710938 903.738281 -282.054688 899.421875 -275.441406 898.625 C -268.082031 905.203125 -260.152344 912.546875 -251.945312 919.558594 C -243.398438 926.859375 -232.523438 929.265625 -222.210938 932.683594 C -206.898438 937.832031 -203.535156 937.3125 -192.734375 931.230469 C -192.984375 930.378906 -192.949219 929.222656 -193.511719 928.707031 C -195.476562 926.90625 -197.375 924.703125 -199.746094 923.746094 C -226.613281 912.808594 -247.316406 893.890625 -266.207031 872.675781 C -268.902344 869.65625 -272.746094 866.203125 -268.773438 859.925781 C -249.019531 858.933594 -230.238281 861.480469 -213.492188 875.425781 C -203.78125 883.480469 -192.476562 889.964844 -181.027344 895.324219 C -167.101562 901.847656 -152.375 906.746094 -137.765625 911.6875 C -133.6875 913.066406 -128.777344 912.355469 -124.289062 912.007812 C -122.972656 911.914062 -121.183594 909.972656 -120.75 908.527344 C -120.5625 907.671875 -120.5625 906.8125 -120.75 905.957031 C -120.9375 905.101562 -121.300781 904.324219 -121.832031 903.628906 C -123.566406 901.667969 -125.800781 899.316406 -128.175781 898.882812 C -150.074219 894.375 -168.09375 881.746094 -187.015625 871.066406 C -190.144531 869.296875 -193.285156 867.269531 -193.792969 863.117188 C -192.808594 861.78125 -192.097656 859.753906 -190.761719 859.191406 C -185.765625 857.035156 -180.597656 855.320312 -175.417969 853.636719 C -164.21875 850.003906 -152.902344 846.691406 -141.777344 842.851562 C -137.515625 841.222656 -133.476562 839.15625 -129.664062 836.652344 C -127.398438 835.269531 -124.9375 832.996094 -126.070312 830.027344 C -127.570312 826.070312 -131.28125 825.714844 -135.023438 826.316406 C -137.699219 826.792969 -140.582031 826.996094 -142.964844 828.152344 C -166.992188 839.757812 -192.765625 836.964844 -218.140625 837.601562 C -223.773438 837.738281 -229.210938 837.210938 -233.34375 833.039062 C -242.804688 823.492188 -253.398438 814.929688 -260.996094 803.917969 C -254.953125 797.015625 -250.089844 803.355469 -245.15625 803.019531 C -225.144531 801.695312 -205.617188 804.855469 -185.992188 808.316406 C -159.589844 812.976562 -133.480469 808.242188 -107.523438 803.5625 C -101.902344 802.546875 -97.890625 798.761719 -95.300781 793.550781 C -94.894531 792.589844 -94.746094 791.589844 -94.859375 790.554688 C -91.578125 789.953125 -88.34375 789.175781 -85.148438 788.222656 C -60.605469 780.824219 -37.796875 769.886719 -17.535156 753.945312 C -11.0625 748.886719 -4.480469 744.089844 2.132812 739.269531 C 8.433594 734.664062 14.171875 728.988281 23.441406 726.800781 C 27.023438 737.046875 28.554688 746.527344 27.347656 755.316406 C 7.679688 783.46875 -16.757812 802.699219 -48.78125 811.617188 C -56.644531 813.773438 -64.542969 815.929688 -72.265625 818.585938 C -75.640625 819.855469 -78.738281 821.609375 -81.566406 823.847656 C -82.171875 824.441406 -82.617188 825.136719 -82.898438 825.9375 C -83.179688 826.738281 -83.273438 827.558594 -83.175781 828.398438 C -82.628906 830.148438 -81.585938 831.519531 -80.046875 832.507812 C -78.519531 833.550781 -76.832031 834.097656 -74.984375 834.148438 C -43.429688 834.050781 -13.660156 828.195312 11.195312 806.914062 C 13.957031 804.554688 16.523438 801.921875 19.4375 799.753906 C 21.875 797.941406 23.453125 793.421875 28.75 796.949219 C 29.191406 804.5 29.179688 812.664062 30.269531 820.675781 C 31.371094 829.667969 31.902344 838.691406 31.867188 847.75 C 32.253906 884.097656 33.820312 920.433594 34.824219 956.78125 C 34.996094 963.25 35.382812 969.386719 38.867188 975.117188 C 41.449219 979.429688 44.640625 981.769531 49.710938 981.769531 C 62.722656 981.769531 69.550781 975.71875 66.898438 963.433594 C 61.265625 937.3125 63.328125 910.996094 62.753906 884.699219 C 61.988281 849.3125 64.246094 813.796875 57.847656 778.644531 C 56.585938 771.710938 63.414062 767.332031 70.414062 769.542969 C 77.796875 771.871094 83.09375 777.015625 87.589844 782.484375 C 96.503906 793.269531 107.539062 800.820312 119.957031 806.957031 C 124.019531 808.992188 127.875 811.351562 131.535156 814.042969 C 142.054688 821.691406 154.40625 824.960938 166.480469 828.765625 C 168.367188 829.359375 172.242188 827.6875 173.242188 825.898438 C 174.246094 824.105469 173.480469 820.257812 172.015625 818.746094 C 168.1875 814.871094 163.980469 811.464844 159.390625 808.53125 C 147.179688 800.574219 137.414062 790.195312 125.40625 777.320312 C 132.246094 775.5625 134.78125 774.570312 137.390625 774.289062 C 158.59375 772.035156 177.828125 764.226562 196.050781 753.601562 C 198.199219 752.453125 200.199219 751.089844 202.050781 749.503906 C 218.460938 749.804688 234.75 749.621094 251.226562 746.515625 C 283.863281 740.367188 314.621094 730.800781 341.085938 709.898438 C 348.636719 703.945312 356.339844 698.035156 366.40625 693.277344 C 366.6875 698.574219 366.570312 702.199219 367.128906 705.714844 C 369.289062 719.132812 363.019531 728.71875 352.8125 736.019531 C 337.988281 746.613281 322.777344 755.800781 303.832031 758.574219 C 290.3125 760.558594 276.859375 762.058594 263.253906 762.886719 C 255.011719 763.382812 247.070312 764.183594 239.25 770.351562 C 242.820312 772.574219 245.507812 775.410156 248.605469 775.960938 C 257.523438 777.636719 266.511719 778.714844 275.574219 779.195312 C 305.890625 780.585938 334.914062 773.804688 362.46875 762.921875 C 364.367188 765.390625 366.332031 766.761719 366.332031 768.121094 C 366.332031 792.667969 366.492188 817.214844 365.707031 841.742188 C 365.144531 859 367.109375 875.984375 368.371094 893.070312 C 368.542969 895.410156 370.980469 897.460938 374.175781 897.816406 C 382.804688 898.785156 389.355469 894.761719 390.078125 886.976562 C 390.527344 880.628906 390.65625 874.277344 390.464844 867.917969 C 390.304688 841.535156 390.046875 815.15625 389.839844 788.773438 C 389.839844 784.234375 389.625 779.628906 393 775.894531 C 394.738281 776.066406 396.550781 776.113281 398.308594 776.445312 C 435.519531 783.476562 435.691406 783.285156 465.339844 808.347656 C 480.820312 821.441406 499.402344 828.433594 516.046875 837.675781 C 521.980469 833.664062 523.15625 829.175781 518.980469 825.660156 C 512.769531 820.429688 505.550781 816.40625 498.859375 811.734375 C 487.910156 804.109375 485.988281 801.800781 478.363281 788.074219 C 481.597656 783.996094 486.324219 784.382812 490.660156 783.929688 C 511.753906 781.773438 530.71875 772.800781 550.152344 765.390625 C 550.972656 764.875 551.535156 764.15625 551.835938 763.234375 C 569.820312 765.003906 587.15625 759.695312 604.796875 757.839844 C 631.003906 755.078125 656.980469 750.691406 681.160156 739.453125 C 684.058594 738.121094 687.078125 737.171875 690.214844 736.605469 C 693.355469 736.039062 696.515625 735.875 699.695312 736.109375 C 707.871094 736.550781 716.0625 737.066406 724.1875 738.050781 C 724.867188 738.128906 725.511719 738.320312 726.128906 738.625 C 726.742188 738.929688 727.289062 739.324219 727.765625 739.816406 C 728.246094 740.308594 728.628906 740.863281 728.914062 741.484375 C 729.203125 742.109375 729.375 742.757812 729.441406 743.441406 C 729.3125 744.308594 729.023438 745.117188 728.578125 745.867188 C 708.078125 767.527344 681.828125 779.855469 654.867188 790.886719 C 649.699219 793.042969 643.960938 791.554688 639.234375 788.320312 C 630.992188 782.667969 623.125 776.457031 614.691406 771.0625 C 610.515625 768.421875 606.394531 763.828125 600.394531 766.664062 C 596.726562 771.34375 598.925781 775.195312 601.839844 778.90625 C 607.234375 785.828125 617.355469 788.289062 621.453125 797.769531 C 618.28125 799.570312 616.234375 801.425781 613.902344 801.953125 C 604.191406 804.109375 594.34375 805.867188 584.546875 807.746094 C 577.082031 809.167969 571.597656 813.214844 573.046875 816.546875 C 575.667969 822.695312 581.429688 823.019531 586.867188 822.855469 C 595.929688 822.671875 605 822.132812 614.042969 821.421875 C 624.917969 820.570312 635.75 819.179688 646.636719 818.445312 C 650.207031 818.246094 653.660156 818.800781 656.992188 820.105469 C 674.515625 827.148438 691.90625 834.515625 708.292969 843.152344 C 707.960938 845.257812 708.144531 846.605469 707.625 846.992188 C 690.675781 859.355469 672.746094 869.75 651.683594 873.3125 C 640.074219 875.261719 628.382812 876.699219 616.738281 878.464844 C 612.015625 879.179688 608.023438 880.96875 607.355469 886.511719 C 631.273438 894.839844 672.226562 890.761719 724.1875 874.171875 C 724.402344 882.101562 724.734375 887.429688 724.660156 892.746094 C 724.359375 914.585938 723.90625 936.417969 723.582031 958.257812 C 723.484375 964.589844 727.324219 968.320312 732.707031 970.414062 C 745.074219 975.234375 755.117188 969.550781 756.359375 956.683594 C 756.835938 950.332031 756.699219 943.992188 755.949219 937.667969 C 755.527344 933.257812 754.050781 929.191406 754.40625 924.402344 C 755.808594 905.601562 756.21875 886.738281 757.199219 867.90625 C 757.382812 864.421875 758.515625 860.992188 759.085938 858.199219 C 765.269531 856.378906 768.601562 859.679688 772.164062 862.515625 C 783.050781 870.980469 795.46875 876.609375 808.132812 881.746094 C 812.277344 883.417969 817.359375 886.4375 820.59375 882.058594 C 825.429688 875.585938 818.1875 872.847656 814.671875 869.515625 C 808.101562 863.257812 801.378906 857.121094 794.292969 851.46875 C 784.289062 843.488281 774.699219 835.140625 767.167969 824.734375 C 765.28125 822.121094 762.226562 819.101562 767.296875 813.945312 C 782.402344 814.949219 797.875 817.601562 811.886719 827.503906 C 826.722656 838.207031 842.691406 846.804688 859.789062 853.304688 C 867.644531 856.203125 875.445312 857.746094 883.613281 855.730469 C 884.796875 855.4375 885.652344 853.183594 886.296875 851.6875 C 886.386719 851.257812 886.367188 850.832031 886.234375 850.414062 C 886.105469 849.996094 885.882812 849.636719 885.566406 849.335938 C 881.066406 846.371094 876.414062 843.667969 871.613281 841.222656 C 862.875 837.105469 853.792969 833.675781 847.5 826.976562 C 849.519531 821.335938 853.121094 820.375 856.769531 820.050781 C 865.832031 819.230469 874.90625 818.421875 884 818.152344 C 888.988281 818.09375 893.914062 817.503906 898.777344 816.394531 C 903.640625 815.285156 908.328125 813.671875 912.847656 811.5625 C 913.929688 811.023438 914.878906 808.5 914.628906 807.121094 C 914.382812 805.738281 912.773438 804.195312 911.394531 803.484375 C 909.722656 802.722656 907.96875 802.417969 906.140625 802.566406 C 877.871094 804.1875 849.84375 802.09375 821.921875 797.597656 C 815.609375 796.570312 808.488281 797.023438 803.871094 792.417969 C 788.636719 777.234375 771.503906 763.296875 764.191406 742.0625 C 768.191406 737.746094 771.582031 741.339844 774.320312 742.386719 C 803.128906 753.441406 831.285156 766.113281 860.945312 775.023438 C 880.179688 780.8125 899.535156 785 919.515625 786.410156 C 922.246094 786.574219 924.902344 786.214844 927.488281 785.332031 C 928.238281 784.976562 928.863281 784.464844 929.363281 783.800781 C 929.863281 783.140625 930.179688 782.398438 930.316406 781.578125 C 930.265625 780.691406 930.011719 779.871094 929.554688 779.109375 C 929.09375 778.347656 928.488281 777.738281 927.726562 777.277344 Z M -667.5625 397.808594 C -669.09375 400.363281 -674.035156 400.105469 -678.101562 396.113281 C -674.941406 385.761719 -669.296875 376.527344 -659.761719 367.167969 C -655.769531 380.625 -662.425781 389.246094 -667.5625 397.808594 Z M -652.726562 757.226562 C -653.804688 762.296875 -657.699219 764.613281 -662.175781 765.855469 C -681.1875 771.246094 -700.121094 777.363281 -721.765625 773.621094 C -721.421875 772.292969 -720.992188 770.988281 -720.480469 769.714844 C -719.964844 768.441406 -719.375 767.207031 -718.699219 766.011719 C -718.027344 764.816406 -717.277344 763.667969 -716.457031 762.566406 C -715.632812 761.46875 -714.746094 760.425781 -713.789062 759.441406 C -712.828125 758.457031 -711.8125 757.539062 -710.734375 756.6875 C -709.660156 755.835938 -708.53125 755.054688 -707.355469 754.351562 C -706.175781 753.644531 -704.957031 753.019531 -703.699219 752.46875 C -702.4375 751.921875 -701.148438 751.457031 -699.832031 751.078125 C -685.480469 746.765625 -669.976562 746.226562 -655.328125 744.132812 C -651.257812 748.304688 -651.789062 752.773438 -652.726562 757.226562 Z M -313.851562 543.738281 C -305.574219 559.742188 -307.710938 562.835938 -331.933594 566.828125 C -326.570312 555.859375 -320.9375 549.386719 -313.851562 543.738281 Z M -309.371094 683.679688 C -309.578125 685.019531 -309.988281 686.296875 -310.597656 687.507812 C -311.210938 688.71875 -311.996094 689.804688 -312.953125 690.765625 C -329.492188 705.023438 -346.347656 718.460938 -368.0625 724.835938 C -399.277344 733.992188 -430.230469 737.574219 -461.925781 727.285156 C -473.113281 723.640625 -484.679688 721.179688 -496.105469 718.3125 C -496.980469 718.058594 -497.871094 717.945312 -498.78125 717.976562 C -499.691406 718.007812 -500.574219 718.175781 -501.433594 718.484375 C -502.289062 718.792969 -503.078125 719.226562 -503.796875 719.785156 C -504.515625 720.34375 -505.132812 721 -505.644531 721.753906 C -508.082031 724.988281 -506.042969 730.746094 -501.425781 733.054688 C -498.089844 734.703125 -494.675781 736.175781 -491.1875 737.46875 C -503.496094 738.007812 -515.839844 737.25 -528.203125 736.386719 C -531.847656 736.152344 -535.238281 735.191406 -533.996094 729.25 C -505.511719 720.242188 -481.992188 701.078125 -456.101562 686.363281 C -454.425781 685.542969 -453.074219 684.351562 -452.042969 682.796875 C -450.761719 680.449219 -449.960938 677.953125 -449.636719 675.300781 C -449.433594 673.324219 -456.058594 671.320312 -459.078125 672.460938 C -486.191406 682.804688 -513.257812 693.269531 -540.382812 703.546875 C -558.238281 710.320312 -576.160156 716.683594 -595.40625 718.9375 C -603.183594 719.855469 -609.785156 717.859375 -616.402344 715.023438 C -621.0625 713.015625 -622.476562 708.550781 -622.464844 703.730469 C -622.464844 699.597656 -618.148438 694.917969 -613.464844 695.253906 C -593.183594 696.6875 -573.804688 690.808594 -554.128906 688.046875 C -539.757812 685.882812 -525.679688 682.503906 -511.890625 677.917969 C -506.222656 676.175781 -500.789062 673.886719 -495.582031 671.046875 C -490.378906 668.210938 -485.503906 664.886719 -480.96875 661.074219 C -478.207031 658.699219 -476.363281 654.945312 -478.8125 651.367188 C -480.136719 649.457031 -482.921875 648.574219 -485.476562 646.953125 C -504.769531 662.808594 -527.671875 669.453125 -551.289062 671.285156 C -575.199219 673.140625 -599.925781 675.601562 -623.78125 663.738281 L -623.78125 632.953125 C -623.78125 629.4375 -623.78125 625.761719 -618.65625 623.699219 C -607.609375 627.84375 -597.359375 636.203125 -584.636719 638.175781 C -571.917969 640.148438 -560.351562 646.1875 -547.320312 645.726562 C -535.117188 645.261719 -522.503906 648.820312 -510.636719 643.179688 C -512.34375 635.15625 -517.886719 634.445312 -523.316406 633.472656 C -554.191406 628.078125 -582.503906 616.160156 -608.546875 598.957031 C -613.757812 595.527344 -618.203125 590.730469 -622.335938 586.015625 C -623.800781 584.324219 -624.15625 580.625 -623.414062 578.347656 C -622.871094 577.199219 -622.101562 576.226562 -621.101562 575.4375 C -620.105469 574.648438 -618.984375 574.125 -617.738281 573.859375 C -599.398438 571.941406 -581.550781 572.363281 -566.050781 585.011719 C -559.78125 590.125 -551.808594 593.113281 -545.140625 597.804688 C -532.195312 606.917969 -517.144531 610.683594 -502.558594 615.613281 C -499.621094 616.617188 -496.601562 617.234375 -493.503906 617.457031 C -493.679688 617.894531 -493.820312 618.34375 -493.925781 618.804688 C -494.660156 622.332031 -491.5625 623.796875 -489.210938 623.9375 C -477.832031 624.542969 -466.527344 623.871094 -455.296875 621.929688 C -444.066406 619.988281 -433.191406 616.820312 -422.675781 612.429688 C -395.207031 601.191406 -367.730469 594.171875 -337.984375 597.535156 C -330.984375 598.324219 -323.59375 594.484375 -315.726562 599.8125 C -320.34375 619.03125 -328.671875 636.480469 -341.910156 650.816406 C -370.285156 653.199219 -378.152344 652.59375 -401.953125 644.90625 C -410.65625 642.089844 -419.214844 639.167969 -428.480469 639.296875 C -432.894531 639.363281 -438.351562 638.734375 -439.582031 644.269531 C -440.726562 649.433594 -436.097656 652.359375 -432.300781 654.710938 C -426.152344 658.515625 -420 662.152344 -412.425781 663.207031 C -401.652344 664.648438 -391.011719 666.78125 -380.515625 669.605469 C -375.851562 670.898438 -369.59375 670.359375 -366.703125 676.894531 C -381.03125 691.929688 -403.816406 690.679688 -419.355469 703.070312 C -419.171875 705.144531 -419.6875 707.589844 -418.761719 708.410156 C -413.203125 713.339844 -406.503906 716.511719 -399.15625 714.179688 C -380.945312 708.398438 -362.691406 702.253906 -348.96875 687.972656 C -340.25 678.902344 -328.8125 676.109375 -317.421875 673.238281 C -315.402344 672.730469 -311.855469 674.316406 -310.570312 676.054688 C -309.285156 677.789062 -308.953125 681.210938 -309.371094 683.679688 Z M 0.804688 467.246094 C -0.628906 473.125 -3.078125 473.597656 -13.714844 471.0625 C -14.742188 462.15625 -7.242188 459.921875 -2.777344 455.359375 C 2.511719 458.929688 1.765625 463.320312 0.804688 467.246094 Z M -281.582031 508.996094 C -280.910156 507.5625 -279.226562 505.210938 -278.546875 505.382812 C -273.609375 506.675781 -268.839844 508.511719 -262.679688 510.613281 C -275.117188 514.710938 -275.128906 514.746094 -279.519531 513.246094 C -281.570312 512.542969 -282.488281 510.9375 -281.582031 508.996094 Z M -24.332031 719.433594 C -37.828125 730.21875 -51.476562 740.84375 -64.335938 752.351562 C -68.386719 756.003906 -72.753906 759.226562 -77.441406 762.015625 C -82.125 764.804688 -87.039062 767.109375 -92.183594 768.929688 C -103.199219 772.863281 -114.203125 776.964844 -123.46875 783.207031 L -123.46875 784.285156 C -129.996094 785.851562 -136.605469 786.871094 -143.300781 787.339844 C -170.660156 788.578125 -197.609375 785.183594 -224.421875 779.347656 C -243.109375 775.28125 -256.992188 763.871094 -271.386719 752.867188 C -276.691406 748.8125 -278.9375 742.621094 -280.511719 736.441406 C -282.238281 729.765625 -279.316406 724.125 -274.890625 718.398438 C -268.136719 722.441406 -261.46875 726.777344 -254.488281 730.554688 C -230.496094 743.527344 -206.039062 755.394531 -179.476562 762.554688 C -169.515625 765.238281 -159.742188 766.09375 -149.871094 764.03125 C -143.65625 762.738281 -137.65625 760.09375 -135.609375 751.769531 C -144.238281 746.90625 -153.949219 746.148438 -163.660156 744.542969 C -179.84375 741.867188 -196.132812 738.792969 -210.253906 730.207031 C -226.546875 720.296875 -242.179688 709.253906 -257.726562 698.132812 C -263.457031 694.035156 -269.757812 689.65625 -271.191406 680.660156 C -256.980469 675.4375 -242.160156 672.644531 -228.273438 670.144531 C -216.835938 674.359375 -208.097656 680.59375 -199.144531 687.085938 C -180.078125 700.957031 -160.476562 714.203125 -138.359375 723.15625 C -132.382812 725.570312 -126.492188 727.8125 -120.019531 727.75 C -114.808594 727.75 -111.6875 725.128906 -110.75 719.003906 C -116.707031 715.519531 -122.554688 710.804688 -129.242188 708.421875 C -148.304688 701.617188 -163.992188 688.890625 -181.6875 679.722656 C -186.484375 677.046875 -190.765625 673.714844 -194.535156 669.722656 C -197.988281 666.238281 -204.050781 664.332031 -203.480469 657.859375 C -197.878906 650.761719 -188.9375 650.382812 -181.816406 646.542969 C -174.695312 642.707031 -166.9375 642.695312 -158.265625 643.75 C -145.601562 645.378906 -132.894531 645.902344 -120.140625 645.320312 C -107.390625 644.742188 -94.78125 643.0625 -82.320312 640.289062 C -74.769531 638.5625 -68.867188 634.894531 -67.152344 625.1875 C -70.835938 624.140625 -74.59375 623.488281 -78.417969 623.238281 C -73.746094 621.769531 -69.082031 620.3125 -64.390625 618.921875 C -42.414062 612.332031 -22.378906 601.667969 -6.820312 584.054688 C -5.355469 582.390625 -3.195312 580.375 -0.347656 581.894531 C -3.941406 613.011719 -7.125 619.765625 -34.472656 653.953125 C -43.253906 657.191406 -52.113281 655.03125 -60.875 652.636719 C -70.496094 649.996094 -79.96875 646.792969 -89.59375 644.160156 C -94.878906 642.726562 -100.316406 642.1875 -105.667969 647.074219 C -96.347656 665.785156 -72.601562 662.972656 -59.957031 675.945312 C -62.113281 682.839844 -67.648438 684.886719 -72.4375 686.796875 C -81.015625 690.214844 -84.308594 697.582031 -88.117188 704.808594 C -88.796875 706.101562 -88.882812 708.757812 -88.050781 709.585938 C -86.28125 711.367188 -83.445312 713.8125 -81.578125 713.457031 C -71.757812 711.582031 -62.253906 708.765625 -54.269531 702.027344 C -44.5625 693.851562 -34.472656 686.191406 -24.613281 678.363281 C -15.453125 682.429688 -5.742188 678.632812 2.628906 685.179688 C -4.050781 698.917969 -12.765625 710.210938 -24.332031 719.433594 Z M 345.636719 582.023438 C 347.90625 579.28125 350.375 576.738281 353.050781 574.390625 C 356.222656 571.476562 358.867188 567.574219 363.839844 567.476562 C 367.386719 576.75 367.257812 580.945312 362.480469 583.136719 C 355.347656 586.371094 347.894531 588.992188 339.390625 592.324219 C 338.960938 586.265625 343.492188 584.777344 345.648438 582.023438 Z M 364.519531 636.96875 C 355.964844 646.414062 346.890625 654.675781 334.589844 659.917969 C 306.691406 671.78125 277.960938 679.117188 247.675781 680.410156 C 241.320312 680.679688 234.914062 680.757812 228.613281 681.609375 C 225.035156 682.285156 221.683594 683.554688 218.558594 685.414062 C 217.851562 685.953125 217.304688 686.617188 216.90625 687.410156 C 216.511719 688.199219 216.308594 689.039062 216.300781 689.925781 C 216.300781 691.378906 217.738281 693.742188 218.945312 694.023438 C 223.289062 695.144531 227.707031 695.765625 232.195312 695.886719 C 254.957031 696.09375 277.722656 695.886719 300.476562 696.148438 C 305.265625 696.148438 310.8125 694.453125 314.738281 699.492188 C 309.875 702.230469 305.320312 705.1875 300.445312 707.460938 C 271.636719 720.945312 242.917969 734.671875 210.21875 736.074219 C 209.089844 736.128906 207.96875 736.238281 206.851562 736.410156 C 207.035156 735.160156 207.21875 733.820312 207.421875 732.3125 C 204.035156 729.648438 200.507812 731.234375 197.152344 732.226562 C 184.207031 736.054688 171.117188 739.773438 158.3125 744.089844 C 137.8125 750.851562 117.316406 749.675781 97.28125 745.511719 C 92.371094 737.964844 84.820312 733.269531 84.226562 724.46875 C 87.460938 721.503906 90.699219 721.667969 94.484375 722.507812 C 122.753906 728.742188 150.394531 727.898438 176.761719 714.449219 C 180.300781 712.636719 182.394531 709.652344 181.625 705.820312 C 180.859375 701.992188 178.21875 698.886719 174.257812 698.886719 C 164.289062 698.886719 154.234375 698.886719 144.363281 700.128906 C 133.335938 701.488281 121.933594 701.207031 112.136719 697.777344 C 91.636719 690.464844 72.550781 679.441406 57.113281 663.554688 C 48.589844 654.785156 49.691406 644.65625 53.875 632.964844 C 70.894531 640.753906 87.132812 649.914062 102.597656 660.449219 C 114.21875 668.417969 126.90625 672.9375 140.984375 672.601562 C 148.277344 672.429688 155.625 671.199219 159.855469 662.832031 C 153.664062 654.40625 144.339844 651.59375 134.609375 649.070312 C 119.710938 645.195312 105.058594 640.539062 90.882812 629.375 C 128.871094 620.335938 165.519531 612.496094 190.613281 581.476562 C 184.5625 573.980469 184.257812 573.558594 178.679688 577.527344 C 145.453125 601.203125 108.003906 603.832031 69.175781 599.960938 C 63.523438 599.402344 58.3125 597.976562 55.074219 592.972656 C 51.425781 587.332031 45.578125 582.1875 48.492188 573.019531 C 59.496094 577.398438 69.519531 581.214844 79.390625 585.378906 C 93.265625 591.214844 107.722656 591.453125 122.300781 590.007812 C 124.617188 589.78125 127.84375 588.03125 127.21875 584.839844 C 126.753906 582.511719 125.203125 579.449219 123.28125 578.5625 C 118.335938 576.207031 113.1875 574.453125 107.832031 573.300781 C 96.136719 570.808594 85.59375 566.050781 72.367188 557.316406 C 86.578125 557.316406 97.183594 557.230469 107.679688 557.316406 C 121.707031 557.464844 134.824219 553.917969 147.511719 548.363281 C 200.214844 569.0625 255.25 569.699219 312.828125 561.941406 C 304.199219 573.039062 297.1875 582.089844 288.144531 589.835938 C 276.203125 600.070312 263.785156 604.179688 247.976562 600.953125 C 232.171875 597.730469 215.664062 596.53125 199.429688 594.6875 C 198.535156 594.730469 197.699219 594.964844 196.910156 595.390625 C 196.125 595.8125 195.46875 596.382812 194.941406 597.105469 C 193.160156 599.734375 194.550781 602.496094 196.816406 603.921875 C 206.160156 609.789062 216.765625 612.429688 227.167969 615.730469 C 231.621094 617.152344 237.957031 617.285156 239.183594 625.082031 C 232.355469 629.148438 225.527344 633.582031 218.375 637.410156 C 203.140625 645.585938 187.765625 653.480469 172.425781 661.441406 C 167.601562 663.941406 162.28125 665.753906 159.089844 670.542969 C 157.234375 673.335938 158.734375 675.546875 161.636719 678.4375 C 184.226562 671.265625 207.519531 664.199219 230.554688 656.371094 C 239.078125 653.480469 247.027344 648.820312 255.164062 644.882812 C 275.425781 635.003906 294.511719 621.683594 318.71875 623.570312 C 319.550781 623.636719 320.414062 622.882812 321.300781 622.761719 C 328.484375 621.769531 335.660156 620.347656 342.875 620.035156 C 350.785156 619.679688 357.785156 612.828125 366.136719 616.507812 C 368.941406 631.605469 368.941406 632.265625 364.625 636.96875 Z M 364.390625 362.34375 C 358.917969 366.757812 352.414062 363.855469 347.019531 360.078125 C 345.59375 359.085938 344.582031 357.492188 342.519531 355.226562 C 349.941406 350.609375 356.804688 345.660156 365.390625 343.988281 C 368.628906 351.050781 369.921875 357.933594 364.421875 362.34375 Z M 367.171875 304.382812 C 361.992188 315.535156 352.652344 322.878906 342.011719 328.402344 C 333.976562 332.578125 325.507812 335.953125 316.121094 340.136719 C 306.992188 334.550781 297.875 331.855469 294.066406 322.589844 C 304.230469 313.214844 318.375 315.472656 329.671875 309.648438 C 340.964844 303.824219 352.328125 298.472656 363.308594 293.125 C 369.890625 295.5625 368.921875 300.542969 367.195312 304.382812 Z M 391.652344 420.511719 C 398.523438 421.105469 402.90625 424.773438 405.679688 433.078125 C 389.496094 434.53125 388.414062 433.410156 391.652344 420.511719 Z M 393.488281 640.074219 C 389.171875 637.625 390.996094 634.3125 393.128906 631.273438 C 399.605469 631.996094 404.480469 635.261719 408.484375 640.203125 C 403.304688 643.621094 398.234375 642.769531 393.488281 640.074219 Z M 411.167969 589.542969 C 424.761719 594.148438 438.140625 599.734375 451.953125 603.109375 C 475.75 608.863281 499.738281 613.859375 523.914062 618.101562 C 545.621094 621.898438 567.488281 620.175781 588.894531 615.351562 C 590.265625 615.039062 591.644531 614.695312 593.003906 614.273438 L 593.585938 614.695312 C 604.050781 611.007812 616.15625 610.886719 626.332031 604.039062 C 638.890625 595.582031 652.484375 591.9375 667.707031 595.117188 C 672.085938 596.035156 676.855469 595.023438 681.3125 595.710938 C 685.765625 596.402344 691.527344 593.328125 695.25 598.234375 C 694.898438 599.347656 694.417969 600.398438 693.816406 601.394531 C 692.628906 602.734375 691.453125 604.320312 689.910156 605.09375 C 652.332031 624.175781 614.65625 642.996094 571.234375 644.03125 C 573.394531 642.886719 575.324219 641.4375 577.023438 639.679688 C 578.726562 637.925781 580.113281 635.949219 581.191406 633.753906 C 577.8125 632.675781 575.441406 631.230469 573.023438 631.175781 C 561.941406 630.90625 551.53125 634.507812 541.046875 637.410156 C 523.535156 642.25 506.046875 646.804688 487.738281 647.816406 C 479.105469 648.300781 471.4375 646.480469 464.5625 641.636719 C 444.320312 627.558594 426.335938 611.019531 410.621094 592.023438 C 410.402344 591.710938 410.941406 590.785156 411.265625 589.542969 Z M 725.890625 669.789062 C 717.257812 681.652344 706.578125 691.488281 695.433594 700.871094 C 694.542969 701.59375 693.589844 702.21875 692.570312 702.746094 C 691.550781 703.273438 690.492188 703.691406 689.386719 704 C 688.28125 704.308594 687.15625 704.5 686.015625 704.574219 C 684.871094 704.652344 683.730469 704.609375 682.59375 704.453125 C 661.773438 702.144531 640.980469 699.253906 622.757812 687.886719 C 614.28125 682.601562 604.949219 679.796875 595.722656 676.570312 C 594.644531 676.203125 592.238281 677.867188 591.40625 679.183594 C 590.996094 679.929688 590.773438 680.730469 590.742188 681.582031 C 590.707031 682.433594 590.871094 683.25 591.222656 684.023438 C 593.230469 686.980469 595.429688 690.195312 598.34375 692.070312 C 607.515625 697.960938 617.03125 703.339844 626.472656 708.800781 C 630.410156 711.074219 634.941406 712.519531 638.425781 715.269531 C 642.199219 718.28125 648.597656 718.117188 650.035156 724.167969 C 647.464844 726.132812 644.691406 727.753906 641.71875 729.03125 C 638.746094 730.3125 635.664062 731.207031 632.46875 731.71875 C 611.128906 735.816406 589.550781 738.773438 568.816406 745.578125 C 563.777344 747.226562 558.027344 746.65625 552.632812 747.109375 C 549.027344 747.433594 545.199219 747.226562 541.90625 748.445312 C 539.824219 749.210938 537.421875 752.050781 537.214844 754.164062 C 537.214844 755.941406 537.75 757.542969 538.824219 758.960938 L 538.597656 758.960938 C 531.496094 760.375 524.417969 762.347656 517.246094 762.867188 C 506.390625 763.644531 495.503906 764.558594 484.695312 765.230469 C 465.167969 766.457031 446.566406 762.683594 436.707031 742.160156 C 434.742188 738.082031 431.894531 734.4375 429.757812 730.425781 C 427.945312 727.046875 427.601562 723.609375 431.558594 720.71875 C 451.488281 729.226562 472.386719 736.550781 493.855469 739.140625 C 530.980469 743.613281 568.296875 742.796875 604.882812 733.097656 C 608.121094 732.246094 610.859375 729.378906 613.601562 727.167969 C 615.507812 725.625 614.246094 721.019531 611.863281 720.535156 C 608.378906 719.820312 604.851562 718.851562 601.355469 718.851562 C 569.515625 718.9375 537.820312 718.386719 506.242188 712.941406 C 492.359375 710.636719 478.75 707.242188 465.414062 702.757812 C 452.078125 698.277344 439.179688 692.761719 426.726562 686.214844 C 422.765625 684.058594 417.339844 682.589844 416.378906 675.828125 C 430.878906 675.191406 444.496094 674.523438 458.113281 674.046875 C 464.476562 673.820312 471.058594 673.488281 476.832031 676.699219 C 498.007812 688.425781 521.839844 690.085938 544.863281 694.808594 C 553.3125 696.546875 561.046875 695.296875 568.148438 687.949219 C 551.316406 676.570312 528.8125 680.25 513.015625 665.65625 C 523.957031 657.695312 537.472656 657.566406 548.683594 652.078125 C 552.378906 650.433594 556.191406 649.125 560.121094 648.152344 C 559.527344 648.792969 559.105469 649.535156 558.859375 650.375 C 557.855469 654.484375 561.132812 657.375 564.671875 657.921875 C 580.855469 660.457031 597.546875 663.207031 613.460938 659.261719 C 637.121094 653.371094 661.835938 651.128906 684.160156 640.128906 C 688.042969 638.207031 692.671875 636.75 697.105469 640.332031 C 690.417969 651.960938 679 657.707031 667.976562 663.972656 C 661.695312 667.519531 655.535156 671.265625 649.496094 675.210938 C 647.1875 676.734375 649.0625 683.300781 651.652344 684.648438 C 652.863281 685.289062 654.128906 685.785156 655.449219 686.140625 C 656.769531 686.496094 658.113281 686.699219 659.480469 686.75 C 660.847656 686.800781 662.203125 686.699219 663.550781 686.445312 C 664.894531 686.191406 666.191406 685.789062 667.445312 685.242188 C 682.390625 678.945312 698.335938 674.554688 710.980469 663.5625 C 713.761719 661.199219 716.714844 659.070312 719.835938 657.179688 C 722.425781 655.582031 724.304688 651.613281 728.339844 653.878906 C 728.835938 655.191406 729.164062 656.546875 729.316406 657.945312 C 729.472656 659.339844 729.449219 660.734375 729.25 662.125 C 729.054688 663.515625 728.683594 664.859375 728.148438 666.15625 C 727.609375 667.453125 726.917969 668.664062 726.074219 669.789062 Z M 727.496094 557.867188 C 718.609375 562.246094 710.3125 567.777344 697.699219 565.597656 C 705.617188 553.097656 715.714844 544.964844 727.445312 535.929688 C 730.574219 545.183594 729.386719 551.242188 727.550781 557.867188 Z M 729.332031 814.714844 C 725.652344 819.75 721.035156 819.546875 716.558594 819.027344 C 705.917969 817.753906 695.789062 815.015625 687.332031 809.074219 C 687.835938 806.582031 687.730469 805.328125 688.214844 805.027344 C 701.011719 796.832031 713.859375 788.730469 727.367188 780.222656 C 728.664062 783.886719 730.121094 786.261719 730.25 788.699219 C 730.789062 797.628906 731.976562 806.667969 729.386719 814.714844 Z M 755.472656 519.414062 C 758.234375 520.71875 760.261719 521.066406 761.300781 522.273438 C 767.015625 528.949219 772.496094 535.839844 778.066406 542.667969 C 772.539062 547.683594 766.953125 550.035156 758.871094 549.398438 C 756.175781 540.039062 751.859375 530.589844 755.527344 519.449219 Z M 755.472656 519.414062 "/>
</g>
</g>
</svg>
